PlayfairMono.glyphspackage
{
color = 5;
glyphname = exclam;
layers = (
{
guides = (
{
pos = (
520,
234
);
},
{
angle = 90;
pos = (
350,
201
);
}
);
layerId = "DF17D77B-A5C4-4843-826A-BC0F1C4CB224";
shapes = (
{
closed = 1;
nodes = (
(
383,
-14,
o
),
(
410,
13,
o
),
(
410,
46,
cs
),
(
410,
79,
o
),
(
383,
106,
o
),
(
350,
106,
cs
),
(
317,
106,
o
),
(
290,
79,
o
),
(
290,
46,
cs
),
(
290,
13,
o
),
(
317,
-14,
o
),
(
350,
-14,
cs
)
);
},
{
closed = 1;
nodes = (
(
350,
234,
l
),
(
350,
423,
o
),
(
409,
645,
o
),
(
409,
712,
cs
),
(
409,
757,
o
),
(
389,
782,
o
),
(
350,
782,
cs
),
(
311,
782,
o
),
(
291,
757,
o
),
(
291,
712,
cs
),
(
291,
644,
o
),
(
349,
423,
o
),
(
349,
234,
c
)
);
}
);
width = 700;
},
{
guides = (
{
pos = (
491,
234
);
}
);
layerId = "7300F074-2CFD-43CC-B20F-1BF1EAE6C2C7";
shapes = (
{
closed = 1;
nodes = (
(
399,
-14,
o
),
(
435,
22,
o
),
(
435,
71,
cs
),
(
435,
120,
o
),
(
399,
156,
o
),
(
350,
156,
cs
),
(
301,
156,
o
),
(
265,
120,
o
),
(
265,
71,
cs
),
(
265,
22,
o
),
(
301,
-14,
o
),
(
350,
-14,
cs
)
);
},
{
closed = 1;
nodes = (
(
384,
234,
l
),
(
384,
458,
o
),
(
409,
655,
o
),
(
409,
704,
cs
),
(
409,
755,
o
),
(
389,
782,
o
),
(
350,
782,
cs
),
(
311,
782,
o
),
(
291,
754,
o
),
(
291,
703,
cs
),
(
291,
654,
o
),
(
316,
459,
o
),
(
316,
234,
c
)
);
}
);
width = 700;
},
{
guides = (
{
pos = (
506,
234
);
}
);
layerId = "F497C50F-30EB-4580-9148-0005B36D0333";
shapes = (
{
closed = 1;
nodes = (
(
413,
-14,
o
),
(
448,
15,
o
),
(
448,
70,
cs
),
(
448,
125,
o
),
(
413,
154,
o
),
(
350,
154,
cs
),
(
286,
154,
o
),
(
252,
125,
o
),
(
252,
70,
cs
),
(
252,
15,
o
),
(
286,
-14,
o
),
(
350,
-14,
cs
)
);
},
{
closed = 1;
nodes = (
(
351,
234,
l
),
(
362,
404,
o
),
(
456,
547,
o
),
(
456,
653,
cs
),
(
456,
728,
o
),
(
411,
782,
o
),
(
348,
782,
cs
),
(
286,
782,
o
),
(
244,
730,
o
),
(
244,
654,
cs
),
(
244,
545,
o
),
(
339,
405,
o
),
(
350,
234,
c
)
);
}
);
width = 700;
},
{
guides = (
{
pos = (
500,
234
);
},
{
angle = 90;
pos = (
350,
201
);
}
);
layerId = "29EF49B2-C370-4E88-B36E-A4ACD23E3F3A";
shapes = (
{
closed = 1;
nodes = (
(
415,
-14,
o
),
(
453,
20,
o
),
(
453,
77,
cs
),
(
453,
135,
o
),
(
415,
168,
o
),
(
349,
168,
cs
),
(
283,
168,
o
),
(
245,
135,
o
),
(
245,
77,
cs
),
(
245,
19,
o
),
(
283,
-14,
o
),
(
349,
-14,
cs
)
);
},
{
closed = 1;
nodes = (
(
383,
264,
l
),
(
391,
422,
o
),
(
456,
555,
o
),
(
456,
653,
cs
),
(
456,
728,
o
),
(
411,
782,
o
),
(
348,
782,
cs
),
(
286,
782,
o
),
(
244,
730,
o
),
(
244,
654,
cs
),
(
244,
553,
o
),
(
310,
423,
o
),
(
317,
264,
c
)
);
}
);
width = 700;
}
);
metricLeft = period;
metricRight = period;
unicode = 33;
userData = {
KernOnSpecialSpacing = {};
};
}
{
color = 4;
glyphname = percent;
kernLeft = KO_percent;
layers = (
{
layerId = "DF17D77B-A5C4-4843-826A-BC0F1C4CB224";
shapes = (
{
closed = 1;
nodes = (
(
550.909,
528,
l
),
(
550,
529,
l
),
(
150.909,
-13,
l
),
(
151.818,
-14,
l
)
);
},
{
closed = 1;
nodes = (
(
273.636,
218,
o
),
(
330,
282,
o
),
(
330,
376,
cs
),
(
330,
468,
o
),
(
277.273,
529,
o
),
(
197.273,
529,
cs
),
(
115.455,
529,
o
),
(
59.091,
465,
o
),
(
59.091,
370,
cs
),
(
59.091,
278,
o
),
(
111.818,
218,
o
),
(
191.818,
218,
cs
)
);
},
{
closed = 1;
nodes = (
(
149.091,
219,
o
),
(
122.727,
275,
o
),
(
122.727,
376,
cs
),
(
122.727,
474,
o
),
(
147.273,
528,
o
),
(
192.727,
528,
cs
),
(
240,
528,
o
),
(
266.364,
473,
o
),
(
266.364,
374,
cs
),
(
266.364,
272,
o
),
(
241.818,
219,
o
),
(
196.364,
219,
cs
)
);
},
{
closed = 1;
nodes = (
(
584.545,
-14,
o
),
(
640.909,
50,
o
),
(
640.909,
144,
cs
),
(
640.909,
236,
o
),
(
588.182,
297,
o
),
(
508.182,
297,
cs
),
(
426.364,
297,
o
),
(
370,
233,
o
),
(
370,
138,
cs
),
(
370,
46,
o
),
(
422.727,
-14,
o
),
(
502.727,
-14,
cs
)
);
},
{
closed = 1;
nodes = (
(
460,
-13,
o
),
(
433.636,
43,
o
),
(
433.636,
144,
cs
),
(
433.636,
242,
o
),
(
458.182,
296,
o
),
(
503.636,
296,
cs
),
(
550.909,
296,
o
),
(
577.273,
241,
o
),
(
577.273,
142,
cs
),
(
577.273,
40,
o
),
(
552.727,
-13,
o
),
(
507.273,
-13,
cs
)
);
},
{
closed = 1;
nodes = (
(
460,
470,
o
),
(
505.455,
487,
o
),
(
541.818,
520,
c
),
(
543.636,
519,
l
),
(
550,
529,
l
),
(
513.636,
492,
o
),
(
463.636,
471,
o
),
(
410,
471,
cs
),
(
365.455,
471,
o
),
(
306.364,
489,
o
),
(
266.364,
510,
c
),
(
276.364,
495,
l
),
(
280,
502,
l
),
(
318.182,
485,
o
),
(
364.545,
470,
o
),
(
410,
470,
cs
)
);
}
);
width = 700;
},
{
layerId = "F497C50F-30EB-4580-9148-0005B36D0333";
shapes = (
{
closed = 1;
nodes = (
(
549.533,
532,
l
),
(
548.715,
533,
l
),
(
153.738,
-13,
l
),
(
154.556,
-14,
l
)
);
},
{
closed = 1;
nodes = (
(
275.584,
222,
o
),
(
334.463,
286,
o
),
(
334.463,
380,
cs
),
(
334.463,
472,
o
),
(
279.673,
533,
o
),
(
197.079,
533,
cs
),
(
111.215,
533,
o
),
(
53.154,
469,
o
),
(
53.154,
374,
cs
),
(
53.154,
283,
o
),
(
107.944,
222,
o
),
(
190.537,
222,
cs
)
);
},
{
closed = 1;
nodes = (
(
168.458,
223,
o
),
(
153.738,
277,
o
),
(
153.738,
380,
cs
),
(
153.738,
482,
o
),
(
166.822,
532,
o
),
(
192.991,
532,
cs
),
(
219.977,
532,
o
),
(
233.879,
478,
o
),
(
233.879,
375,
cs
),
(
233.879,
273,
o
),
(
220.794,
223,
o
),
(
194.626,
223,
cs
)
);
},
{
closed = 1;
nodes = (
(
587.967,
-14,
o
),
(
646.846,
50,
o
),
(
646.846,
144,
cs
),
(
646.846,
236,
o
),
(
592.056,
297,
o
),
(
509.463,
297,
cs
),
(
423.598,
297,
o
),
(
365.537,
233,
o
),
(
365.537,
138,
cs
),
(
365.537,
47,
o
),
(
420.327,
-14,
o
),
(
502.921,
-14,
cs
)
);
},
{
closed = 1;
nodes = (
(
480.841,
-13,
o
),
(
466.121,
41,
o
),
(
466.121,
144,
cs
),
(
466.121,
246,
o
),
(
479.206,
296,
o
),
(
505.374,
296,
cs
),
(
532.36,
296,
o
),
(
546.262,
242,
o
),
(
546.262,
139,
cs
),
(
546.262,
37,
o
),
(
533.178,
-13,
o
),
(
507.009,
-13,
cs
)
);
},
{
closed = 1;
nodes = (
(
460.397,
474,
o
),
(
505.374,
491,
o
),
(
541.355,
524,
c
),
(
542.991,
523,
l
),
(
548.715,
533,
l
),
(
512.734,
496,
o
),
(
463.668,
475,
o
),
(
410.514,
475,
cs
),
(
366.355,
475,
o
),
(
307.477,
491,
o
),
(
267.407,
514,
c
),
(
280.491,
498,
l
),
(
284.579,
504,
l
),
(
321.379,
488,
o
),
(
366.355,
474,
o
),
(
410.514,
474,
cs
)
);
}
);
width = 700;
},
{
guides = (
{
pos = (
371.275,
474
);
}
);
layerId = "7300F074-2CFD-43CC-B20F-1BF1EAE6C2C7";
shapes = (
{
closed = 1;
nodes = (
(
520.882,
482,
l
),
(
485.882,
529,
l
),
(
179.804,
33,
l
),
(
215.49,
-14,
l
)
);
},
{
closed = 1;
nodes = (
(
238.824,
218,
o
),
(
286.863,
282,
o
),
(
286.863,
376,
cs
),
(
286.863,
468,
o
),
(
241.569,
529,
o
),
(
172.941,
529,
cs
),
(
102.941,
529,
o
),
(
54.902,
465,
o
),
(
54.902,
370,
cs
),
(
54.902,
278,
o
),
(
100.196,
218,
o
),
(
168.824,
218,
cs
)
);
},
{
closed = 1;
nodes = (
(
126.961,
276,
o
),
(
102.941,
310,
o
),
(
102.941,
374,
cs
),
(
102.941,
437,
o
),
(
126.275,
471,
o
),
(
169.51,
471,
cs
),
(
214.118,
471,
o
),
(
238.824,
436,
o
),
(
238.824,
374,
cs
),
(
238.824,
310,
o
),
(
216.176,
276,
o
),
(
172.255,
276,
cs
)
);
},
{
closed = 1;
nodes = (
(
597.059,
-14,
o
),
(
645.098,
50,
o
),
(
645.098,
145,
cs
),
(
645.098,
237,
o
),
(
599.804,
297,
o
),
(
531.176,
297,
cs
),
(
461.176,
297,
o
),
(
413.137,
233,
o
),
(
413.137,
138,
cs
),
(
413.137,
46,
o
),
(
458.431,
-14,
o
),
(
527.059,
-14,
cs
)
);
},
{
closed = 1;
nodes = (
(
485.882,
44,
o
),
(
461.176,
79,
o
),
(
461.176,
143,
cs
),
(
461.176,
205,
o
),
(
484.51,
239,
o
),
(
527.745,
239,
cs
),
(
572.353,
239,
o
),
(
597.059,
204,
o
),
(
597.059,
142,
cs
),
(
597.059,
78,
o
),
(
574.412,
44,
o
),
(
530.49,
44,
cs
)
);
},
{
closed = 1;
nodes = (
(
385,
423,
o
),
(
413.824,
443,
o
),
(
443.333,
474,
c
),
(
453.627,
456,
l
),
(
485.882,
529,
l
),
(
451.569,
505,
o
),
(
403.529,
491,
o
),
(
360.294,
491,
cs
),
(
309.51,
491,
o
),
(
253.235,
502,
o
),
(
218.235,
518,
c
),
(
263.529,
462,
l
),
(
271.765,
474,
l
),
(
302.647,
441,
o
),
(
327.353,
423,
o
),
(
352.059,
423,
cs
)
);
}
);
width = 700;
},
{
layerId = "29EF49B2-C370-4E88-B36E-A4ACD23E3F3A";
shapes = (
{
closed = 1;
nodes = (
(
537.023,
483,
l
),
(
504.962,
533,
l
),
(
163.645,
36,
l
),
(
196.374,
-14,
l
)
);
},
{
closed = 1;
nodes = (
(
249.809,
222,
o
),
(
303.244,
286,
o
),
(
303.244,
380,
cs
),
(
303.244,
472,
o
),
(
253.149,
533,
o
),
(
177.672,
533,
cs
),
(
99.523,
533,
o
),
(
46.756,
469,
o
),
(
46.756,
374,
cs
),
(
46.756,
283,
o
),
(
96.851,
222,
o
),
(
172.328,
222,
cs
)
);
},
{
closed = 1;
nodes = (
(
145.611,
280,
o
),
(
128.912,
314,
o
),
(
128.912,
379,
cs
),
(
128.912,
442,
o
),
(
144.943,
475,
o
),
(
174.332,
475,
cs
),
(
205.057,
475,
o
),
(
221.088,
440,
o
),
(
221.088,
375,
cs
),
(
221.088,
312,
o
),
(
205.725,
280,
o
),
(
176.336,
280,
cs
)
);
},
{
closed = 1;
nodes = (
(
599.809,
-14,
o
),
(
653.244,
50,
o
),
(
653.244,
144,
cs
),
(
653.244,
236,
o
),
(
603.149,
297,
o
),
(
527.672,
297,
cs
),
(
449.523,
297,
o
),
(
396.756,
233,
o
),
(
396.756,
138,
cs
),
(
396.756,
47,
o
),
(
446.851,
-14,
o
),
(
522.328,
-14,
cs
)
);
},
{
closed = 1;
nodes = (
(
495.611,
44,
o
),
(
478.912,
78,
o
),
(
478.912,
143,
cs
),
(
478.912,
206,
o
),
(
494.943,
239,
o
),
(
524.332,
239,
cs
),
(
555.057,
239,
o
),
(
571.088,
204,
o
),
(
571.088,
139,
cs
),
(
571.088,
76,
o
),
(
555.725,
44,
o
),
(
526.336,
44,
cs
)
);
},
{
closed = 1;
nodes = (
(
400.095,
427,
o
),
(
428.149,
447,
o
),
(
456.87,
478,
c
),
(
466.889,
460,
l
),
(
504.962,
533,
l
),
(
469.561,
509,
o
),
(
420.802,
495,
o
),
(
376.05,
495,
cs
),
(
322.615,
495,
o
),
(
263.168,
506,
o
),
(
226.431,
522,
c
),
(
279.198,
466,
l
),
(
287.214,
478,
l
),
(
318.607,
445,
o
),
(
343.321,
427,
o
),
(
368.034,
427,
cs
)
);
}
);
width = 700;
},
{
associatedMasterId = "F497C50F-30EB-4580-9148-0005B36D0333";
layerId = "F3DDD106-A148-4BE0-862A-02173F4F4683";
name = Small;
shapes = (
{
closed = 1;
nodes = (
(
559.314,
532,
l
),
(
558.456,
533,
l
),
(
144.118,
-13,
l
),
(
144.975,
-14,
l
)
);
},
{
closed = 1;
nodes = (
(
582.475,
-14,
o
),
(
644.24,
38,
o
),
(
644.24,
114,
cs
),
(
644.24,
188,
o
),
(
586.765,
237,
o
),
(
500.123,
237,
cs
),
(
410.049,
237,
o
),
(
349.142,
185,
o
),
(
349.142,
108,
cs
),
(
349.142,
35,
o
),
(
406.618,
-14,
o
),
(
493.26,
-14,
cs
)
);
},
{
closed = 1;
nodes = (
(
464.093,
-13,
o
),
(
446.078,
31,
o
),
(
446.078,
114,
cs
),
(
446.078,
196,
o
),
(
462.377,
236,
o
),
(
495.833,
236,
cs
),
(
529.289,
236,
o
),
(
547.304,
192,
o
),
(
547.304,
109,
cs
),
(
547.304,
27,
o
),
(
531.005,
-13,
o
),
(
497.549,
-13,
cs
)
);
},
{
closed = 1;
nodes = (
(
289.093,
282,
o
),
(
350.858,
334,
o
),
(
350.858,
410,
cs
),
(
350.858,
484,
o
),
(
293.382,
533,
o
),
(
206.74,
533,
cs
),
(
116.667,
533,
o
),
(
55.76,
481,
o
),
(
55.76,
404,
cs
),
(
55.76,
331,
o
),
(
113.235,
282,
o
),
(
199.877,
282,
cs
)
);
},
{
closed = 1;
nodes = (
(
170.711,
283,
o
),
(
152.696,
327,
o
),
(
152.696,
410,
cs
),
(
152.696,
492,
o
),
(
168.995,
532,
o
),
(
202.451,
532,
cs
),
(
235.907,
532,
o
),
(
253.922,
488,
o
),
(
253.922,
405,
cs
),
(
253.922,
323,
o
),
(
237.623,
283,
o
),
(
204.167,
283,
cs
)
);
},
{
closed = 1;
nodes = (
(
474.387,
474,
o
),
(
524.142,
495,
o
),
(
559.314,
532,
c
),
(
558.456,
533,
l
),
(
525,
497,
o
),
(
473.529,
475,
o
),
(
422.059,
475,
cs
),
(
379.167,
475,
o
),
(
325.123,
490,
o
),
(
292.525,
512,
c
),
(
291.667,
511,
l
),
(
326.838,
489,
o
),
(
379.167,
474,
o
),
(
422.059,
474,
cs
)
);
}
);
width = 700;
},
{
associatedMasterId = "7300F074-2CFD-43CC-B20F-1BF1EAE6C2C7";
layerId = "21598DD2-200D-4315-9D87-8295D5165F88";
name = Small;
shapes = (
{
closed = 1;
nodes = (
(
555.783,
499,
l
),
(
525.422,
529,
l
),
(
148.434,
16,
l
),
(
178.795,
-14,
l
)
);
},
{
closed = 1;
nodes = (
(
567.59,
-14,
o
),
(
619.88,
38,
o
),
(
619.88,
115,
cs
),
(
619.88,
189,
o
),
(
570.964,
237,
o
),
(
496.747,
237,
cs
),
(
420.843,
237,
o
),
(
368.554,
185,
o
),
(
368.554,
108,
cs
),
(
368.554,
34,
o
),
(
417.47,
-14,
o
),
(
491.687,
-14,
cs
)
);
},
{
closed = 1;
nodes = (
(
452.048,
34,
o
),
(
427.59,
62,
o
),
(
427.59,
113,
cs
),
(
427.59,
162,
o
),
(
450.361,
189,
o
),
(
492.53,
189,
cs
),
(
536.386,
189,
o
),
(
560.843,
161,
o
),
(
560.843,
112,
cs
),
(
560.843,
61,
o
),
(
538.916,
34,
o
),
(
495.904,
34,
cs
)
);
},
{
closed = 1;
nodes = (
(
279.157,
278,
o
),
(
331.446,
330,
o
),
(
331.446,
406,
cs
),
(
331.446,
480,
o
),
(
282.53,
529,
o
),
(
208.313,
529,
cs
),
(
132.41,
529,
o
),
(
80.12,
477,
o
),
(
80.12,
400,
cs
),
(
80.12,
326,
o
),
(
129.036,
278,
o
),
(
203.253,
278,
cs
)
);
},
{
closed = 1;
nodes = (
(
162.771,
326,
o
),
(
139.157,
353,
o
),
(
139.157,
404,
cs
),
(
139.157,
454,
o
),
(
161.928,
481,
o
),
(
204.096,
481,
cs
),
(
247.952,
481,
o
),
(
272.41,
453,
o
),
(
272.41,
404,
cs
),
(
272.41,
353,
o
),
(
250.482,
326,
o
),
(
207.47,
326,
cs
)
);
},
{
closed = 1;
nodes = (
(
441.928,
443,
o
),
(
475.663,
461,
o
),
(
513.614,
503,
c
),
(
525.422,
529,
l
),
(
494.217,
505,
o
),
(
449.518,
491,
o
),
(
403.976,
491,
cs
),
(
358.434,
491,
o
),
(
300.241,
502,
o
),
(
263.976,
518,
c
),
(
283.373,
496,
l
),
(
326.386,
459,
o
),
(
362.651,
443,
o
),
(
402.289,
443,
cs
)
);
}
);
width = 700;
},
{
associatedMasterId = "29EF49B2-C370-4E88-B36E-A4ACD23E3F3A";
layerId = "0AAD479D-307B-44DD-A534-827694F43E89";
name = Small;
shapes = (
{
closed = 1;
nodes = (
(
583.614,
501,
l
),
(
554.94,
533,
l
),
(
119.759,
19,
l
),
(
148.434,
-14,
l
)
);
},
{
closed = 1;
nodes = (
(
578.554,
-14,
o
),
(
639.277,
38,
o
),
(
639.277,
114,
cs
),
(
639.277,
188,
o
),
(
582.771,
237,
o
),
(
497.59,
237,
cs
),
(
409.036,
237,
o
),
(
349.157,
185,
o
),
(
349.157,
108,
cs
),
(
349.157,
35,
o
),
(
405.663,
-14,
o
),
(
490.843,
-14,
cs
)
);
},
{
closed = 1;
nodes = (
(
462.169,
34,
o
),
(
444.458,
61,
o
),
(
444.458,
113,
cs
),
(
444.458,
163,
o
),
(
461.325,
189,
o
),
(
493.373,
189,
cs
),
(
526.265,
189,
o
),
(
543.976,
161,
o
),
(
543.976,
109,
cs
),
(
543.976,
59,
o
),
(
527.952,
34,
o
),
(
495.904,
34,
cs
)
);
},
{
closed = 1;
nodes = (
(
290.12,
282,
o
),
(
350.843,
334,
o
),
(
350.843,
410,
cs
),
(
350.843,
484,
o
),
(
294.337,
533,
o
),
(
209.157,
533,
cs
),
(
120.602,
533,
o
),
(
60.723,
481,
o
),
(
60.723,
404,
cs
),
(
60.723,
331,
o
),
(
117.229,
282,
o
),
(
202.41,
282,
cs
)
);
},
{
closed = 1;
nodes = (
(
173.735,
330,
o
),
(
156.024,
357,
o
),
(
156.024,
409,
cs
),
(
156.024,
459,
o
),
(
172.892,
485,
o
),
(
204.94,
485,
cs
),
(
237.831,
485,
o
),
(
255.542,
457,
o
),
(
255.542,
405,
cs
),
(
255.542,
355,
o
),
(
239.518,
330,
o
),
(
207.47,
330,
cs
)
);
},
{
closed = 1;
nodes = (
(
453.735,
447,
o
),
(
491.687,
465,
o
),
(
543.133,
507,
c
),
(
554.94,
533,
l
),
(
510.241,
508,
o
),
(
462.169,
495,
o
),
(
416.627,
495,
cs
),
(
373.614,
495,
o
),
(
311.205,
507,
o
),
(
271.566,
522,
c
),
(
290.964,
500,
l
),
(
335.663,
464,
o
),
(
375.301,
447,
o
),
(
414.096,
447,
cs
)
);
}
);
width = 700;
},
{
associatedMasterId = "DF17D77B-A5C4-4843-826A-BC0F1C4CB224";
layerId = "5DE40F9D-CAFB-4564-B1F5-41A0890370BE";
name = Small;
shapes = (
{
closed = 1;
nodes = (
(
550.909,
528,
l
),
(
550,
529,
l
),
(
150.909,
-13,
l
),
(
151.818,
-14,
l
)
);
},
{
closed = 1;
nodes = (
(
584.545,
-14,
o
),
(
640.909,
38,
o
),
(
640.909,
114,
cs
),
(
640.909,
188,
o
),
(
588.182,
237,
o
),
(
508.182,
237,
cs
),
(
426.364,
237,
o
),
(
370,
185,
o
),
(
370,
108,
cs
),
(
370,
34,
o
),
(
422.727,
-14,
o
),
(
502.727,
-14,
cs
)
);
},
{
closed = 1;
nodes = (
(
460,
-13,
o
),
(
433.636,
32,
o
),
(
433.636,
114,
cs
),
(
433.636,
193,
o
),
(
458.182,
236,
o
),
(
503.636,
236,
cs
),
(
550.909,
236,
o
),
(
577.273,
192,
o
),
(
577.273,
112,
cs
),
(
577.273,
30,
o
),
(
552.727,
-13,
o
),
(
507.273,
-13,
cs
)
);
},
{
closed = 1;
nodes = (
(
273.636,
278,
o
),
(
330,
330,
o
),
(
330,
406,
cs
),
(
330,
480,
o
),
(
277.273,
529,
o
),
(
197.273,
529,
cs
),
(
115.455,
529,
o
),
(
59.091,
477,
o
),
(
59.091,
400,
cs
),
(
59.091,
326,
o
),
(
111.818,
278,
o
),
(
191.818,
278,
cs
)
);
},
{
closed = 1;
nodes = (
(
149.091,
279,
o
),
(
122.727,
324,
o
),
(
122.727,
406,
cs
),
(
122.727,
485,
o
),
(
147.273,
528,
o
),
(
192.727,
528,
cs
),
(
240,
528,
o
),
(
266.364,
484,
o
),
(
266.364,
404,
cs
),
(
266.364,
322,
o
),
(
241.818,
279,
o
),
(
196.364,
279,
cs
)
);
},
{
closed = 1;
nodes = (
(
466.364,
470,
o
),
(
514.545,
490,
o
),
(
550.909,
528,
c
),
(
550,
529,
l
),
(
514.545,
492,
o
),
(
465.455,
471,
o
),
(
412.727,
471,
cs
),
(
370,
471,
o
),
(
312.727,
487,
o
),
(
276.364,
508,
c
),
(
275.455,
507,
l
),
(
311.818,
486,
o
),
(
369.091,
470,
o
),
(
412.727,
470,
cs
)
);
}
);
width = 700;
}
);
metricRight = "=|";
unicode = 37;
userData = {
KernOnSpecialSpacing = {};
};
}
{
color = 6;
glyphname = quotesingle;
kernLeft = KO_quotedbl;
kernRight = KO_quotedbl;
layers = (
{
layerId = "DF17D77B-A5C4-4843-826A-BC0F1C4CB224";
shapes = (
{
closed = 1;
nodes = (
(
350,
448,
l
),
(
373,
575,
o
),
(
404,
614,
o
),
(
404,
664,
cs
),
(
404,
705,
o
),
(
383,
730,
o
),
(
350,
730,
cs
),
(
317,
730,
o
),
(
296,
704,
o
),
(
296,
662,
cs
),
(
296,
613,
o
),
(
326,
575,
o
),
(
349,
448,
c
)
);
}
);
width = 700;
},
{
layerId = "7300F074-2CFD-43CC-B20F-1BF1EAE6C2C7";
shapes = (
{
closed = 1;
nodes = (
(
377,
428,
l
),
(
377,
535,
o
),
(
404,
611,
o
),
(
404,
689,
cs
),
(
404,
734,
o
),
(
385,
760,
o
),
(
350,
760,
cs
),
(
315,
760,
o
),
(
296,
734,
o
),
(
296,
688,
cs
),
(
296,
614,
o
),
(
319,
536,
o
),
(
323,
428,
c
)
);
}
);
width = 700;
},
{
layerId = "F497C50F-30EB-4580-9148-0005B36D0333";
shapes = (
{
closed = 1;
nodes = (
(
351,
438,
l
),
(
394,
545,
o
),
(
444,
581,
o
),
(
444,
643,
cs
),
(
444,
694,
o
),
(
405,
730,
o
),
(
350,
730,
cs
),
(
295,
730,
o
),
(
256,
693,
o
),
(
256,
642,
cs
),
(
256,
580,
o
),
(
305,
545,
o
),
(
349,
438,
c
)
);
}
);
width = 700;
},
{
layerId = "29EF49B2-C370-4E88-B36E-A4ACD23E3F3A";
shapes = (
{
closed = 1;
nodes = (
(
377,
428,
l
),
(
406,
543,
o
),
(
444,
600,
o
),
(
444,
668,
cs
),
(
444,
732,
o
),
(
409,
770,
o
),
(
350,
770,
cs
),
(
291,
770,
o
),
(
256,
732,
o
),
(
256,
667,
cs
),
(
256,
599,
o
),
(
293,
543,
o
),
(
323,
428,
c
)
);
}
);
width = 700;
}
);
unicode = 39;
userData = {
KernOnSpecialSpacing = {
L = quotes;
R = quotes;
};
};
}
{
color = 5;
glyphname = parenright;
kernLeft = KO_parenright;
kernRight = KO_parenright;
layers = (
{
layerId = "DF17D77B-A5C4-4843-826A-BC0F1C4CB224";
shapes = (
{
closed = 1;
nodes = (
(
396.5,
-74,
o
),
(
495.5,
96,
o
),
(
495.5,
303,
c
),
(
495.5,
504,
o
),
(
396.5,
669,
o
),
(
205.5,
783,
cs
),
(
204.5,
782,
l
),
(
330.5,
650,
o
),
(
413.5,
497,
o
),
(
413.5,
303,
c
),
(
413.5,
102,
o
),
(
330.5,
-55,
o
),
(
204.5,
-190,
cs
),
(
205.5,
-191,
l
)
);
}
);
width = 700;
},
{
layerId = "F497C50F-30EB-4580-9148-0005B36D0333";
shapes = (
{
closed = 1;
nodes = (
(
408.5,
-83,
o
),
(
525.5,
81,
o
),
(
525.5,
297,
c
),
(
525.5,
512,
o
),
(
408.5,
675,
o
),
(
175.5,
782,
cs
),
(
174.5,
781,
l
),
(
311.5,
649,
o
),
(
368.5,
506,
o
),
(
368.5,
295,
c
),
(
368.5,
87,
o
),
(
312.5,
-53,
o
),
(
174.5,
-190,
cs
),
(
175.5,
-191,
l
)
);
}
);
width = 700;
},
{
layerId = "7300F074-2CFD-43CC-B20F-1BF1EAE6C2C7";
shapes = (
{
closed = 1;
nodes = (
(
400,
-93,
o
),
(
501,
73,
o
),
(
501,
301,
c
),
(
501,
526,
o
),
(
401,
687,
o
),
(
231,
782,
cs
),
(
199,
735,
l
),
(
336,
634,
o
),
(
419,
503,
o
),
(
419,
303,
c
),
(
419,
96,
o
),
(
336,
-39,
o
),
(
199,
-144,
cs
),
(
231,
-191,
l
)
);
}
);
width = 700;
},
{
layerId = "29EF49B2-C370-4E88-B36E-A4ACD23E3F3A";
shapes = (
{
closed = 1;
nodes = (
(
412.5,
-96,
o
),
(
525.5,
74,
o
),
(
525.5,
289,
c
),
(
525.5,
503,
o
),
(
413.5,
676,
o
),
(
206.5,
782,
cs
),
(
174.5,
735,
l
),
(
304.5,
622,
o
),
(
368.5,
476,
o
),
(
368.5,
295,
c
),
(
368.5,
118,
o
),
(
305.5,
-25,
o
),
(
174.5,
-144,
cs
),
(
206.5,
-191,
l
)
);
}
);
width = 700;
}
);
metricLeft = "=|parenleft";
metricRight = "=|parenleft";
unicode = 41;
userData = {
KernOnName = parenright;
};
}
{
color = 6;
glyphname = asterisk;
layers = (
{
layerId = "DF17D77B-A5C4-4843-826A-BC0F1C4CB224";
shapes = (
{
closed = 1;
nodes = (
(
521.5,
642,
o
),
(
501.5,
648,
o
),
(
478.5,
634,
cs
),
(
445.5,
614,
o
),
(
415.5,
564,
o
),
(
349.5,
518,
c
),
(
349.5,
517,
l
),
(
426.5,
551,
o
),
(
482.5,
552,
o
),
(
515.5,
571,
cs
),
(
539.5,
585,
o
),
(
543.5,
605,
o
),
(
532.5,
623,
cs
)
);
},
{
closed = 1;
nodes = (
(
544.5,
430,
o
),
(
539.5,
452,
o
),
(
515.5,
465,
cs
),
(
481.5,
483,
o
),
(
423.5,
484,
o
),
(
350.5,
518,
c
),
(
349.5,
518,
l
),
(
417.5,
468,
o
),
(
446.5,
420,
o
),
(
479.5,
401,
cs
),
(
503.5,
387,
o
),
(
522.5,
394,
o
),
(
533.5,
412,
cs
)
);
},
{
closed = 1;
nodes = (
(
371.5,
307,
o
),
(
387.5,
321,
o
),
(
386.5,
349,
cs
),
(
385.5,
387,
o
),
(
357.5,
438,
o
),
(
350.5,
518,
c
),
(
349.5,
518,
l
),
(
340.5,
435,
o
),
(
313.5,
386,
o
),
(
313.5,
348,
cs
),
(
313.5,
320,
o
),
(
328.5,
307,
o
),
(
349.5,
307,
cs
)
);
},
{
closed = 1;
nodes = (
(
177.5,
393,
o
),
(
197.5,
386,
o
),
(
221.5,
401,
cs
),
(
253.5,
421,
o
),
(
283.5,
471,
o
),
(
349.5,
517,
c
),
(
349.5,
518,
l
),
(
272.5,
484,
o
),
(
216.5,
483,
o
),
(
183.5,
464,
cs
),
(
159.5,
450,
o
),
(
155.5,
430,
o
),
(
166.5,
412,
cs
)
);
},
{
closed = 1;
nodes = (
(
157.5,
604,
o
),
(
160.5,
584,
o
),
(
185.5,
570,
cs
),
(
217.5,
552,
o
),
(
277.5,
552,
o
),
(
350.5,
517,
c
),
(
350.5,
518,
l
),
(
282.5,
568,
o
),
(
253.5,
616,
o
),
(
220.5,
635,
cs
),
(
196.5,
649,
o
),
(
177.5,
642,
o
),
(
167.5,
623,
cs
)
);
},
{
closed = 1;
nodes = (
(
328.5,
729,
o
),
(
313.5,
715,
o
),
(
313.5,
688,
cs
),
(
313.5,
650,
o
),
(
342.5,
598,
o
),
(
349.5,
518,
c
),
(
350.5,
518,
l
),
(
359.5,
601,
o
),
(
386.5,
650,
o
),
(
386.5,
688,
cs
),
(
386.5,
716,
o
),
(
371.5,
729,
o
),
(
350.5,
729,
cs
)
);
}
);
width = 700;
},
{
layerId = "7300F074-2CFD-43CC-B20F-1BF1EAE6C2C7";
shapes = (
{
closed = 1;
nodes = (
(
521,
643,
o
),
(
497,
657,
o
),
(
462,
637,
cs
),
(
429,
618,
o
),
(
393,
585,
o
),
(
341,
533,
c
),
(
358,
504,
l
),
(
433,
524,
o
),
(
476,
537,
o
),
(
509,
556,
cs
),
(
543,
576,
o
),
(
544,
603,
o
),
(
533,
623,
cs
)
);
},
{
closed = 1;
nodes = (
(
544,
432,
o
),
(
544,
460,
o
),
(
509,
480,
cs
),
(
476,
499,
o
),
(
429,
514,
o
),
(
358,
533,
c
),
(
342,
504,
l
),
(
396,
449,
o
),
(
429,
418,
o
),
(
462,
399,
cs
),
(
497,
380,
o
),
(
520,
392,
o
),
(
532,
412,
cs
)
);
},
{
closed = 1;
nodes = (
(
372,
307,
o
),
(
397,
321,
o
),
(
396,
361,
cs
),
(
396,
399,
o
),
(
386,
447,
o
),
(
367,
518,
c
),
(
334,
518,
l
),
(
313,
443,
o
),
(
303,
399,
o
),
(
303,
361,
cs
),
(
304,
321,
o
),
(
326,
308,
o
),
(
349,
307,
cs
)
);
},
{
closed = 1;
nodes = (
(
178,
393,
o
),
(
203,
379,
o
),
(
237,
399,
cs
),
(
270,
418,
o
),
(
306,
451,
o
),
(
358,
503,
c
),
(
342,
532,
l
),
(
266,
512,
o
),
(
223,
499,
o
),
(
190,
480,
cs
),
(
156,
459,
o
),
(
156,
434,
o
),
(
167,
413,
cs
)
);
},
{
closed = 1;
nodes = (
(
156,
604,
o
),
(
156,
576,
o
),
(
190,
556,
cs
),
(
223,
537,
o
),
(
270,
522,
o
),
(
341,
503,
c
),
(
358,
532,
l
),
(
303,
588,
o
),
(
270,
618,
o
),
(
237,
637,
cs
),
(
202,
656,
o
),
(
180,
644,
o
),
(
167,
624,
cs
)
);
},
{
closed = 1;
nodes = (
(
327,
729,
o
),
(
303,
715,
o
),
(
303,
675,
cs
),
(
303,
637,
o
),
(
313,
589,
o
),
(
333,
518,
c
),
(
366,
518,
l
),
(
386,
593,
o
),
(
396,
637,
o
),
(
396,
675,
cs
),
(
396,
715,
o
),
(
373,
729,
o
),
(
350,
729,
cs
)
);
}
);
width = 700;
},
{
layerId = "F497C50F-30EB-4580-9148-0005B36D0333";
shapes = (
{
closed = 1;
nodes = (
(
519,
648,
o
),
(
492,
666,
o
),
(
457,
646,
cs
),
(
425,
627,
o
),
(
397,
579,
o
),
(
349,
520,
c
),
(
351,
517,
l
),
(
430,
530,
o
),
(
481,
529,
o
),
(
514,
548,
cs
),
(
549,
568,
o
),
(
547,
599,
o
),
(
532,
624,
cs
)
);
},
{
closed = 1;
nodes = (
(
547,
437,
o
),
(
549,
469,
o
),
(
514,
489,
cs
),
(
482,
508,
o
),
(
426,
508,
o
),
(
351,
520,
c
),
(
350,
517,
l
),
(
400,
455,
o
),
(
425,
410,
o
),
(
458,
391,
cs
),
(
493,
371,
o
),
(
519,
388,
o
),
(
533,
413,
cs
)
);
},
{
closed = 1;
nodes = (
(
378,
307,
o
),
(
407,
321,
o
),
(
407,
361,
cs
),
(
407,
399,
o
),
(
379,
447,
o
),
(
352,
518,
c
),
(
349,
517,
l
),
(
320,
443,
o
),
(
294,
399,
o
),
(
294,
361,
cs
),
(
294,
321,
o
),
(
322,
307,
o
),
(
351,
307,
cs
)
);
},
{
closed = 1;
nodes = (
(
181,
388,
o
),
(
208,
370,
o
),
(
243,
390,
cs
),
(
275,
409,
o
),
(
303,
457,
o
),
(
351,
516,
c
),
(
349,
518,
l
),
(
270,
506,
o
),
(
219,
507,
o
),
(
186,
488,
cs
),
(
151,
468,
o
),
(
153,
437,
o
),
(
168,
412,
cs
)
);
},
{
closed = 1;
nodes = (
(
153,
599,
o
),
(
151,
567,
o
),
(
186,
547,
cs
),
(
218,
528,
o
),
(
274,
528,
o
),
(
349,
516,
c
),
(
350,
519,
l
),
(
300,
581,
o
),
(
275,
626,
o
),
(
242,
645,
cs
),
(
207,
665,
o
),
(
181,
648,
o
),
(
167,
623,
cs
)
);
},
{
closed = 1;
nodes = (
(
322,
729,
o
),
(
293,
715,
o
),
(
293,
675,
cs
),
(
293,
637,
o
),
(
321,
589,
o
),
(
348,
518,
c
),
(
351,
518,
l
),
(
379,
593,
o
),
(
406,
637,
o
),
(
406,
675,
cs
),
(
406,
715,
o
),
(
378,
729,
o
),
(
350,
729,
cs
)
);
}
);
width = 700;
},
{
layerId = "29EF49B2-C370-4E88-B36E-A4ACD23E3F3A";
shapes = (
{
closed = 1;
nodes = (
(
519,
648,
o
),
(
492,
666,
o
),
(
458,
646,
cs
),
(
425,
627,
o
),
(
393,
586,
o
),
(
342,
533,
c
),
(
358,
504,
l
),
(
433,
525,
o
),
(
481,
529,
o
),
(
514,
548,
cs
),
(
549,
568,
o
),
(
547,
599,
o
),
(
533,
624,
cs
)
);
},
{
closed = 1;
nodes = (
(
547,
437,
o
),
(
549,
469,
o
),
(
515,
489,
cs
),
(
482,
508,
o
),
(
430,
515,
o
),
(
359,
533,
c
),
(
342,
504,
l
),
(
398,
450,
o
),
(
425,
410,
o
),
(
458,
391,
cs
),
(
493,
371,
o
),
(
519,
388,
o
),
(
533,
413,
cs
)
);
},
{
closed = 1;
nodes = (
(
378,
307,
o
),
(
407,
321,
o
),
(
407,
361,
cs
),
(
407,
399,
o
),
(
387,
447,
o
),
(
368,
518,
c
),
(
334,
518,
l
),
(
315,
443,
o
),
(
294,
399,
o
),
(
294,
361,
cs
),
(
294,
321,
o
),
(
322,
307,
o
),
(
351,
307,
cs
)
);
},
{
closed = 1;
nodes = (
(
181,
388,
o
),
(
208,
370,
o
),
(
243,
390,
cs
),
(
276,
409,
o
),
(
307,
451,
o
),
(
359,
503,
c
),
(
342,
532,
l
),
(
268,
511,
o
),
(
219,
507,
o
),
(
186,
488,
cs
),
(
151,
468,
o
),
(
153,
437,
o
),
(
168,
412,
cs
)
);
},
{
closed = 1;
nodes = (
(
153,
600,
o
),
(
151,
567,
o
),
(
186,
547,
cs
),
(
219,
528,
o
),
(
271,
522,
o
),
(
342,
503,
c
),
(
358,
532,
l
),
(
303,
586,
o
),
(
275,
626,
o
),
(
242,
645,
cs
),
(
207,
666,
o
),
(
181,
648,
o
),
(
167,
623,
cs
)
);
},
{
closed = 1;
nodes = (
(
322,
729,
o
),
(
293,
715,
o
),
(
293,
675,
cs
),
(
293,
637,
o
),
(
313,
589,
o
),
(
333,
518,
c
),
(
366,
518,
l
),
(
386,
593,
o
),
(
406,
637,
o
),
(
406,
675,
cs
),
(
406,
715,
o
),
(
378,
729,
o
),
(
350,
729,
cs
)
);
}
);
width = 700;
}
);
unicode = 42;
userData = {
KernOnSpecialSpacing = {};
};
}
{
color = 4;
glyphname = seven;
kernLeft = KO_seven;
kernRight = KO_seven;
layers = (
{
layerId = "DF17D77B-A5C4-4843-826A-BC0F1C4CB224";
shapes = (
{
closed = 1;
nodes = (
(
357.5,
-148,
o
),
(
376.5,
-127,
o
),
(
376.5,
-97,
cs
),
(
376.5,
-76,
o
),
(
372.5,
-50,
o
),
(
372.5,
-18,
cs
),
(
372.5,
220,
o
),
(
488.5,
371,
o
),
(
545.5,
513,
c
),
(
545.5,
514,
l
),
(
243.5,
514,
ls
),
(
207.5,
514,
o
),
(
165.5,
515,
o
),
(
154.5,
519,
c
),
(
157.5,
484,
o
),
(
158.5,
439,
o
),
(
158.5,
358,
c
),
(
159.5,
358,
l
),
(
165.5,
418,
o
),
(
190.5,
437,
o
),
(
252.5,
437,
cs
),
(
508.5,
437,
l
),
(
508.5,
436,
l
),
(
456.5,
337,
o
),
(
284.5,
145,
o
),
(
284.5,
-92,
cs
),
(
284.5,
-121,
o
),
(
298.5,
-148,
o
),
(
329.5,
-148,
cs
)
);
}
);
width = 700;
},
{
layerId = "7300F074-2CFD-43CC-B20F-1BF1EAE6C2C7";
shapes = (
{
closed = 1;
nodes = (
(
357.5,
-148,
o
),
(
376.5,
-127,
o
),
(
376.5,
-97,
cs
),
(
376.5,
-76,
o
),
(
372.5,
-50,
o
),
(
372.5,
-18,
cs
),
(
372.5,
189,
o
),
(
478.5,
320,
o
),
(
545.5,
443,
c
),
(
545.5,
514,
l
),
(
263.5,
514,
ls
),
(
219.5,
514,
o
),
(
167.5,
515,
o
),
(
154.5,
519,
c
),
(
157.5,
478,
o
),
(
159.5,
428,
o
),
(
158.5,
336,
c
),
(
231.5,
336,
l
),
(
237.5,
413,
o
),
(
256.5,
437,
o
),
(
328.5,
437,
cs
),
(
471.5,
437,
l
),
(
471.5,
427,
l
),
(
352.5,
282,
o
),
(
284.5,
93,
o
),
(
284.5,
-92,
cs
),
(
284.5,
-121,
o
),
(
298.5,
-148,
o
),
(
329.5,
-148,
cs
)
);
}
);
width = 700;
},
{
layerId = "F497C50F-30EB-4580-9148-0005B36D0333";
shapes = (
{
closed = 1;
nodes = (
(
385.5,
-148,
o
),
(
412.5,
-103,
o
),
(
412.5,
-60,
cs
),
(
412.5,
-28,
o
),
(
407.5,
-10,
o
),
(
407.5,
22,
cs
),
(
407.5,
228,
o
),
(
534.5,
408,
o
),
(
585.5,
518,
c
),
(
585.5,
519,
l
),
(
243.5,
519,
ls
),
(
191.5,
519,
o
),
(
130.5,
520,
o
),
(
114.5,
524,
c
),
(
117.5,
474,
o
),
(
118.5,
418,
o
),
(
118.5,
301,
c
),
(
119.5,
301,
l
),
(
126.5,
355,
o
),
(
149.5,
372,
o
),
(
219.5,
372,
cs
),
(
506.5,
372,
l
),
(
506.5,
371,
l
),
(
439.5,
287,
o
),
(
230.5,
115,
o
),
(
230.5,
-39,
cs
),
(
230.5,
-105,
o
),
(
259.5,
-148,
o
),
(
321.5,
-148,
cs
)
);
}
);
width = 700;
},
{
layerId = "29EF49B2-C370-4E88-B36E-A4ACD23E3F3A";
shapes = (
{
closed = 1;
nodes = (
(
385.5,
-148,
o
),
(
412.5,
-103,
o
),
(
412.5,
-60,
cs
),
(
412.5,
-28,
o
),
(
407.5,
-10,
o
),
(
407.5,
22,
cs
),
(
407.5,
206,
o
),
(
534.5,
350,
o
),
(
585.5,
448,
c
),
(
585.5,
519,
l
),
(
243.5,
519,
ls
),
(
191.5,
519,
o
),
(
130.5,
520,
o
),
(
114.5,
524,
c
),
(
117.5,
474,
o
),
(
118.5,
418,
o
),
(
118.5,
301,
c
),
(
188.5,
301,
l
),
(
195.5,
355,
o
),
(
218.5,
372,
o
),
(
288.5,
372,
cs
),
(
476.5,
372,
l
),
(
476.5,
362,
l
),
(
336.5,
244,
o
),
(
230.5,
77,
o
),
(
230.5,
-39,
cs
),
(
230.5,
-105,
o
),
(
259.5,
-148,
o
),
(
321.5,
-148,
cs
)
);
}
);
width = 700;
}
);
metricLeft = seven.lf;
metricRight = seven.lf;
unicode = 55;
userData = {
KernOnName = seven;
};
}
{
color = 4;
glyphname = eight;
kernLeft = KO_eight;
kernRight = KO_eight;
layers = (
{
guides = (
{
angle = 90;
pos = (
350.5,
147
);
}
);
layerId = "DF17D77B-A5C4-4843-826A-BC0F1C4CB224";
shapes = (
{
closed = 1;
nodes = (
(
471.5,
-14,
o
),
(
561.5,
65,
o
),
(
561.5,
187,
cs
),
(
561.5,
423,
o
),
(
252.5,
375,
o
),
(
252.5,
597,
cs
),
(
252.5,
665,
o
),
(
287.5,
720,
o
),
(
340.5,
720,
cs
),
(
404.5,
720,
o
),
(
449.5,
657,
o
),
(
449.5,
567,
cs
),
(
449.5,
504,
o
),
(
427.5,
440,
o
),
(
391.5,
400,
c
),
(
392.5,
400,
l
),
(
483.5,
459,
o
),
(
527.5,
518,
o
),
(
527.5,
583,
cs
),
(
527.5,
665,
o
),
(
458.5,
722,
o
),
(
357.5,
722,
cs
),
(
249.5,
722,
o
),
(
174.5,
650,
o
),
(
174.5,
552,
cs
),
(
174.5,
322,
o
),
(
476.5,
374,
o
),
(
476.5,
139,
cs
),
(
476.5,
46,
o
),
(
427.5,
-13,
o
),
(
357.5,
-13,
cs
),
(
278.5,
-13,
o
),
(
225.5,
61,
o
),
(
225.5,
171,
cs
),
(
225.5,
253,
o
),
(
255.5,
326,
o
),
(
307.5,
370,
c
),
(
306.5,
370,
l
),
(
200.5,
321,
o
),
(
138.5,
242,
o
),
(
138.5,
155,
cs
),
(
138.5,
55,
o
),
(
220.5,
-14,
o
),
(
341.5,
-14,
cs
)
);
}
);
width = 700;
},
{
layerId = "7300F074-2CFD-43CC-B20F-1BF1EAE6C2C7";
shapes = (
{
closed = 1;
nodes = (
(
479.5,
-14,
o
),
(
558.5,
70,
o
),
(
558.5,
191,
cs
),
(
558.5,
415,
o
),
(
260.5,
391,
o
),
(
260.5,
558,
cs
),
(
260.5,
616,
o
),
(
296.5,
652,
o
),
(
352.5,
652,
cs
),
(
412.5,
652,
o
),
(
449.5,
612,
o
),
(
449.5,
546,
cs
),
(
449.5,
494,
o
),
(
427.5,
452,
o
),
(
375.5,
402,
c
),
(
425.5,
366,
l
),
(
495.5,
427,
o
),
(
527.5,
487,
o
),
(
527.5,
556,
cs
),
(
527.5,
663,
o
),
(
459.5,
722,
o
),
(
355.5,
722,
cs
),
(
246.5,
722,
o
),
(
172.5,
651,
o
),
(
172.5,
547,
cs
),
(
172.5,
338,
o
),
(
469.5,
355,
o
),
(
469.5,
175,
cs
),
(
469.5,
103,
o
),
(
421.5,
56,
o
),
(
349.5,
56,
cs
),
(
275.5,
56,
o
),
(
228.5,
108,
o
),
(
228.5,
190,
cs
),
(
228.5,
255,
o
),
(
258.5,
306,
o
),
(
332.5,
365,
c
),
(
288.5,
405,
l
),
(
189.5,
334,
o
),
(
141.5,
258,
o
),
(
141.5,
171,
cs
),
(
141.5,
59,
o
),
(
219.5,
-14,
o
),
(
340.5,
-14,
cs
)
);
}
);
width = 700;
},
{
layerId = "F497C50F-30EB-4580-9148-0005B36D0333";
shapes = (
{
closed = 1;
nodes = (
(
505,
-14,
o
),
(
609,
68,
o
),
(
609,
197,
cs
),
(
609,
436,
o
),
(
259,
421,
o
),
(
259,
623,
cs
),
(
259,
681,
o
),
(
288,
720,
o
),
(
332,
720,
cs
),
(
396,
720,
o
),
(
445,
640,
o
),
(
445,
536,
cs
),
(
445,
496,
o
),
(
438,
456,
o
),
(
427,
426,
c
),
(
428,
425,
l
),
(
516,
454,
o
),
(
566,
507,
o
),
(
566,
573,
cs
),
(
566,
661,
o
),
(
477,
722,
o
),
(
349,
722,
cs
),
(
207,
722,
o
),
(
119,
649,
o
),
(
119,
531,
cs
),
(
119,
296,
o
),
(
462,
308,
o
),
(
462,
108,
cs
),
(
462,
38,
o
),
(
418,
-12,
o
),
(
357,
-12,
cs
),
(
279,
-12,
o
),
(
227,
69,
o
),
(
227,
190,
cs
),
(
227,
236,
o
),
(
234,
274,
o
),
(
254,
330,
c
),
(
253,
331,
l
),
(
147,
296,
o
),
(
91,
237,
o
),
(
91,
159,
cs
),
(
91,
55,
o
),
(
191,
-14,
o
),
(
341,
-14,
cs
)
);
}
);
width = 700;
},
{
layerId = "29EF49B2-C370-4E88-B36E-A4ACD23E3F3A";
shapes = (
{
closed = 1;
nodes = (
(
500.5,
-14,
o
),
(
608.5,
70,
o
),
(
608.5,
200,
cs
),
(
608.5,
426,
o
),
(
287.5,
418,
o
),
(
287.5,
578,
cs
),
(
287.5,
624,
o
),
(
314.5,
652,
o
),
(
360.5,
652,
cs
),
(
415.5,
652,
o
),
(
445.5,
616,
o
),
(
445.5,
550,
cs
),
(
445.5,
501,
o
),
(
427.5,
456,
o
),
(
395.5,
423,
c
),
(
433.5,
389,
l
),
(
523.5,
439,
o
),
(
566.5,
496,
o
),
(
566.5,
565,
cs
),
(
566.5,
660,
o
),
(
484.5,
722,
o
),
(
359.5,
722,
cs
),
(
216.5,
722,
o
),
(
119.5,
642,
o
),
(
119.5,
525,
cs
),
(
119.5,
312,
o
),
(
438.5,
314,
o
),
(
438.5,
142,
cs
),
(
438.5,
88,
o
),
(
406.5,
56,
o
),
(
350.5,
56,
cs
),
(
275.5,
56,
o
),
(
228.5,
107,
o
),
(
228.5,
190,
cs
),
(
228.5,
245,
o
),
(
249.5,
296,
o
),
(
285.5,
330,
c
),
(
247.5,
364,
l
),
(
143.5,
314,
o
),
(
91.5,
248,
o
),
(
91.5,
165,
cs
),
(
91.5,
54,
o
),
(
184.5,
-14,
o
),
(
334.5,
-14,
cs
)
);
}
);
width = 700;
}
);
metricLeft = eight.lf;
metricRight = eight.lf;
unicode = 56;
userData = {
KernOnName = eight;
};
}
{
color = 6;
glyphname = semicolon;
kernLeft = KO_colon;
layers = (
{
layerId = "DF17D77B-A5C4-4843-826A-BC0F1C4CB224";
shapes = (
{
closed = 1;
nodes = (
(
371.5,
-109,
o
),
(
414.5,
-63,
o
),
(
414.5,
12,
cs
),
(
414.5,
70,
o
),
(
387.5,
106,
o
),
(
346.5,
106,
cs
),
(
311.5,
106,
o
),
(
285.5,
83,
o
),
(
285.5,
51,
cs
),
(
285.5,
20,
o
),
(
307.5,
-2,
o
),
(
337.5,
-2,
cs
),
(
357.5,
-2,
o
),
(
372.5,
9,
o
),
(
386.5,
9,
cs
),
(
400.5,
9,
o
),
(
407.5,
0,
o
),
(
407.5,
-18,
cs
),
(
407.5,
-59,
o
),
(
371.5,
-108,
o
),
(
311.5,
-122,
c
),
(
311.5,
-123,
l
)
);
},
{
closed = 1;
nodes = (
(
385.5,
409,
o
),
(
412.5,
436,
o
),
(
412.5,
469,
cs
),
(
412.5,
502,
o
),
(
385.5,
529,
o
),
(
352.5,
529,
cs
),
(
319.5,
529,
o
),
(
292.5,
502,
o
),
(
292.5,
469,
cs
),
(
292.5,
436,
o
),
(
319.5,
409,
o
),
(
352.5,
409,
cs
)
);
}
);
width = 700;
},
{
layerId = "7300F074-2CFD-43CC-B20F-1BF1EAE6C2C7";
shapes = (
{
closed = 1;
nodes = (
(
392.5,
-147,
o
),
(
446.5,
-76,
o
),
(
446.5,
21,
cs
),
(
446.5,
104,
o
),
(
406.5,
156,
o
),
(
343.5,
156,
cs
),
(
290.5,
156,
o
),
(
253.5,
120,
o
),
(
253.5,
70,
cs
),
(
253.5,
26,
o
),
(
281.5,
-5,
o
),
(
322.5,
-5,
cs
),
(
340.5,
-5,
o
),
(
351.5,
1,
o
),
(
360.5,
1,
cs
),
(
370.5,
1,
o
),
(
374.5,
-5,
o
),
(
374.5,
-21,
cs
),
(
374.5,
-67,
o
),
(
337.5,
-105,
o
),
(
265.5,
-134,
c
),
(
288.5,
-185,
l
)
);
},
{
closed = 1;
nodes = (
(
394.5,
359,
o
),
(
430.5,
395,
o
),
(
430.5,
444,
cs
),
(
430.5,
493,
o
),
(
394.5,
529,
o
),
(
345.5,
529,
cs
),
(
296.5,
529,
o
),
(
260.5,
493,
o
),
(
260.5,
444,
cs
),
(
260.5,
395,
o
),
(
296.5,
359,
o
),
(
345.5,
359,
cs
)
);
}
);
width = 700;
},
{
layerId = "F497C50F-30EB-4580-9148-0005B36D0333";
shapes = (
{
closed = 1;
nodes = (
(
413,
-98,
o
),
(
448,
-47,
o
),
(
448,
29,
cs
),
(
448,
107,
o
),
(
410,
154,
o
),
(
345,
154,
cs
),
(
289,
154,
o
),
(
253,
121,
o
),
(
253,
71,
cs
),
(
253,
24,
o
),
(
283,
-9,
o
),
(
327,
-9,
cs
),
(
361,
-9,
o
),
(
395,
11,
o
),
(
416,
11,
cs
),
(
429,
11,
o
),
(
437,
2,
o
),
(
437,
-15,
cs
),
(
437,
-60,
o
),
(
398,
-102,
o
),
(
342,
-123,
c
),
(
342,
-124,
l
)
);
},
{
closed = 1;
nodes = (
(
413,
365,
o
),
(
448,
394,
o
),
(
448,
449,
cs
),
(
448,
504,
o
),
(
413,
533,
o
),
(
350,
533,
cs
),
(
286,
533,
o
),
(
252,
504,
o
),
(
252,
449,
cs
),
(
252,
394,
o
),
(
286,
365,
o
),
(
350,
365,
cs
)
);
}
);
width = 700;
},
{
layerId = "29EF49B2-C370-4E88-B36E-A4ACD23E3F3A";
shapes = (
{
closed = 1;
nodes = (
(
409,
-146,
o
),
(
464,
-77,
o
),
(
464,
25,
cs
),
(
464,
115,
o
),
(
421,
168,
o
),
(
347,
168,
cs
),
(
281,
168,
o
),
(
237,
129,
o
),
(
237,
70,
cs
),
(
237,
18,
o
),
(
270,
-14,
o
),
(
324,
-14,
cs
),
(
348,
-14,
o
),
(
373,
-8,
o
),
(
382,
-8,
cs
),
(
389,
-8,
o
),
(
392,
-12,
o
),
(
392,
-24,
cs
),
(
392,
-67,
o
),
(
350,
-106,
o
),
(
273,
-134,
c
),
(
296,
-185,
l
)
);
},
{
closed = 1;
nodes = (
(
406,
351,
o
),
(
444,
385,
o
),
(
444,
442,
cs
),
(
444,
500,
o
),
(
406,
533,
o
),
(
340,
533,
cs
),
(
274,
533,
o
),
(
236,
500,
o
),
(
236,
442,
cs
),
(
236,
384,
o
),
(
274,
351,
o
),
(
340,
351,
cs
)
);
}
);
width = 700;
}
);
metricLeft = "=period*1.15";
metricRight = "=period*1.15";
unicode = 59;
userData = {
KernOnSpecialSpacing = {};
};
}
{
color = 6;
glyphname = less;
layers = (
{
layerId = "DF17D77B-A5C4-4843-826A-BC0F1C4CB224";
shapes = (
{
closed = 1;
nodes = (
(
594,
40,
l
),
(
109,
266,
l
),
(
594,
492,
l
),
(
593,
493,
l
),
(
106,
266,
l
),
(
593,
39,
l
)
);
}
);
width = 700;
},
{
layerId = "7300F074-2CFD-43CC-B20F-1BF1EAE6C2C7";
shapes = (
{
closed = 1;
nodes = (
(
612.5,
120,
l
),
(
301.5,
266,
l
),
(
612.5,
413,
l
),
(
574.5,
493,
l
),
(
87.5,
266,
l
),
(
574.5,
39,
l
)
);
}
);
width = 700;
},
{
layerId = "F497C50F-30EB-4580-9148-0005B36D0333";
shapes = (
{
closed = 1;
nodes = (
(
594,
40,
l
),
(
109,
266,
l
),
(
594,
492,
l
),
(
593,
493,
l
),
(
106,
266,
l
),
(
593,
39,
l
)
);
}
);
width = 700;
},
{
layerId = "29EF49B2-C370-4E88-B36E-A4ACD23E3F3A";
shapes = (
{
closed = 1;
nodes = (
(
612.5,
120,
l
),
(
301.5,
266,
l
),
(
612.5,
413,
l
),
(
574.5,
493,
l
),
(
87.5,
266,
l
),
(
574.5,
39,
l
)
);
}
);
width = 700;
}
);
unicode = 60;
userData = {
KernOnSpecialSpacing = {
L = math;
R = math;
};
};
}
{
color = 5;
glyphname = F;
kernLeft = KO_H;
kernRight = KO_F;
layers = (
{
anchors = (
{
name = bottom;
pos = (
352,
0
);
},
{
name = center;
pos = (
272,
140
);
},
{
name = stem;
pos = (
185,
250
);
},
{
name = top;
pos = (
357,
708
);
},
{
name = top_low_1;
pos = (
357,
688
);
},
{
name = top_low_2;
pos = (
357,
668
);
},
{
name = top_low_3;
pos = (
357,
648
);
}
);
guides = (
{
pos = (
60,
180
);
}
);
layerId = "DF17D77B-A5C4-4843-826A-BC0F1C4CB224";
shapes = (
{
closed = 1;
nodes = (
(
278,
250,
l
),
(
278,
704,
l
),
(
392,
704,
l
),
(
510,
704,
o
),
(
550,
666,
o
),
(
595,
508,
c
),
(
596,
508,
l
),
(
587,
580,
o
),
(
583,
645,
o
),
(
583,
708,
c
),
(
544,
706,
o
),
(
489,
705,
o
),
(
404,
705,
c
),
(
232,
705,
l
),
(
221,
705,
l
),
(
168,
705,
o
),
(
128,
707,
o
),
(
104,
708,
c
),
(
104,
707,
l
),
(
120,
705,
l
),
(
176,
698,
o
),
(
185,
686,
o
),
(
185,
621,
c
),
(
185,
250,
l
)
);
},
{
closed = 1;
nodes = (
(
461,
346,
l
),
(
461,
347,
l
),
(
248,
347,
l
),
(
248,
346,
l
)
);
},
{
closed = 1;
nodes = (
(
523,
174,
l
),
(
518,
265,
o
),
(
517,
302,
o
),
(
517,
346,
cs
),
(
517,
381,
o
),
(
515,
417,
o
),
(
520,
498,
c
),
(
519,
498,
l
),
(
505,
385,
o
),
(
473,
347,
o
),
(
394,
347,
c
),
(
394,
346,
l
),
(
480,
346,
o
),
(
510,
306,
o
),
(
522,
174,
c
)
);
},
{
closed = 1;
nodes = (
(
232,
3,
l
),
(
238,
3,
l
),
(
296,
3,
o
),
(
347,
1,
o
),
(
375,
0,
c
),
(
375,
1,
l
),
(
351,
3,
l
),
(
288,
10,
o
),
(
278,
23,
o
),
(
278,
87,
c
),
(
278,
250,
l
),
(
185,
250,
l
),
(
185,
87,
l
),
(
185,
22,
o
),
(
176,
10,
o
),
(
120,
3,
c
),
(
104,
1,
l
),
(
104,
0,
l
),
(
128,
1,
o
),
(
168,
3,
o
),
(
221,
3,
c
)
);
}
);
width = 700;
},
{
anchors = (
{
name = bottom;
pos = (
323,
0
);
},
{
name = center;
pos = (
280,
150
);
},
{
name = stem;
pos = (
216,
250
);
},
{
name = top;
pos = (
388,
708
);
},
{
name = top_low_1;
pos = (
388,
688
);
},
{
name = top_low_2;
pos = (
388,
668
);
},
{
name = top_low_3;
pos = (
388,
648
);
}
);
layerId = "7300F074-2CFD-43CC-B20F-1BF1EAE6C2C7";
shapes = (
{
closed = 1;
nodes = (
(
309,
250,
l
),
(
309,
635,
l
),
(
381,
635,
l
),
(
491,
635,
o
),
(
522,
613,
o
),
(
551,
508,
c
),
(
624,
508,
l
),
(
618,
569,
o
),
(
615,
634,
o
),
(
614,
708,
c
),
(
570,
706,
o
),
(
511,
705,
o
),
(
432,
705,
c
),
(
264,
705,
l
),
(
252,
705,
l
),
(
192,
705,
o
),
(
112,
707,
o
),
(
76,
708,
c
),
(
76,
638,
l
),
(
121,
634,
l
),
(
197,
627,
o
),
(
216,
611,
o
),
(
216,
552,
c
),
(
216,
250,
l
)
);
},
{
closed = 1;
nodes = (
(
451,
301,
l
),
(
451,
371,
l
),
(
281,
371,
l
),
(
281,
301,
l
)
);
},
{
closed = 1;
nodes = (
(
507,
184,
l
),
(
502,
265,
o
),
(
502,
301,
o
),
(
502,
336,
cs
),
(
502,
371,
o
),
(
502,
407,
o
),
(
507,
488,
c
),
(
437,
488,
l
),
(
431,
417,
o
),
(
414,
371,
o
),
(
356,
371,
c
),
(
356,
301,
l
),
(
414,
301,
o
),
(
431,
255,
o
),
(
437,
184,
c
)
);
},
{
closed = 1;
nodes = (
(
263,
3,
l
),
(
265,
3,
l
),
(
337,
3,
o
),
(
429,
1,
o
),
(
477,
0,
c
),
(
477,
70,
l
),
(
395,
77,
l
),
(
325,
83,
o
),
(
309,
97,
o
),
(
309,
156,
c
),
(
309,
250,
l
),
(
216,
250,
l
),
(
216,
156,
l
),
(
216,
97,
o
),
(
197,
81,
o
),
(
121,
74,
c
),
(
76,
70,
l
),
(
76,
0,
l
),
(
112,
1,
o
),
(
192,
3,
o
),
(
252,
3,
c
)
);
}
);
width = 700;
},
{
anchors = (
{
name = bottom;
pos = (
348,
0
);
},
{
name = center;
pos = (
283,
140
);
},
{
name = stem;
pos = (
147,
250
);
},
{
name = top;
pos = (
352,
708
);
},
{
name = top_low_1;
pos = (
352,
688
);
},
{
name = top_low_2;
pos = (
352,
668
);
},
{
name = top_low_3;
pos = (
352,
648
);
}
);
layerId = "F497C50F-30EB-4580-9148-0005B36D0333";
shapes = (
{
closed = 1;
nodes = (
(
350,
250,
l
),
(
350,
704,
l
),
(
381,
704,
l
),
(
505,
704,
o
),
(
581,
607,
o
),
(
622,
468,
c
),
(
623,
468,
l
),
(
617,
554,
o
),
(
614,
634,
o
),
(
615,
708,
c
),
(
564,
706,
o
),
(
493,
705,
o
),
(
381,
705,
c
),
(
249,
705,
l
),
(
233,
705,
l
),
(
160,
705,
o
),
(
106,
707,
o
),
(
77,
708,
c
),
(
77,
707,
l
),
(
93,
705,
l
),
(
138,
700,
o
),
(
147,
684,
o
),
(
147,
621,
c
),
(
147,
250,
l
)
);
},
{
closed = 1;
nodes = (
(
500,
355,
l
),
(
500,
356,
l
),
(
320,
356,
l
),
(
320,
355,
l
)
);
},
{
closed = 1;
nodes = (
(
552,
184,
l
),
(
548,
251,
o
),
(
546,
313,
o
),
(
546,
356,
cs
),
(
546,
426,
o
),
(
547,
485,
o
),
(
549,
518,
c
),
(
548,
518,
l
),
(
532,
414,
o
),
(
476,
356,
o
),
(
392,
356,
c
),
(
392,
355,
l
),
(
481,
355,
o
),
(
538,
294,
o
),
(
551,
184,
c
)
);
},
{
closed = 1;
nodes = (
(
249,
3,
l
),
(
264,
3,
l
),
(
343,
3,
o
),
(
402,
1,
o
),
(
434,
0,
c
),
(
434,
1,
l
),
(
411,
3,
l
),
(
360,
10,
o
),
(
350,
25,
o
),
(
350,
87,
c
),
(
350,
250,
l
),
(
147,
250,
l
),
(
147,
87,
l
),
(
147,
24,
o
),
(
138,
8,
o
),
(
93,
3,
c
),
(
77,
1,
l
),
(
77,
0,
l
),
(
106,
1,
o
),
(
160,
3,
o
),
(
233,
3,
c
)
);
}
);
width = 700;
},
{
anchors = (
{
name = bottom;
pos = (
374.5,
0
);
},
{
name = center;
pos = (
271.5,
140
);
},
{
name = stem;
pos = (
163.5,
250
);
},
{
name = top;
pos = (
368.5,
708
);
},
{
name = top_low_1;
pos = (
368.5,
688
);
},
{
name = top_low_2;
pos = (
368.5,
668
);
},
{
name = top_low_3;
pos = (
368.5,
648
);
}
);
layerId = "29EF49B2-C370-4E88-B36E-A4ACD23E3F3A";
shapes = (
{
closed = 1;
nodes = (
(
366.5,
250,
l
),
(
366.5,
635,
l
),
(
397.5,
635,
l
),
(
478.5,
635,
o
),
(
530.5,
599,
o
),
(
563.5,
508,
c
),
(
636.5,
508,
l
),
(
632.5,
579,
o
),
(
630.5,
646,
o
),
(
631.5,
708,
c
),
(
587.5,
706,
o
),
(
525.5,
705,
o
),
(
428.5,
705,
c
),
(
266.5,
705,
l
),
(
249.5,
705,
l
),
(
202.5,
705,
o
),
(
117.5,
706,
o
),
(
63.5,
708,
c
),
(
63.5,
638,
l
),
(
95.5,
634,
l
),
(
151.5,
627,
o
),
(
163.5,
616,
o
),
(
163.5,
552,
c
),
(
163.5,
250,
l
)
);
},
{
closed = 1;
nodes = (
(
476.5,
301,
l
),
(
476.5,
371,
l
),
(
306.5,
371,
l
),
(
306.5,
301,
l
)
);
},
{
closed = 1;
nodes = (
(
535.5,
184,
l
),
(
531.5,
240,
o
),
(
530.5,
279,
o
),
(
530.5,
336,
cs
),
(
530.5,
393,
o
),
(
531.5,
432,
o
),
(
535.5,
488,
c
),
(
462.5,
488,
l
),
(
453.5,
409,
o
),
(
427.5,
371,
o
),
(
381.5,
371,
c
),
(
381.5,
301,
l
),
(
427.5,
301,
o
),
(
453.5,
263,
o
),
(
462.5,
184,
c
)
);
},
{
closed = 1;
nodes = (
(
266.5,
3,
l
),
(
280.5,
3,
l
),
(
332.5,
3,
o
),
(
419.5,
2,
o
),
(
486.5,
0,
c
),
(
486.5,
70,
l
),
(
433.5,
76,
l
),
(
378.5,
82,
o
),
(
366.5,
94,
o
),
(
366.5,
156,
c
),
(
366.5,
250,
l
),
(
163.5,
250,
l
),
(
163.5,
156,
l
),
(
163.5,
92,
o
),
(
151.5,
81,
o
),
(
95.5,
74,
c
),
(
63.5,
71,
l
),
(
63.5,
1,
l
),
(
117.5,
2,
o
),
(
202.5,
3,
o
),
(
249.5,
2,
c
)
);
}
);
width = 700;
}
);
metricLeft = I;
unicode = 70;
userData = {
KernOnName = F;
};
}
{
color = 4;
glyphname = G;
kernLeft = KO_C;
kernRight = KO_G;
layers = (
{
anchors = (
{
name = currency;
pos = (
366.735,
0
);
},
{
name = bottom;
pos = (
365.456,
0
);
},
{
name = top;
pos = (
349.501,
708
);
},
{
name = top_low_1;
pos = (
349.501,
688
);
},
{
name = top_low_2;
pos = (
349.501,
668
);
},
{
name = top_low_3;
pos = (
349.501,
648
);
}
);
guides = (
{
pos = (
715.779,
31
);
}
);
layerId = "DF17D77B-A5C4-4843-826A-BC0F1C4CB224";
shapes = (
{
closed = 1;
nodes = (
(
468.101,
-14,
o
),
(
499.658,
40,
o
),
(
558.948,
40,
cs
),
(
579.986,
40,
o
),
(
592.418,
36,
o
),
(
600.068,
31,
c
),
(
601.025,
31,
l
),
(
601.025,
217,
l
),
(
601.025,
284,
o
),
(
605.806,
297,
o
),
(
634.495,
302,
c
),
(
640.232,
303,
l
),
(
640.232,
304,
l
),
(
612.5,
302,
o
),
(
584.768,
301,
o
),
(
556.079,
301,
c
),
(
557.036,
301,
l
),
(
550.342,
301,
l
),
(
494.877,
301,
o
),
(
446.107,
303,
o
),
(
419.331,
304,
c
),
(
419.331,
303,
l
),
(
442.281,
301,
l
),
(
502.527,
294,
o
),
(
512.09,
281,
o
),
(
512.09,
217,
c
),
(
512.09,
133,
ls
),
(
512.09,
39,
o
),
(
460.451,
-11,
o
),
(
375.342,
-11,
cs
),
(
235.724,
-11,
o
),
(
155.396,
124,
o
),
(
155.396,
356,
cs
),
(
155.396,
586,
o
),
(
234.768,
719,
o
),
(
373.429,
719,
cs
),
(
489.139,
719,
o
),
(
579.986,
618,
o
),
(
600.068,
468,
c
),
(
601.025,
468,
l
),
(
601.025,
610,
o
),
(
601.981,
673,
o
),
(
604.85,
722,
c
),
(
603.893,
722,
l
),
(
599.112,
683,
o
),
(
587.637,
668,
o
),
(
563.73,
668,
cs
),
(
507.309,
668,
o
),
(
464.276,
722,
o
),
(
359.085,
722,
cs
),
(
183.128,
722,
o
),
(
59.768,
567,
o
),
(
59.768,
345,
cs
),
(
59.768,
128,
o
),
(
177.391,
-14,
o
),
(
357.172,
-14,
cs
)
);
}
);
width = 700;
},
{
anchors = (
{
name = currency;
pos = (
339.781,
0
);
},
{
name = bottom;
pos = (
350.499,
0
);
},
{
name = top;
pos = (
324.573,
708
);
},
{
name = top_low_1;
pos = (
324.573,
688
);
},
{
name = top_low_2;
pos = (
324.573,
668
);
},
{
name = top_low_3;
pos = (
324.573,
648
);
}
);
layerId = "7300F074-2CFD-43CC-B20F-1BF1EAE6C2C7";
shapes = (
{
closed = 1;
nodes = (
(
408.759,
-14,
o
),
(
462.409,
37,
o
),
(
486.253,
37,
cs
),
(
496.472,
37,
o
),
(
501.582,
30,
o
),
(
505.839,
10,
c
),
(
565.45,
10,
l
),
(
565.45,
198,
l
),
(
565.45,
257,
o
),
(
573.966,
272,
o
),
(
612.287,
281,
c
),
(
625.061,
284,
l
),
(
625.061,
354,
l
),
(
604.623,
353,
o
),
(
558.637,
351,
o
),
(
525.426,
351,
c
),
(
526.277,
351,
l
),
(
516.91,
351,
l
),
(
465.815,
351,
o
),
(
397.689,
353,
o
),
(
367.032,
354,
c
),
(
367.032,
284,
l
),
(
405.353,
280,
l
),
(
470.073,
273,
o
),
(
486.253,
257,
o
),
(
486.253,
198,
c
),
(
486.253,
174,
ls
),
(
486.253,
107,
o
),
(
421.533,
54,
o
),
(
338.929,
54,
cs
),
(
225.669,
54,
o
),
(
160.097,
164,
o
),
(
160.097,
353,
cs
),
(
160.097,
539,
o
),
(
224.818,
654,
o
),
(
330.414,
654,
cs
),
(
419.83,
654,
o
),
(
487.956,
573,
o
),
(
503.285,
448,
c
),
(
565.45,
448,
l
),
(
565.45,
591,
o
),
(
566.302,
657,
o
),
(
568.856,
712,
c
),
(
506.691,
712,
l
),
(
503.285,
669,
o
),
(
496.472,
648,
o
),
(
486.253,
648,
cs
),
(
466.667,
648,
o
),
(
429.197,
722,
o
),
(
327.859,
722,
cs
),
(
179.684,
722,
o
),
(
74.939,
565,
o
),
(
74.939,
344,
cs
),
(
74.939,
128,
o
),
(
172.871,
-14,
o
),
(
320.195,
-14,
cs
)
);
}
);
width = 700;
},
{
anchors = (
{
name = currency;
pos = (
373.874,
0
);
},
{
name = bottom;
pos = (
378.203,
0
);
},
{
name = top;
pos = (
354.161,
708
);
},
{
name = top_low_1;
pos = (
354.161,
688
);
},
{
name = top_low_2;
pos = (
354.161,
668
);
},
{
name = top_low_3;
pos = (
354.161,
648
);
}
);
guides = (
{
pos = (
724.324,
31
);
}
);
layerId = "F497C50F-30EB-4580-9148-0005B36D0333";
shapes = (
{
closed = 1;
nodes = (
(
481.081,
-14,
o
),
(
540.541,
40,
o
),
(
594.595,
40,
cs
),
(
610.811,
40,
o
),
(
623.423,
37,
o
),
(
633.333,
31,
c
),
(
634.234,
31,
l
),
(
634.234,
237,
l
),
(
634.234,
298,
o
),
(
638.739,
314,
o
),
(
659.459,
321,
c
),
(
665.766,
323,
l
),
(
665.766,
324,
l
),
(
625.225,
322,
o
),
(
589.189,
321,
o
),
(
555.856,
321,
c
),
(
543.243,
321,
l
),
(
528.829,
321,
l
),
(
457.658,
321,
o
),
(
404.505,
323,
o
),
(
375.676,
324,
c
),
(
375.676,
323,
l
),
(
396.396,
321,
l
),
(
442.342,
314,
o
),
(
451.351,
299,
o
),
(
451.351,
237,
c
),
(
451.351,
48,
ls
),
(
451.351,
10,
o
),
(
427.928,
-11,
o
),
(
385.586,
-11,
cs
),
(
283.784,
-11,
o
),
(
223.423,
119,
o
),
(
223.423,
339,
cs
),
(
223.423,
581,
o
),
(
295.495,
713,
o
),
(
427.027,
713,
cs
),
(
545.045,
713,
o
),
(
630.631,
608,
o
),
(
633.333,
458,
c
),
(
634.234,
458,
l
),
(
634.234,
605,
o
),
(
635.135,
671,
o
),
(
637.838,
722,
c
),
(
636.937,
722,
l
),
(
630.631,
683,
o
),
(
618.018,
668,
o
),
(
593.694,
668,
cs
),
(
548.649,
668,
o
),
(
500,
722,
o
),
(
372.072,
722,
cs
),
(
163.964,
722,
o
),
(
34.234,
577,
o
),
(
34.234,
345,
cs
),
(
34.234,
122,
o
),
(
156.757,
-14,
o
),
(
355.856,
-14,
cs
)
);
}
);
width = 700;
},
{
anchors = (
{
name = currency;
pos = (
349.156,
0
);
},
{
name = bottom;
pos = (
378.203,
0
);
},
{
name = top;
pos = (
335.667,
708
);
},
{
name = top_low_1;
pos = (
335.667,
688
);
},
{
name = top_low_2;
pos = (
335.667,
668
);
},
{
name = top_low_3;
pos = (
335.667,
648
);
}
);
layerId = "29EF49B2-C370-4E88-B36E-A4ACD23E3F3A";
shapes = (
{
closed = 1;
nodes = (
(
442.039,
-14,
o
),
(
476.659,
57,
o
),
(
517.189,
57,
cs
),
(
536.61,
57,
o
),
(
545.054,
41,
o
),
(
548.432,
0,
c
),
(
610.072,
0,
l
),
(
610.072,
198,
l
),
(
610.072,
264,
o
),
(
615.139,
278,
o
),
(
646.381,
283,
c
),
(
652.292,
284,
l
),
(
652.292,
354,
l
),
(
619.361,
352,
o
),
(
566.164,
351,
o
),
(
536.61,
351,
c
),
(
524.789,
351,
l
),
(
511.279,
351,
l
),
(
471.592,
351,
o
),
(
399.819,
352,
o
),
(
354.222,
354,
c
),
(
354.222,
284,
l
),
(
381.242,
280,
l
),
(
428.528,
273,
o
),
(
438.661,
262,
o
),
(
438.661,
198,
c
),
(
438.661,
128,
ls
),
(
438.661,
84,
o
),
(
415.018,
61,
o
),
(
371.954,
61,
cs
),
(
279.071,
61,
o
),
(
225.03,
166,
o
),
(
225.03,
348,
cs
),
(
225.03,
533,
o
),
(
280.76,
633,
o
),
(
384.62,
633,
cs
),
(
473.281,
633,
o
),
(
532.388,
559,
o
),
(
548.432,
428,
c
),
(
610.072,
428,
l
),
(
610.072,
547,
o
),
(
608.384,
610,
o
),
(
613.45,
712,
c
),
(
551.809,
712,
l
),
(
548.432,
667,
o
),
(
541.677,
648,
o
),
(
529.855,
648,
cs
),
(
506.212,
648,
o
),
(
463.993,
722,
o
),
(
339.023,
722,
cs
),
(
162.545,
722,
o
),
(
47.708,
574,
o
),
(
47.708,
347,
cs
),
(
47.708,
127,
o
),
(
155.79,
-14,
o
),
(
322.979,
-14,
cs
)
);
}
);
width = 700;
},
{
anchors = (
{
name = bottom;
pos = (
365.456,
0
);
},
{
name = top;
pos = (
349.501,
708
);
},
{
name = top_low_1;
pos = (
349.501,
688
);
},
{
name = top_low_2;
pos = (
349.501,
668
);
},
{
name = top_low_3;
pos = (
349.501,
648
);
}
);
associatedMasterId = "DF17D77B-A5C4-4843-826A-BC0F1C4CB224";
layerId = "B4A520D7-0093-4DF2-8E21-5B2308FB6B0A";
name = "24 Jun 21, 10:15";
shapes = (
{
closed = 1;
nodes = (
(
460.185,
-14,
o
),
(
496.083,
37,
o
),
(
558.903,
37,
cs
),
(
581.838,
37,
o
),
(
596.795,
21,
o
),
(
604.772,
-14,
c
),
(
605.769,
-14,
l
),
(
605.769,
217,
ls
),
(
605.769,
289,
o
),
(
610.755,
298,
o
),
(
656.624,
303,
c
),
(
656.624,
304,
l
),
(
632.692,
302,
o
),
(
597.792,
301,
o
),
(
552.92,
301,
cs
),
(
500.071,
301,
o
),
(
448.219,
302,
o
),
(
422.293,
304,
c
),
(
422.293,
303,
l
),
(
500.071,
298,
o
),
(
513.034,
285,
o
),
(
513.034,
217,
cs
),
(
513.034,
123,
ls
),
(
513.034,
25,
o
),
(
457.194,
-12,
o
),
(
350.499,
-12,
cs
),
(
208.903,
-12,
o
),
(
143.091,
104,
o
),
(
143.091,
353,
cs
),
(
143.091,
575,
o
),
(
228.846,
721,
o
),
(
358.476,
721,
cs
),
(
488.105,
721,
o
),
(
582.835,
628,
o
),
(
605.769,
478,
c
),
(
606.766,
478,
l
),
(
606.766,
611,
o
),
(
607.764,
673,
o
),
(
610.755,
722,
c
),
(
609.758,
722,
l
),
(
604.772,
683,
o
),
(
592.806,
668,
o
),
(
567.877,
668,
cs
),
(
521.011,
668,
o
),
(
461.182,
722,
o
),
(
358.476,
722,
cs
),
(
172.009,
722,
o
),
(
43.376,
567,
o
),
(
43.376,
342,
cs
),
(
43.376,
118,
o
),
(
158.048,
-14,
o
),
(
350.499,
-14,
cs
)
);
}
);
width = 700;
},
{
anchors = (
{
name = bottom;
pos = (
378.203,
0
);
},
{
name = top;
pos = (
354.161,
708
);
},
{
name = top_low_1;
pos = (
354.161,
688
);
},
{
name = top_low_2;
pos = (
354.161,
668
);
},
{
name = top_low_3;
pos = (
354.161,
648
);
}
);
associatedMasterId = "F497C50F-30EB-4580-9148-0005B36D0333";
layerId = "A8658EAD-D8A2-4DD2-9D97-47E6C602E64A";
name = "24 Jun 21, 10:15";
shapes = (
{
closed = 1;
nodes = (
(
474.373,
-14,
o
),
(
546.499,
57,
o
),
(
592.734,
57,
cs
),
(
625.099,
57,
o
),
(
633.421,
28,
o
),
(
637.12,
-14,
c
),
(
638.045,
-14,
l
),
(
638.045,
237,
ls
),
(
638.045,
311,
o
),
(
644.518,
318,
o
),
(
675.958,
323,
c
),
(
675.958,
324,
l
),
(
644.518,
322,
o
),
(
592.734,
321,
o
),
(
533.554,
321,
cs
),
(
486.394,
321,
o
),
(
419.815,
322,
o
),
(
384.676,
324,
c
),
(
384.676,
323,
l
),
(
439.234,
318,
o
),
(
450.33,
304,
o
),
(
450.33,
227,
cs
),
(
450.33,
48,
ls
),
(
450.33,
32,
o
),
(
450.33,
-11,
o
),
(
386.526,
-11,
cs
),
(
284.808,
-11,
o
),
(
218.23,
107,
o
),
(
218.23,
342,
cs
),
(
218.23,
518,
o
),
(
260.766,
711,
o
),
(
422.589,
711,
cs
),
(
540.951,
711,
o
),
(
616.777,
608,
o
),
(
620.476,
458,
c
),
(
621.4,
458,
l
),
(
621.4,
591,
o
),
(
622.325,
666,
o
),
(
625.099,
722,
c
),
(
624.174,
722,
l
),
(
617.701,
685,
o
),
(
605.68,
668,
o
),
(
582.563,
668,
cs
),
(
529.855,
668,
o
),
(
503.963,
722,
o
),
(
360.634,
722,
cs
),
(
160.898,
722,
o
),
(
24.042,
577,
o
),
(
24.042,
342,
cs
),
(
24.042,
120,
o
),
(
146.103,
-14,
o
),
(
368.032,
-14,
cs
)
);
}
);
width = 700;
},
{
anchors = (
{
name = bottom;
pos = (
350.499,
0
);
},
{
name = top;
pos = (
324.573,
708
);
},
{
name = top_low_1;
pos = (
324.573,
688
);
},
{
name = top_low_2;
pos = (
324.573,
668
);
},
{
name = top_low_3;
pos = (
324.573,
648
);
}
);
associatedMasterId = "7300F074-2CFD-43CC-B20F-1BF1EAE6C2C7";
layerId = "A743A3D9-4D69-4A00-A897-BBD882277112";
name = "24 Jun 21, 10:15";
shapes = (
{
closed = 1;
nodes = (
(
427.279,
-14,
o
),
(
473.148,
37,
o
),
(
497.08,
37,
cs
),
(
510.043,
37,
o
),
(
516.026,
28,
o
),
(
521.011,
0,
c
),
(
590.812,
0,
l
),
(
590.812,
168,
ls
),
(
590.812,
235,
o
),
(
606.766,
251,
o
),
(
671.581,
254,
c
),
(
671.581,
324,
l
),
(
636.681,
322,
o
),
(
593.803,
321,
o
),
(
533.974,
321,
cs
),
(
457.194,
321,
o
),
(
401.353,
322,
o
),
(
377.422,
324,
c
),
(
377.422,
254,
l
),
(
471.154,
252,
o
),
(
498.077,
240,
o
),
(
498.077,
200,
cs
),
(
498.077,
174,
ls
),
(
498.077,
103,
o
),
(
430.271,
54,
o
),
(
330.556,
54,
cs
),
(
203.917,
54,
o
),
(
128.134,
163,
o
),
(
128.134,
345,
cs
),
(
128.134,
531,
o
),
(
206.909,
654,
o
),
(
325.57,
654,
cs
),
(
429.274,
654,
o
),
(
510.043,
569,
o
),
(
520.014,
448,
c
),
(
592.806,
448,
l
),
(
592.806,
592,
o
),
(
593.803,
657,
o
),
(
596.795,
708,
c
),
(
524.003,
708,
l
),
(
520.014,
668,
o
),
(
512.037,
647,
o
),
(
500.071,
647,
cs
),
(
478.134,
647,
o
),
(
440.242,
722,
o
),
(
320.584,
722,
cs
),
(
148.077,
722,
o
),
(
28.419,
566,
o
),
(
28.419,
341,
cs
),
(
28.419,
120,
o
),
(
139.103,
-14,
o
),
(
322.578,
-14,
cs
)
);
}
);
width = 700;
},
{
anchors = (
{
name = bottom;
pos = (
378.203,
0
);
},
{
name = top;
pos = (
335.667,
708
);
},
{
name = top_low_1;
pos = (
335.667,
688
);
},
{
name = top_low_2;
pos = (
335.667,
668
);
},
{
name = top_low_3;
pos = (
335.667,
648
);
}
);
associatedMasterId = "29EF49B2-C370-4E88-B36E-A4ACD23E3F3A";
layerId = "32FF0B6A-FB62-4DF6-8B6B-FF46681FAE6F";
name = "24 Jun 21, 10:16";
shapes = (
{
closed = 1;
nodes = (
(
466.975,
-14,
o
),
(
492.867,
57,
o
),
(
536.328,
57,
cs
),
(
557.596,
57,
o
),
(
566.843,
41,
o
),
(
570.542,
0,
c
),
(
638.045,
0,
l
),
(
638.045,
168,
ls
),
(
638.045,
239,
o
),
(
643.593,
251,
o
),
(
675.958,
254,
c
),
(
675.958,
324,
l
),
(
647.292,
322,
o
),
(
597.358,
321,
o
),
(
536.328,
321,
cs
),
(
469.749,
321,
o
),
(
412.417,
322,
o
),
(
384.676,
324,
c
),
(
384.676,
254,
l
),
(
440.159,
252,
o
),
(
450.33,
238,
o
),
(
450.33,
168,
cs
),
(
450.33,
128,
ls
),
(
450.33,
80,
o
),
(
420.74,
59,
o
),
(
373.58,
59,
cs
),
(
274.637,
59,
o
),
(
218.23,
159,
o
),
(
218.23,
335,
cs
),
(
218.23,
524,
o
),
(
281.11,
633,
o
),
(
390.225,
633,
cs
),
(
471.598,
633,
o
),
(
525.231,
576,
o
),
(
553.897,
458,
c
),
(
621.4,
458,
l
),
(
621.4,
597,
o
),
(
622.325,
660,
o
),
(
625.099,
708,
c
),
(
557.596,
708,
l
),
(
553.897,
667,
o
),
(
546.499,
648,
o
),
(
533.554,
648,
cs
),
(
508.587,
648,
o
),
(
471.598,
722,
o
),
(
339.366,
722,
cs
),
(
150.727,
722,
o
),
(
24.042,
571,
o
),
(
24.042,
345,
cs
),
(
24.042,
125,
o
),
(
143.329,
-14,
o
),
(
331.968,
-14,
cs
)
);
}
);
width = 700;
}
);
metricLeft = O;
unicode = 71;
userData = {
KernOnName = G;
};
}
{
color = 5;
glyphname = N;
kernLeft = KO_H;
kernRight = KO_N;
layers = (
{
layerId = "DF17D77B-A5C4-4843-826A-BC0F1C4CB224";
shapes = (
{
closed = 1;
nodes = (
(
580.367,
-15,
l
),
(
580.367,
621,
l
),
(
580.367,
686,
o
),
(
589.266,
698,
o
),
(
644.633,
705,
c
),
(
660.452,
707,
l
),
(
660.452,
708,
l
),
(
643.644,
707,
o
),
(
615.96,
705,
o
),
(
579.379,
705,
c
),
(
533.898,
705,
o
),
(
500.282,
707,
o
),
(
479.52,
708,
c
),
(
479.52,
707,
l
),
(
505.226,
704,
l
),
(
569.492,
696,
o
),
(
579.379,
684,
o
),
(
579.379,
621,
c
),
(
579.379,
157,
l
),
(
578.39,
157,
l
),
(
209.605,
708,
l
),
(
198.729,
706,
o
),
(
184.887,
705,
o
),
(
171.045,
705,
c
),
(
155.226,
705,
l
),
(
102.825,
705,
o
),
(
63.277,
707,
o
),
(
39.548,
708,
c
),
(
39.548,
707,
l
),
(
55.367,
705,
l
),
(
110.734,
698,
o
),
(
119.633,
686,
o
),
(
119.633,
621,
c
),
(
119.633,
250,
l
),
(
120.621,
250,
l
),
(
120.621,
669,
l
),
(
121.61,
669,
l
),
(
579.379,
-15,
l
)
);
},
{
closed = 1;
nodes = (
(
120.621,
250,
l
),
(
119.633,
250,
l
),
(
119.633,
87,
l
),
(
119.633,
22,
o
),
(
110.734,
10,
o
),
(
55.367,
3,
c
),
(
39.548,
1,
l
),
(
39.548,
0,
l
),
(
56.356,
1,
o
),
(
84.04,
3,
o
),
(
120.621,
3,
c
),
(
166.102,
3,
o
),
(
199.718,
1,
o
),
(
220.48,
0,
c
),
(
220.48,
1,
l
),
(
194.774,
4,
l
),
(
130.508,
12,
o
),
(
120.621,
24,
o
),
(
120.621,
87,
c
)
);
}
);
width = 700;
},
{
layerId = "7300F074-2CFD-43CC-B20F-1BF1EAE6C2C7";
shapes = (
{
closed = 1;
nodes = (
(
533.671,
0,
l
),
(
533.671,
552,
l
),
(
533.671,
608,
o
),
(
545.495,
627,
o
),
(
601.464,
633,
c
),
(
644.82,
638,
l
),
(
644.82,
708,
l
),
(
616.441,
707,
o
),
(
551.802,
705,
o
),
(
504.505,
705,
c
),
(
470.608,
705,
o
),
(
424.887,
707,
o
),
(
404.392,
708,
c
),
(
404.392,
638,
l
),
(
424.099,
636,
l
),
(
470.608,
631,
o
),
(
476.126,
608,
o
),
(
476.126,
552,
c
),
(
476.126,
238,
l
),
(
451.689,
238,
l
),
(
285.36,
708,
l
),
(
269.595,
706,
o
),
(
241.216,
705,
o
),
(
207.32,
705,
c
),
(
194.707,
705,
l
),
(
147.41,
705,
o
),
(
84.347,
707,
o
),
(
55.968,
708,
c
),
(
55.968,
638,
l
),
(
91.441,
634,
l
),
(
151.351,
627,
o
),
(
166.329,
611,
o
),
(
166.329,
552,
c
),
(
166.329,
250,
l
),
(
223.874,
250,
l
),
(
223.874,
599,
l
),
(
248.311,
599,
l
),
(
460.36,
0,
l
)
);
},
{
closed = 1;
nodes = (
(
223.874,
250,
l
),
(
166.329,
250,
l
),
(
166.329,
156,
l
),
(
166.329,
100,
o
),
(
154.505,
81,
o
),
(
98.536,
75,
c
),
(
55.18,
70,
l
),
(
55.18,
0,
l
),
(
83.559,
1,
o
),
(
148.198,
3,
o
),
(
195.495,
3,
c
),
(
242.793,
3,
o
),
(
306.644,
1,
o
),
(
335.023,
0,
c
),
(
335.023,
70,
l
),
(
291.667,
75,
l
),
(
235.698,
81,
o
),
(
223.874,
100,
o
),
(
223.874,
156,
c
)
);
}
);
width = 700;
},
{
layerId = "F497C50F-30EB-4580-9148-0005B36D0333";
shapes = (
{
closed = 1;
nodes = (
(
604.201,
-15,
l
),
(
604.201,
621,
l
),
(
604.201,
684,
o
),
(
613.686,
700,
o
),
(
656.369,
705,
c
),
(
671.545,
707,
l
),
(
671.545,
708,
l
),
(
659.214,
707,
o
),
(
635.501,
705,
o
),
(
603.252,
705,
c
),
(
554.878,
705,
o
),
(
517.886,
707,
o
),
(
497.967,
708,
c
),
(
497.967,
707,
l
),
(
535.908,
704,
l
),
(
589.973,
699,
o
),
(
603.252,
679,
o
),
(
603.252,
621,
c
),
(
603.252,
302,
l
),
(
602.304,
302,
l
),
(
300.678,
708,
l
),
(
269.377,
706,
o
),
(
233.333,
705,
o
),
(
192.547,
705,
c
),
(
177.371,
705,
l
),
(
108.13,
705,
o
),
(
56.911,
707,
o
),
(
29.404,
708,
c
),
(
29.404,
707,
l
),
(
44.58,
705,
l
),
(
87.263,
700,
o
),
(
95.799,
684,
o
),
(
95.799,
621,
c
),
(
95.799,
250,
l
),
(
96.748,
250,
l
),
(
96.748,
667,
l
),
(
97.696,
667,
l
),
(
603.252,
-15,
l
)
);
},
{
closed = 1;
nodes = (
(
96.748,
250,
l
),
(
95.799,
250,
l
),
(
95.799,
87,
l
),
(
95.799,
24,
o
),
(
86.314,
8,
o
),
(
43.631,
3,
c
),
(
28.455,
1,
l
),
(
28.455,
0,
l
),
(
40.786,
1,
o
),
(
64.499,
3,
o
),
(
96.748,
3,
c
),
(
145.122,
3,
o
),
(
182.114,
1,
o
),
(
202.033,
0,
c
),
(
202.033,
1,
l
),
(
164.092,
4,
l
),
(
110.027,
9,
o
),
(
96.748,
29,
o
),
(
96.748,
87,
c
)
);
}
);
width = 700;
},
{
layerId = "29EF49B2-C370-4E88-B36E-A4ACD23E3F3A";
shapes = (
{
closed = 1;
nodes = (
(
585.088,
0,
l
),
(
585.088,
552,
l
),
(
585.088,
616,
o
),
(
595.614,
630,
o
),
(
644.737,
635,
c
),
(
673.684,
638,
l
),
(
673.684,
708,
l
),
(
638.596,
706,
o
),
(
583.333,
705,
o
),
(
552.632,
705,
c
),
(
523.684,
705,
o
),
(
474.561,
706,
o
),
(
450,
708,
c
),
(
450,
638,
l
),
(
471.93,
636,
l
),
(
512.281,
632,
o
),
(
521.053,
616,
o
),
(
521.053,
552,
c
),
(
521.053,
372,
l
),
(
502.632,
372,
l
),
(
296.491,
708,
l
),
(
270.175,
706,
o
),
(
238.596,
705,
o
),
(
204.386,
705,
c
),
(
190.351,
705,
l
),
(
149.123,
705,
o
),
(
74.561,
706,
o
),
(
27.193,
708,
c
),
(
27.193,
638,
l
),
(
55.263,
634,
l
),
(
104.386,
627,
o
),
(
114.912,
616,
o
),
(
114.912,
552,
c
),
(
114.912,
250,
l
),
(
178.947,
250,
l
),
(
178.947,
530,
l
),
(
197.368,
530,
l
),
(
521.053,
0,
l
)
);
},
{
closed = 1;
nodes = (
(
178.947,
250,
l
),
(
114.912,
250,
l
),
(
114.912,
156,
l
),
(
114.912,
92,
o
),
(
104.386,
78,
o
),
(
55.263,
73,
c
),
(
26.316,
70,
l
),
(
26.316,
0,
l
),
(
61.404,
2,
o
),
(
116.667,
3,
o
),
(
147.368,
3,
c
),
(
186.842,
3,
o
),
(
245.614,
2,
o
),
(
302.632,
0,
c
),
(
302.632,
70,
l
),
(
235.965,
77,
l
),
(
188.596,
82,
o
),
(
178.947,
94,
o
),
(
178.947,
156,
c
)
);
}
);
width = 700;
}
);
metricLeft = I;
metricRight = I;
unicode = 78;
userData = {
KernOnName = N;
};
}
{
color = 5;
glyphname = P;
kernLeft = KO_H;
kernRight = KO_P;
layers = (
{
background = {
anchors = (
{
name = bottom;
pos = (
161,
0
);
},
{
name = center;
pos = (
301,
504
);
},
{
name = stroke;
pos = (
161,
504
);
},
{
name = top;
pos = (
301,
708
);
},
{
name = top_low_1;
pos = (
301,
688
);
},
{
name = top_low_2;
pos = (
301,
668
);
},
{
name = top_low_3;
pos = (
301,
648
);
}
);
guides = (
{
pos = (
229,
504
);
},
{
angle = 90;
pos = (
301,
466
);
},
{
pos = (
752,
180
);
}
);
hints = (
{
name = "_corner.UC-serif";
origin = (
0,
24
);
type = Corner;
},
{
name = "_corner.UC-serif";
origin = (
0,
1
);
scale = (
-1.5,
1
);
type = Corner;
},
{
name = "_corner.UC-serif-to-bowl";
origin = (
0,
23
);
scale = (
1,
-1
);
type = Corner;
}
);
shapes = (
{
closed = 1;
nodes = (
(
214,
3,
l
),
(
261,
0,
l
),
(
261,
704,
l
),
(
334,
704,
ls
),
(
449,
704,
o
),
(
501,
642,
o
),
(
501,
504,
cs
),
(
501,
361,
o
),
(
447,
297,
o
),
(
328,
297,
cs
),
(
296,
297,
o
),
(
269,
300,
o
),
(
242,
306,
c
),
(
242,
305,
l
),
(
271,
298,
o
),
(
297,
295,
o
),
(
338,
295,
cs
),
(
498,
295,
o
),
(
601,
379,
o
),
(
601,
510,
cs
),
(
601,
633,
o
),
(
511,
708,
o
),
(
362,
708,
cs
),
(
168,
708,
l
),
(
168,
0,
l
)
);
}
);
};
layerId = "DF17D77B-A5C4-4843-826A-BC0F1C4CB224";
shapes = (
{
closed = 1;
nodes = (
(
267,
250,
l
),
(
267,
704,
l
),
(
340,
704,
ls
),
(
455,
704,
o
),
(
507,
642,
o
),
(
507,
504,
cs
),
(
507,
361,
o
),
(
453,
297,
o
),
(
334,
297,
cs
),
(
302,
297,
o
),
(
275,
300,
o
),
(
248,
306,
c
),
(
248,
305,
l
),
(
277,
298,
o
),
(
303,
295,
o
),
(
344,
295,
cs
),
(
504,
295,
o
),
(
607,
379,
o
),
(
607,
510,
cs
),
(
607,
633,
o
),
(
517,
708,
o
),
(
368,
708,
cs
),
(
329,
708,
l
),
(
307,
708,
o
),
(
269,
705,
o
),
(
221,
705,
c
),
(
164,
705,
o
),
(
119,
707,
o
),
(
93,
708,
c
),
(
93,
707,
l
),
(
109,
705,
l
),
(
165,
698,
o
),
(
174,
686,
o
),
(
174,
621,
c
),
(
174,
250,
l
)
);
},
{
closed = 1;
nodes = (
(
221,
3,
l
),
(
227,
3,
l
),
(
285,
3,
o
),
(
336,
1,
o
),
(
364,
0,
c
),
(
364,
1,
l
),
(
340,
3,
l
),
(
277,
10,
o
),
(
267,
23,
o
),
(
267,
87,
c
),
(
267,
250,
l
),
(
174,
250,
l
),
(
174,
87,
l
),
(
174,
22,
o
),
(
165,
10,
o
),
(
109,
3,
c
),
(
93,
1,
l
),
(
93,
0,
l
),
(
117,
1,
o
),
(
157,
3,
o
),
(
210,
3,
c
)
);
}
);
width = 700;
},
{
background = {
anchors = (
{
name = bottom;
pos = (
251,
0
);
},
{
name = center;
pos = (
391,
489
);
},
{
name = stroke;
pos = (
251,
490
);
},
{
name = top;
pos = (
391,
708
);
},
{
name = top_low_1;
pos = (
391,
688
);
},
{
name = top_low_2;
pos = (
391,
668
);
},
{
name = top_low_3;
pos = (
391,
648
);
}
);
guides = (
{
pos = (
319,
489
);
},
{
angle = 90;
pos = (
391,
451
);
},
{
pos = (
752,
180
);
}
);
hints = (
{
name = "_corner.UC-serif";
origin = (
0,
24
);
type = Corner;
},
{
name = "_corner.UC-serif";
origin = (
0,
1
);
scale = (
-1.5,
1
);
type = Corner;
},
{
name = "_corner.UC-serif-to-bowl";
origin = (
0,
23
);
scale = (
1,
-1
);
type = Corner;
}
);
shapes = (
{
closed = 1;
nodes = (
(
244.452,
3,
l
),
(
291.252,
0,
l
),
(
291.252,
638,
l
),
(
371.906,
638,
ls
),
(
477.454,
638,
o
),
(
530.228,
587,
o
),
(
530.228,
486,
cs
),
(
530.228,
386,
o
),
(
469.488,
331,
o
),
(
357.966,
331,
cs
),
(
325.107,
331,
o
),
(
298.222,
335,
o
),
(
272.333,
344,
c
),
(
272.333,
274,
l
),
(
298.222,
265,
o
),
(
328.094,
261,
o
),
(
367.923,
261,
cs
),
(
532.219,
261,
o
),
(
629.801,
345,
o
),
(
629.801,
488,
cs
),
(
629.801,
626,
o
),
(
541.181,
708,
o
),
(
389.829,
708,
cs
),
(
198.649,
708,
l
),
(
198.649,
0,
l
)
);
}
);
};
guides = (
{
pos = (
312.162,
489
);
},
{
angle = 90;
pos = (
383.855,
451
);
},
{
pos = (
743.314,
180
);
}
);
layerId = "7300F074-2CFD-43CC-B20F-1BF1EAE6C2C7";
shapes = (
{
closed = 1;
nodes = (
(
297.226,
250,
l
),
(
297.226,
638,
l
),
(
377.881,
638,
ls
),
(
483.428,
638,
o
),
(
536.202,
587,
o
),
(
536.202,
486,
cs
),
(
536.202,
386,
o
),
(
475.462,
331,
o
),
(
363.94,
331,
cs
),
(
331.081,
331,
o
),
(
304.196,
335,
o
),
(
278.307,
344,
c
),
(
278.307,
274,
l
),
(
304.196,
265,
o
),
(
334.068,
261,
o
),
(
373.898,
261,
cs
),
(
538.193,
261,
o
),
(
635.775,
345,
o
),
(
635.775,
488,
cs
),
(
635.775,
626,
o
),
(
547.155,
708,
o
),
(
395.804,
708,
cs
),
(
378.876,
708,
l
),
(
352.987,
708,
o
),
(
294.239,
705,
o
),
(
251.422,
705,
c
),
(
188.691,
705,
o
),
(
102.063,
707,
o
),
(
64.225,
708,
c
),
(
64.225,
638,
l
),
(
118.99,
633,
l
),
(
189.687,
627,
o
),
(
204.623,
608,
o
),
(
204.623,
552,
c
),
(
204.623,
250,
l
)
);
},
{
closed = 1;
nodes = (
(
251.422,
3,
l
),
(
253.414,
3,
l
),
(
325.107,
3,
o
),
(
416.714,
1,
o
),
(
464.509,
0,
c
),
(
464.509,
70,
l
),
(
382.859,
77,
l
),
(
313.158,
83,
o
),
(
297.226,
97,
o
),
(
297.226,
156,
c
),
(
297.226,
250,
l
),
(
204.623,
250,
l
),
(
204.623,
156,
l
),
(
204.623,
97,
o
),
(
185.704,
81,
o
),
(
110.028,
74,
c
),
(
65.22,
70,
l
),
(
65.22,
0,
l
),
(
101.067,
1,
o
),
(
180.725,
3,
o
),
(
240.469,
3,
c
)
);
}
);
width = 700;
},
{
background = {
anchors = (
{
name = bottom;
pos = (
210,
0
);
},
{
name = center;
pos = (
365,
504
);
},
{
name = stroke;
pos = (
213,
504
);
},
{
name = top;
pos = (
365,
708
);
},
{
name = top_low_1;
pos = (
365,
688
);
},
{
name = top_low_2;
pos = (
365,
668
);
},
{
name = top_low_3;
pos = (
365,
648
);
}
);
guides = (
{
pos = (
299,
504
);
},
{
pos = (
293,
504
);
},
{
angle = 90;
pos = (
365,
466
);
},
{
pos = (
770,
180
);
}
);
hints = (
{
name = "_corner.UC-serif";
origin = (
0,
24
);
type = Corner;
},
{
name = "_corner.UC-serif";
origin = (
0,
1
);
scale = (
-1.5,
1
);
type = Corner;
},
{
name = "_corner.UC-serif-to-bowl";
origin = (
0,
23
);
scale = (
1,
-1
);
type = Corner;
}
);
shapes = (
{
closed = 1;
nodes = (
(
213,
3,
l
),
(
315,
0,
l
),
(
315,
705,
l
),
(
366,
705,
ls
),
(
435,
705,
o
),
(
465,
646,
o
),
(
465,
508,
cs
),
(
465,
360,
o
),
(
428,
296,
o
),
(
342,
296,
cs
),
(
303,
296,
o
),
(
273,
300,
o
),
(
246,
309,
c
),
(
246,
308,
l
),
(
276,
299,
o
),
(
309,
295,
o
),
(
352,
295,
cs
),
(
560,
295,
o
),
(
675,
371,
o
),
(
675,
508,
cs
),
(
675,
643,
o
),
(
577,
708,
o
),
(
374,
708,
cs
),
(
112,
708,
l
),
(
112,
0,
l
)
);
}
);
};
guides = (
{
pos = (
302,
504
);
},
{
pos = (
296,
504
);
},
{
angle = 90;
pos = (
368,
466
);
},
{
pos = (
773,
180
);
}
);
layerId = "F497C50F-30EB-4580-9148-0005B36D0333";
shapes = (
{
closed = 1;
nodes = (
(
307,
250,
l
),
(
307,
705,
l
),
(
358,
705,
ls
),
(
427,
705,
o
),
(
457,
646,
o
),
(
457,
508,
cs
),
(
457,
360,
o
),
(
420,
296,
o
),
(
334,
296,
cs
),
(
295,
296,
o
),
(
265,
300,
o
),
(
238,
309,
c
),
(
238,
308,
l
),
(
268,
299,
o
),
(
301,
295,
o
),
(
344,
295,
cs
),
(
552,
295,
o
),
(
667,
371,
o
),
(
667,
508,
cs
),
(
667,
643,
o
),
(
569,
708,
o
),
(
366,
708,
cs
),
(
349,
708,
l
),
(
323,
708,
o
),
(
275,
705,
o
),
(
211,
705,
c
),
(
128,
705,
o
),
(
66,
707,
o
),
(
33,
708,
c
),
(
33,
707,
l
),
(
49,
705,
l
),
(
94,
700,
o
),
(
104,
684,
o
),
(
104,
621,
c
),
(
104,
250,
l
)
);
},
{
closed = 1;
nodes = (
(
206,
3,
l
),
(
221,
3,
l
),
(
300,
3,
o
),
(
359,
1,
o
),
(
391,
0,
c
),
(
391,
1,
l
),
(
368,
3,
l
),
(
317,
10,
o
),
(
307,
25,
o
),
(
307,
87,
c
),
(
307,
250,
l
),
(
104,
250,
l
),
(
104,
87,
l
),
(
104,
24,
o
),
(
95,
8,
o
),
(
50,
3,
c
),
(
34,
1,
l
),
(
34,
0,
l
),
(
63,
1,
o
),
(
117,
3,
o
),
(
190,
3,
c
)
);
}
);
width = 700;
},
{
background = {
anchors = (
{
name = bottom;
pos = (
240,
0
);
},
{
name = center;
pos = (
395,
489
);
},
{
name = stroke;
pos = (
243,
489
);
},
{
name = top;
pos = (
395,
708
);
},
{
name = top_low_1;
pos = (
395,
688
);
},
{
name = top_low_2;
pos = (
395,
668
);
},
{
name = top_low_3;
pos = (
395,
648
);
}
);
guides = (
{
pos = (
323,
504
);
},
{
angle = 90;
pos = (
395,
466
);
},
{
pos = (
323,
489
);
},
{
angle = 90;
pos = (
395,
451
);
},
{
pos = (
770,
180
);
}
);
hints = (
{
name = "_corner.UC-serif";
origin = (
0,
24
);
type = Corner;
},
{
name = "_corner.UC-serif";
origin = (
0,
1
);
scale = (
-1.5,
1
);
type = Corner;
},
{
name = "_corner.UC-serif-to-bowl";
origin = (
0,
23
);
scale = (
1,
-1
);
type = Corner;
}
);
shapes = (
{
closed = 1;
nodes = (
(
229.037,
3,
l
),
(
330.17,
0,
l
),
(
330.17,
638,
l
),
(
383.711,
638,
ls
),
(
448.159,
638,
o
),
(
478.895,
590,
o
),
(
478.895,
486,
cs
),
(
478.895,
374,
o
),
(
444.193,
331,
o
),
(
350.992,
331,
cs
),
(
318.272,
331,
o
),
(
284.561,
336,
o
),
(
261.756,
344,
c
),
(
261.756,
274,
l
),
(
283.569,
267,
o
),
(
343.059,
260,
o
),
(
385.694,
260,
cs
),
(
575.071,
260,
o
),
(
687.11,
346,
o
),
(
687.11,
493,
cs
),
(
687.11,
634,
o
),
(
584.986,
708,
o
),
(
388.669,
708,
cs
),
(
128.895,
708,
l
),
(
128.895,
0,
l
)
);
}
);
};
guides = (
{
pos = (
311.331,
504
);
},
{
angle = 90;
pos = (
382.72,
466
);
},
{
pos = (
311.331,
489
);
},
{
angle = 90;
pos = (
382.72,
451
);
},
{
pos = (
754.533,
180
);
}
);
layerId = "29EF49B2-C370-4E88-B36E-A4ACD23E3F3A";
shapes = (
{
closed = 1;
nodes = (
(
322.238,
250,
l
),
(
322.238,
638,
l
),
(
375.779,
638,
ls
),
(
440.227,
638,
o
),
(
470.963,
590,
o
),
(
470.963,
486,
cs
),
(
470.963,
374,
o
),
(
436.261,
331,
o
),
(
343.059,
331,
cs
),
(
310.34,
331,
o
),
(
276.629,
336,
o
),
(
253.824,
344,
c
),
(
253.824,
274,
l
),
(
275.637,
267,
o
),
(
335.127,
260,
o
),
(
377.762,
260,
cs
),
(
567.139,
260,
o
),
(
679.178,
346,
o
),
(
679.178,
493,
cs
),
(
679.178,
634,
o
),
(
577.054,
708,
o
),
(
380.737,
708,
cs
),
(
344.051,
708,
l
),
(
310.34,
708,
o
),
(
256.799,
705,
o
),
(
227.054,
705,
c
),
(
174.504,
705,
o
),
(
80.312,
706,
o
),
(
20.822,
708,
c
),
(
20.822,
638,
l
),
(
53.541,
635,
l
),
(
109.065,
630,
o
),
(
120.963,
616,
o
),
(
120.963,
552,
c
),
(
120.963,
250,
l
)
);
},
{
closed = 1;
nodes = (
(
223.088,
3,
l
),
(
236.969,
3,
l
),
(
288.527,
3,
o
),
(
374.788,
2,
o
),
(
441.218,
0,
c
),
(
441.218,
70,
l
),
(
388.669,
76,
l
),
(
334.136,
82,
o
),
(
322.238,
94,
o
),
(
322.238,
156,
c
),
(
322.238,
250,
l
),
(
120.963,
250,
l
),
(
120.963,
156,
l
),
(
120.963,
92,
o
),
(
109.065,
81,
o
),
(
53.541,
74,
c
),
(
21.813,
71,
l
),
(
21.813,
1,
l
),
(
75.354,
2,
o
),
(
159.632,
3,
o
),
(
206.232,
2,
c
)
);
}
);
width = 700;
}
);
metricLeft = I;
unicode = 80;
userData = {
KernOnName = P;
};
}
{
color = 5;
glyphname = Q;
kernLeft = KO_O;
kernRight = KO_Q;
layers = (
{
layerId = "DF17D77B-A5C4-4843-826A-BC0F1C4CB224";
shapes = (
{
closed = 1;
nodes = (
(
475.169,
-14,
o
),
(
599.865,
136,
o
),
(
599.865,
360,
cs
),
(
599.865,
589,
o
),
(
479.892,
722,
o
),
(
300.405,
722,
cs
),
(
124.697,
722,
o
),
(
0,
572,
o
),
(
0,
348,
cs
),
(
0,
119,
o
),
(
119.973,
-14,
o
),
(
299.46,
-14,
cs
)
);
},
{
closed = 1;
nodes = (
(
187.045,
-13,
o
),
(
94.467,
129,
o
),
(
94.467,
352,
cs
),
(
94.467,
569,
o
),
(
173.819,
721,
o
),
(
296.626,
721,
cs
),
(
412.821,
721,
o
),
(
505.398,
579,
o
),
(
505.398,
356,
cs
),
(
505.398,
139,
o
),
(
426.046,
-13,
o
),
(
303.239,
-13,
cs
)
);
},
{
closed = 1;
nodes = (
(
145.479,
-239,
o
),
(
162.483,
-222,
o
),
(
162.483,
-198,
cs
),
(
162.483,
-166,
o
),
(
134.143,
-140,
o
),
(
134.143,
-117,
cs
),
(
134.143,
-87,
o
),
(
186.1,
-60,
o
),
(
244.67,
-60,
cs
),
(
386.37,
-60,
o
),
(
434.548,
-239,
o
),
(
575.304,
-239,
cs
),
(
658.435,
-239,
o
),
(
722.672,
-178,
o
),
(
750.068,
-73,
c
),
(
749.123,
-73,
l
),
(
718.894,
-128,
o
),
(
676.384,
-151,
o
),
(
601.755,
-151,
cs
),
(
464.778,
-151,
o
),
(
357.085,
-59,
o
),
(
244.67,
-59,
cs
),
(
153.981,
-59,
o
),
(
72.74,
-118,
o
),
(
72.74,
-185,
cs
),
(
72.74,
-217,
o
),
(
91.633,
-239,
o
),
(
119.973,
-239,
cs
)
);
},
{
closed = 1;
nodes = (
(
311.741,
-41,
o
),
(
342.915,
-9,
o
),
(
418.489,
12,
c
),
(
418.489,
13,
l
),
(
341.971,
-7,
o
),
(
310.796,
-40,
o
),
(
239.946,
-60,
c
),
(
243.725,
-60,
l
)
);
}
);
width = 700;
},
{
layerId = "7300F074-2CFD-43CC-B20F-1BF1EAE6C2C7";
shapes = (
{
closed = 1;
nodes = (
(
444.819,
-14,
o
),
(
560.175,
136,
o
),
(
560.175,
360,
cs
),
(
560.175,
589,
o
),
(
449.189,
722,
o
),
(
283.146,
722,
cs
),
(
120.599,
722,
o
),
(
5.243,
572,
o
),
(
5.243,
348,
cs
),
(
5.243,
119,
o
),
(
116.23,
-14,
o
),
(
282.272,
-14,
cs
)
);
},
{
closed = 1;
nodes = (
(
178.277,
54,
o
),
(
92.634,
170,
o
),
(
92.634,
352,
cs
),
(
92.634,
530,
o
),
(
166.042,
654,
o
),
(
279.65,
654,
cs
),
(
387.141,
654,
o
),
(
472.784,
538,
o
),
(
472.784,
356,
cs
),
(
472.784,
178,
o
),
(
399.376,
54,
o
),
(
285.768,
54,
cs
)
);
},
{
closed = 1;
nodes = (
(
129.338,
-239,
o
),
(
150.312,
-221,
o
),
(
150.312,
-194,
cs
),
(
150.312,
-165,
o
),
(
125.843,
-151,
o
),
(
125.843,
-137,
cs
),
(
125.843,
-125,
o
),
(
145.069,
-116,
o
),
(
171.286,
-116,
cs
),
(
270.911,
-116,
o
),
(
364.419,
-239,
o
),
(
514.732,
-239,
cs
),
(
600.375,
-239,
o
),
(
655.431,
-193,
o
),
(
694.757,
-89,
c
),
(
645.818,
-58,
l
),
(
613.483,
-132,
o
),
(
576.779,
-162,
o
),
(
524.345,
-162,
cs
),
(
397.628,
-162,
o
),
(
301.498,
-54,
o
),
(
170.412,
-59,
cs
),
(
88.265,
-62,
o
),
(
36.704,
-103,
o
),
(
36.704,
-167,
cs
),
(
36.704,
-211,
o
),
(
61.174,
-239,
o
),
(
98.752,
-239,
cs
)
);
},
{
closed = 1;
nodes = (
(
303.246,
-42,
o
),
(
327.715,
-15,
o
),
(
375.78,
5,
c
),
(
374.906,
61,
l
),
(
283.146,
41,
o
),
(
248.19,
-38,
o
),
(
170.412,
-62,
c
),
(
253.433,
-75,
l
)
);
}
);
width = 700;
},
{
layerId = "F497C50F-30EB-4580-9148-0005B36D0333";
shapes = (
{
closed = 1;
nodes = (
(
513.164,
-14,
o
),
(
640.821,
138,
o
),
(
640.821,
354,
cs
),
(
640.821,
570,
o
),
(
513.164,
722,
o
),
(
322.101,
722,
cs
),
(
131.039,
722,
o
),
(
3.382,
570,
o
),
(
3.382,
354,
cs
),
(
3.382,
138,
o
),
(
131.039,
-14,
o
),
(
322.101,
-14,
cs
)
);
},
{
closed = 1;
nodes = (
(
244.324,
-13,
o
),
(
180.918,
129,
o
),
(
180.918,
354,
cs
),
(
180.918,
579,
o
),
(
244.324,
721,
o
),
(
322.101,
721,
cs
),
(
399.879,
721,
o
),
(
463.285,
579,
o
),
(
463.285,
354,
cs
),
(
463.285,
129,
o
),
(
399.879,
-13,
o
),
(
322.101,
-13,
cs
)
);
},
{
closed = 1;
nodes = (
(
156.401,
-239,
o
),
(
185.145,
-214,
o
),
(
185.145,
-180,
cs
),
(
185.145,
-139,
o
),
(
143.72,
-116,
o
),
(
143.72,
-86,
cs
),
(
143.72,
-66,
o
),
(
163.164,
-50,
o
),
(
209.662,
-50,
cs
),
(
295.894,
-50,
o
),
(
390.58,
-239,
o
),
(
528.382,
-239,
cs
),
(
610.386,
-239,
o
),
(
670.411,
-162,
o
),
(
696.618,
-23,
c
),
(
695.773,
-23,
l
),
(
667.874,
-79,
o
),
(
623.913,
-101,
o
),
(
538.527,
-101,
cs
),
(
421.86,
-101,
o
),
(
316.184,
-49,
o
),
(
215.58,
-49,
cs
),
(
115.821,
-49,
o
),
(
43.961,
-93,
o
),
(
43.961,
-165,
cs
),
(
43.961,
-210,
o
),
(
71.86,
-239,
o
),
(
116.667,
-239,
cs
)
);
},
{
closed = 1;
nodes = (
(
279.831,
-39,
o
),
(
311.957,
-20,
o
),
(
390.58,
-7,
c
),
(
389.734,
-6,
l
),
(
310.266,
-19,
o
),
(
278.986,
-38,
o
),
(
206.28,
-50,
c
),
(
212.198,
-50,
l
)
);
}
);
width = 700;
},
{
layerId = "29EF49B2-C370-4E88-B36E-A4ACD23E3F3A";
shapes = (
{
closed = 1;
nodes = (
(
509.783,
-14,
o
),
(
637.44,
138,
o
),
(
637.44,
354,
cs
),
(
637.44,
570,
o
),
(
509.783,
722,
o
),
(
318.72,
722,
cs
),
(
127.657,
722,
o
),
(
0,
570,
o
),
(
0,
354,
cs
),
(
0,
138,
o
),
(
127.657,
-14,
o
),
(
318.72,
-14,
cs
)
);
},
{
closed = 1;
nodes = (
(
240.943,
54,
o
),
(
177.537,
170,
o
),
(
177.537,
354,
cs
),
(
177.537,
538,
o
),
(
240.943,
654,
o
),
(
318.72,
654,
cs
),
(
396.498,
654,
o
),
(
459.904,
538,
o
),
(
459.904,
354,
cs
),
(
459.904,
170,
o
),
(
396.498,
54,
o
),
(
318.72,
54,
cs
)
);
},
{
closed = 1;
nodes = (
(
156.401,
-239,
o
),
(
180.073,
-218,
o
),
(
180.073,
-188,
cs
),
(
180.073,
-170,
o
),
(
172.464,
-150,
o
),
(
172.464,
-140,
cs
),
(
172.464,
-126,
o
),
(
189.372,
-118,
o
),
(
217.271,
-118,
cs
),
(
323.793,
-118,
o
),
(
391.426,
-239,
o
),
(
527.537,
-239,
cs
),
(
618.841,
-239,
o
),
(
677.174,
-184,
o
),
(
718.6,
-59,
c
),
(
671.257,
-28,
l
),
(
637.44,
-83,
o
),
(
602.778,
-102,
o
),
(
541.063,
-102,
cs
),
(
439.614,
-102,
o
),
(
332.247,
-49,
o
),
(
222.343,
-49,
cs
),
(
120.894,
-49,
o
),
(
55.798,
-94,
o
),
(
55.798,
-163,
cs
),
(
55.798,
-208,
o
),
(
82.851,
-239,
o
),
(
123.43,
-239,
cs
)
);
},
{
closed = 1;
nodes = (
(
324.638,
-40,
o
),
(
355.918,
-16,
o
),
(
415.943,
2,
c
),
(
415.097,
48,
l
),
(
310.266,
31,
o
),
(
270.532,
-36,
o
),
(
181.764,
-56,
c
),
(
262.078,
-69,
l
)
);
}
);
width = 700;
}
);
metricLeft = O;
unicode = 81;
userData = {
KernOnName = Q;
};
}
{
color = 4;
glyphname = X;
kernLeft = KO_X;
kernRight = KO_X;
layers = (
{
anchors = (
{
name = bottom;
pos = (
347,
0
);
},
{
name = bottomright;
pos = (
671,
0
);
},
{
name = top;
pos = (
347,
708
);
},
{
name = top_low_1;
pos = (
347,
688
);
},
{
name = top_low_2;
pos = (
347,
668
);
},
{
name = top_low_3;
pos = (
347,
648
);
}
);
background = {
anchors = (
{
name = bottom;
pos = (
317,
0
);
},
{
name = bottomright;
pos = (
641,
0
);
},
{
name = top;
pos = (
317,
708
);
},
{
name = top_low_1;
pos = (
317,
688
);
},
{
name = top_low_2;
pos = (
317,
668
);
},
{
name = top_low_3;
pos = (
317,
648
);
}
);
shapes = (
{
closed = 1;
nodes = (
(
427,
1,
o
),
(
478,
3,
o
),
(
542,
3,
cs
),
(
594,
3,
o
),
(
642,
1,
o
),
(
670,
0,
c
),
(
670,
1,
l
),
(
620,
4,
o
),
(
607,
16,
o
),
(
578,
65,
cs
),
(
242,
623,
ls
),
(
204,
686,
o
),
(
221,
701,
o
),
(
308,
707,
c
),
(
308,
708,
l
),
(
279,
707,
o
),
(
228,
705,
o
),
(
164,
705,
cs
),
(
112,
705,
o
),
(
64,
707,
o
),
(
36,
708,
c
),
(
36,
707,
l
),
(
86,
704,
o
),
(
99,
692,
o
),
(
128,
643,
cs
),
(
464,
85,
ls
),
(
502,
22,
o
),
(
485,
7,
o
),
(
398,
1,
c
),
(
398,
0,
l
)
);
},
{
closed = 1;
nodes = (
(
53,
2,
o
),
(
87,
3,
o
),
(
125,
3,
cs
),
(
169,
3,
o
),
(
210,
2,
o
),
(
240,
0,
c
),
(
240,
1,
l
),
(
149,
10,
o
),
(
136,
55,
o
),
(
195,
147,
cs
),
(
320,
341,
l
),
(
319,
342,
l
),
(
178,
124,
ls
),
(
126,
43,
o
),
(
83,
10,
o
),
(
30,
1,
c
),
(
30,
0,
l
)
);
},
{
closed = 1;
nodes = (
(
502,
584,
ls
),
(
554,
665,
o
),
(
597,
698,
o
),
(
650,
707,
c
),
(
650,
708,
l
),
(
627,
706,
o
),
(
593,
705,
o
),
(
555,
705,
cs
),
(
511,
705,
o
),
(
470,
706,
o
),
(
440,
708,
c
),
(
440,
707,
l
),
(
531,
698,
o
),
(
544,
653,
o
),
(
485,
561,
cs
),
(
360,
368,
l
),
(
361,
366,
l
)
);
}
);
};
layerId = "DF17D77B-A5C4-4843-826A-BC0F1C4CB224";
shapes = (
{
closed = 1;
nodes = (
(
427,
1,
o
),
(
478,
3,
o
),
(
542,
3,
cs
),
(
594,
3,
o
),
(
642,
1,
o
),
(
670,
0,
c
),
(
670,
1,
l
),
(
620,
4,
o
),
(
607,
16,
o
),
(
578,
65,
cs
),
(
242,
623,
ls
),
(
204,
686,
o
),
(
221,
701,
o
),
(
308,
707,
c
),
(
308,
708,
l
),
(
279,
707,
o
),
(
228,
705,
o
),
(
164,
705,
cs
),
(
112,
705,
o
),
(
64,
707,
o
),
(
36,
708,
c
),
(
36,
707,
l
),
(
86,
704,
o
),
(
99,
692,
o
),
(
128,
643,
cs
),
(
464,
85,
ls
),
(
502,
22,
o
),
(
485,
7,
o
),
(
398,
1,
c
),
(
398,
0,
l
)
);
},
{
closed = 1;
nodes = (
(
53,
2,
o
),
(
87,
3,
o
),
(
125,
3,
cs
),
(
169,
3,
o
),
(
210,
2,
o
),
(
240,
0,
c
),
(
240,
1,
l
),
(
149,
10,
o
),
(
136,
55,
o
),
(
195,
147,
cs
),
(
320,
341,
l
),
(
319,
342,
l
),
(
178,
124,
ls
),
(
126,
43,
o
),
(
83,
10,
o
),
(
30,
1,
c
),
(
30,
0,
l
)
);
},
{
closed = 1;
nodes = (
(
502,
584,
ls
),
(
554,
665,
o
),
(
597,
698,
o
),
(
650,
707,
c
),
(
650,
708,
l
),
(
627,
706,
o
),
(
593,
705,
o
),
(
555,
705,
cs
),
(
511,
705,
o
),
(
470,
706,
o
),
(
440,
708,
c
),
(
440,
707,
l
),
(
531,
698,
o
),
(
544,
653,
o
),
(
485,
561,
cs
),
(
360,
368,
l
),
(
361,
366,
l
)
);
}
);
width = 700;
},
{
anchors = (
{
name = bottom;
pos = (
349.129,
0
);
},
{
name = bottomright;
pos = (
679.104,
0
);
},
{
name = top;
pos = (
349.129,
708
);
},
{
name = top_low_1;
pos = (
349.129,
688
);
},
{
name = top_low_2;
pos = (
349.129,
668
);
},
{
name = top_low_3;
pos = (
349.129,
648
);
}
);
background = {
anchors = (
{
name = bottom;
pos = (
397,
0
);
},
{
name = bottomright;
pos = (
776,
0
);
},
{
name = top;
pos = (
397,
708
);
},
{
name = top_low_1;
pos = (
397,
688
);
},
{
name = top_low_2;
pos = (
397,
668
);
},
{
name = top_low_3;
pos = (
397,
648
);
}
);
shapes = (
{
closed = 1;
nodes = (
(
415.404,
3,
o
),
(
453.409,
4,
o
),
(
535.606,
4,
cs
),
(
601.01,
4,
o
),
(
656.692,
1,
o
),
(
685.859,
0,
c
),
(
685.859,
70,
l
),
(
616.035,
72,
o
),
(
586.869,
87,
o
),
(
554.167,
136,
cs
),
(
267.803,
568,
ls
),
(
238.636,
612,
o
),
(
252.778,
634,
o
),
(
311.995,
638,
c
),
(
311.995,
708,
l
),
(
288.131,
705,
o
),
(
254.545,
704,
o
),
(
182.955,
704,
cs
),
(
117.551,
704,
o
),
(
61.869,
707,
o
),
(
32.702,
708,
c
),
(
32.702,
638,
l
),
(
101.641,
638,
o
),
(
129.924,
623,
o
),
(
167.045,
567,
cs
),
(
449.874,
140,
ls
),
(
479.04,
96,
o
),
(
461.364,
74,
o
),
(
388.005,
70,
c
),
(
388.005,
0,
l
)
);
},
{
closed = 1;
nodes = (
(
54.798,
2,
o
),
(
98.106,
3,
o
),
(
159.975,
3,
cs
),
(
233.333,
3,
o
),
(
281.944,
2,
o
),
(
305.808,
0,
c
),
(
305.808,
70,
l
),
(
226.263,
72,
o
),
(
210.354,
96,
o
),
(
248.359,
154,
cs
),
(
365.909,
334,
l
),
(
321.717,
383,
l
),
(
175.884,
162,
ls
),
(
133.46,
97,
o
),
(
91.919,
70,
o
),
(
31.818,
70,
c
),
(
31.818,
0,
l
)
);
},
{
closed = 1;
nodes = (
(
515.278,
546,
ls
),
(
555.934,
609,
o
),
(
602.778,
638,
o
),
(
659.343,
638,
c
),
(
659.343,
708,
l
),
(
636.364,
706,
o
),
(
593.056,
705,
o
),
(
531.187,
705,
cs
),
(
478.157,
705,
o
),
(
433.081,
706,
o
),
(
403.03,
708,
c
),
(
403.03,
638,
l
),
(
472.854,
636,
o
),
(
486.111,
618,
o
),
(
453.409,
568,
cs
),
(
335.859,
387,
l
),
(
386.237,
346,
l
)
);
}
);
};
layerId = "7300F074-2CFD-43CC-B20F-1BF1EAE6C2C7";
shapes = (
{
closed = 1;
nodes = (
(
415.404,
3,
o
),
(
453.409,
4,
o
),
(
535.606,
4,
cs
),
(
601.01,
4,
o
),
(
656.692,
1,
o
),
(
668.182,
0,
c
),
(
668.182,
70,
l
),
(
616.035,
72,
o
),
(
586.869,
87,
o
),
(
554.167,
136,
cs
),
(
267.803,
568,
ls
),
(
238.636,
612,
o
),
(
252.778,
634,
o
),
(
311.995,
638,
c
),
(
311.995,
708,
l
),
(
288.131,
705,
o
),
(
254.545,
704,
o
),
(
182.955,
704,
cs
),
(
117.551,
704,
o
),
(
61.869,
707,
o
),
(
32.702,
708,
c
),
(
32.702,
638,
l
),
(
101.641,
638,
o
),
(
129.924,
623,
o
),
(
167.045,
567,
cs
),
(
449.874,
140,
ls
),
(
479.04,
96,
o
),
(
461.364,
74,
o
),
(
388.005,
70,
c
),
(
388.005,
0,
l
)
);
},
{
closed = 1;
nodes = (
(
54.798,
2,
o
),
(
98.106,
3,
o
),
(
159.975,
3,
cs
),
(
233.333,
3,
o
),
(
281.944,
2,
o
),
(
305.808,
0,
c
),
(
305.808,
70,
l
),
(
226.263,
72,
o
),
(
210.354,
96,
o
),
(
248.359,
154,
cs
),
(
365.909,
334,
l
),
(
321.717,
383,
l
),
(
175.884,
162,
ls
),
(
133.46,
97,
o
),
(
91.919,
70,
o
),
(
31.818,
70,
c
),
(
31.818,
0,
l
)
);
},
{
closed = 1;
nodes = (
(
515.278,
546,
ls
),
(
555.934,
609,
o
),
(
602.778,
638,
o
),
(
659.343,
638,
c
),
(
659.343,
708,
l
),
(
636.364,
706,
o
),
(
593.056,
705,
o
),
(
531.187,
705,
cs
),
(
478.157,
705,
o
),
(
433.081,
706,
o
),
(
403.03,
708,
c
),
(
403.03,
638,
l
),
(
472.854,
636,
o
),
(
486.111,
618,
o
),
(
453.409,
568,
cs
),
(
335.859,
387,
l
),
(
386.237,
346,
l
)
);
}
);
width = 700;
},
{
anchors = (
{
name = bottom;
pos = (
341.358,
0
);
},
{
name = bottomright;
pos = (
722.565,
0
);
},
{
name = top;
pos = (
341.358,
708
);
},
{
name = top_low_1;
pos = (
341.358,
688
);
},
{
name = top_low_2;
pos = (
341.358,
668
);
},
{
name = top_low_3;
pos = (
341.358,
648
);
}
);
background = {
anchors = (
{
name = bottom;
pos = (
365,
0
);
},
{
name = bottomright;
pos = (
762,
0
);
},
{
name = top;
pos = (
365,
708
);
},
{
name = top_low_1;
pos = (
365,
688
);
},
{
name = top_low_2;
pos = (
365,
668
);
},
{
name = top_low_3;
pos = (
365,
648
);
}
);
shapes = (
{
closed = 1;
nodes = (
(
426.251,
2,
o
),
(
487.821,
3,
o
),
(
571.177,
3,
cs
),
(
640.325,
3,
o
),
(
697.158,
2,
o
),
(
743.572,
0,
c
),
(
743.572,
1,
l
),
(
708.525,
7,
o
),
(
691.475,
31,
o
),
(
653.586,
89,
cs
),
(
305.954,
623,
ls
),
(
274.695,
671,
o
),
(
301.218,
704,
o
),
(
358.998,
707,
c
),
(
358.998,
708,
l
),
(
325.846,
706,
o
),
(
264.276,
705,
o
),
(
180.92,
705,
cs
),
(
111.772,
705,
o
),
(
54.939,
706,
o
),
(
8.525,
708,
c
),
(
8.525,
707,
l
),
(
43.572,
701,
o
),
(
60.622,
677,
o
),
(
98.511,
619,
cs
),
(
446.143,
85,
ls
),
(
477.402,
37,
o
),
(
450.879,
4,
o
),
(
393.099,
1,
c
),
(
393.099,
0,
l
)
);
},
{
closed = 1;
nodes = (
(
64.411,
2,
o
),
(
90.933,
3,
o
),
(
119.35,
3,
cs
),
(
158.187,
3,
o
),
(
208.39,
2,
o
),
(
274.695,
0,
c
),
(
274.695,
1,
l
),
(
166.712,
9,
o
),
(
152.503,
114,
o
),
(
235.859,
222,
cs
),
(
321.109,
332,
l
),
(
320.162,
333,
l
),
(
184.709,
158,
ls
),
(
115.561,
69,
o
),
(
67.253,
29,
o
),
(
0,
1,
c
),
(
0,
0,
l
)
);
},
{
closed = 1;
nodes = (
(
520.027,
550,
ls
),
(
589.174,
639,
o
),
(
637.483,
673,
o
),
(
704.736,
707,
c
),
(
704.736,
708,
l
),
(
640.325,
706,
o
),
(
613.802,
705,
o
),
(
585.385,
705,
cs
),
(
546.549,
705,
o
),
(
496.346,
706,
o
),
(
430.04,
708,
c
),
(
430.04,
707,
l
),
(
538.024,
699,
o
),
(
552.233,
594,
o
),
(
468.877,
486,
cs
),
(
383.626,
376,
l
),
(
384.574,
375,
l
)
);
}
);
};
layerId = "F497C50F-30EB-4580-9148-0005B36D0333";
shapes = (
{
closed = 1;
nodes = (
(
426.251,
2,
o
),
(
487.821,
3,
o
),
(
571.177,
3,
cs
),
(
640.325,
3,
o
),
(
697.158,
2,
o
),
(
743.572,
0,
c
),
(
743.572,
1,
l
),
(
708.525,
7,
o
),
(
691.475,
31,
o
),
(
653.586,
89,
cs
),
(
305.954,
623,
ls
),
(
274.695,
671,
o
),
(
301.218,
704,
o
),
(
358.998,
707,
c
),
(
358.998,
708,
l
),
(
325.846,
706,
o
),
(
264.276,
705,
o
),
(
180.92,
705,
cs
),
(
111.772,
705,
o
),
(
54.939,
706,
o
),
(
8.525,
708,
c
),
(
8.525,
707,
l
),
(
43.572,
701,
o
),
(
60.622,
677,
o
),
(
98.511,
619,
cs
),
(
446.143,
85,
ls
),
(
477.402,
37,
o
),
(
450.879,
4,
o
),
(
393.099,
1,
c
),
(
393.099,
0,
l
)
);
},
{
closed = 1;
nodes = (
(
64.411,
2,
o
),
(
90.933,
3,
o
),
(
119.35,
3,
cs
),
(
158.187,
3,
o
),
(
208.39,
2,
o
),
(
274.695,
0,
c
),
(
274.695,
1,
l
),
(
166.712,
9,
o
),
(
152.503,
114,
o
),
(
235.859,
222,
cs
),
(
321.109,
332,
l
),
(
320.162,
333,
l
),
(
184.709,
158,
ls
),
(
115.561,
69,
o
),
(
67.253,
29,
o
),
(
0,
1,
c
),
(
0,
0,
l
)
);
},
{
closed = 1;
nodes = (
(
520.027,
550,
ls
),
(
589.174,
639,
o
),
(
637.483,
673,
o
),
(
704.736,
707,
c
),
(
704.736,
708,
l
),
(
640.325,
706,
o
),
(
613.802,
705,
o
),
(
585.385,
705,
cs
),
(
546.549,
705,
o
),
(
496.346,
706,
o
),
(
430.04,
708,
c
),
(
430.04,
707,
l
),
(
538.024,
699,
o
),
(
552.233,
594,
o
),
(
468.877,
486,
cs
),
(
383.626,
376,
l
),
(
384.574,
375,
l
)
);
}
);
width = 700;
},
{
anchors = (
{
name = bottom;
pos = (
353.625,
0
);
},
{
name = bottomright;
pos = (
705.639,
0
);
},
{
name = top;
pos = (
353.625,
708
);
},
{
name = top_low_1;
pos = (
353.625,
688
);
},
{
name = top_low_2;
pos = (
353.625,
668
);
},
{
name = top_low_3;
pos = (
353.625,
648
);
}
);
background = {
anchors = (
{
name = bottom;
pos = (
435,
0
);
},
{
name = bottomright;
pos = (
872,
0
);
},
{
name = top;
pos = (
435,
708
);
},
{
name = top_low_1;
pos = (
435,
688
);
},
{
name = top_low_2;
pos = (
435,
668
);
},
{
name = top_low_3;
pos = (
435,
648
);
}
);
shapes = (
{
closed = 1;
nodes = (
(
405.478,
2,
o
),
(
465.851,
3,
o
),
(
536.014,
3,
cs
),
(
590.676,
3,
o
),
(
646.154,
2,
o
),
(
711.422,
0,
c
),
(
711.422,
70,
l
),
(
660.839,
70,
o
),
(
637.179,
86,
o
),
(
609.441,
127,
cs
),
(
325.524,
556,
ls
),
(
287.995,
612,
o
),
(
294.522,
638,
o
),
(
348.368,
638,
c
),
(
348.368,
708,
l
),
(
307.576,
705,
o
),
(
252.098,
705,
o
),
(
188.462,
705,
cs
),
(
133.8,
705,
o
),
(
78.322,
705,
o
),
(
13.054,
708,
c
),
(
13.054,
638,
l
),
(
63.636,
638,
o
),
(
87.296,
622,
o
),
(
115.035,
581,
cs
),
(
398.951,
152,
ls
),
(
436.48,
96,
o
),
(
428.322,
70,
o
),
(
359.79,
70,
c
),
(
359.79,
0,
l
)
);
},
{
closed = 1;
nodes = (
(
83.217,
2,
o
),
(
111.772,
3,
o
),
(
141.958,
3,
cs
),
(
201.515,
3,
o
),
(
254.545,
2,
o
),
(
292.075,
0,
c
),
(
292.075,
70,
l
),
(
192.541,
73,
o
),
(
181.935,
110,
o
),
(
245.571,
200,
cs
),
(
337.762,
332,
l
),
(
281.469,
357,
l
),
(
145.221,
159,
ls
),
(
106.061,
103,
o
),
(
79.953,
86,
o
),
(
14.685,
70,
c
),
(
14.685,
0,
l
)
);
},
{
closed = 1;
nodes = (
(
522.145,
549,
ls
),
(
561.305,
605,
o
),
(
587.413,
622,
o
),
(
652.681,
638,
c
),
(
652.681,
708,
l
),
(
584.149,
706,
o
),
(
555.594,
705,
o
),
(
525.408,
705,
cs
),
(
478.904,
705,
o
),
(
437.296,
706,
o
),
(
407.925,
708,
c
),
(
407.925,
638,
l
),
(
478.089,
635,
o
),
(
485.431,
598,
o
),
(
421.795,
508,
cs
),
(
345.921,
400,
l
),
(
402.214,
375,
l
)
);
}
);
};
layerId = "29EF49B2-C370-4E88-B36E-A4ACD23E3F3A";
shapes = (
{
closed = 1;
nodes = (
(
405.478,
2,
o
),
(
465.851,
3,
o
),
(
536.014,
3,
cs
),
(
590.676,
3,
o
),
(
646.154,
2,
o
),
(
686.946,
0,
c
),
(
686.946,
70,
l
),
(
652.681,
75,
o
),
(
637.179,
86,
o
),
(
609.441,
127,
cs
),
(
325.524,
556,
ls
),
(
287.995,
612,
o
),
(
294.522,
638,
o
),
(
348.368,
638,
c
),
(
348.368,
708,
l
),
(
307.576,
705,
o
),
(
252.098,
705,
o
),
(
188.462,
705,
cs
),
(
133.8,
705,
o
),
(
78.322,
705,
o
),
(
13.054,
708,
c
),
(
13.054,
638,
l
),
(
63.636,
638,
o
),
(
87.296,
622,
o
),
(
115.035,
581,
cs
),
(
398.951,
152,
ls
),
(
436.48,
96,
o
),
(
428.322,
70,
o
),
(
359.79,
70,
c
),
(
359.79,
0,
l
)
);
},
{
closed = 1;
nodes = (
(
83.217,
2,
o
),
(
111.772,
3,
o
),
(
141.958,
3,
cs
),
(
201.515,
3,
o
),
(
254.545,
2,
o
),
(
292.075,
0,
c
),
(
292.075,
70,
l
),
(
192.541,
73,
o
),
(
181.935,
110,
o
),
(
245.571,
200,
cs
),
(
337.762,
332,
l
),
(
281.469,
357,
l
),
(
145.221,
159,
ls
),
(
106.061,
103,
o
),
(
79.953,
86,
o
),
(
14.685,
70,
c
),
(
14.685,
0,
l
)
);
},
{
closed = 1;
nodes = (
(
522.145,
549,
ls
),
(
561.305,
605,
o
),
(
587.413,
622,
o
),
(
652.681,
638,
c
),
(
652.681,
708,
l
),
(
584.149,
706,
o
),
(
555.594,
705,
o
),
(
525.408,
705,
cs
),
(
478.904,
705,
o
),
(
437.296,
706,
o
),
(
407.925,
708,
c
),
(
407.925,
638,
l
),
(
478.089,
635,
o
),
(
485.431,
598,
o
),
(
421.795,
508,
cs
),
(
345.921,
400,
l
),
(
402.214,
375,
l
)
);
}
);
width = 700;
},
{
anchors = (
{
name = bottom;
pos = (
347,
0
);
},
{
name = bottomright;
pos = (
671,
0
);
},
{
name = top;
pos = (
347,
708
);
},
{
name = top_low_1;
pos = (
347,
688
);
},
{
name = top_low_2;
pos = (
347,
668
);
},
{
name = top_low_3;
pos = (
347,
648
);
}
);
associatedMasterId = "DF17D77B-A5C4-4843-826A-BC0F1C4CB224";
background = {
anchors = (
{
name = bottom;
pos = (
317,
0
);
},
{
name = bottomright;
pos = (
641,
0
);
},
{
name = top;
pos = (
317,
708
);
},
{
name = top_low_1;
pos = (
317,
688
);
},
{
name = top_low_2;
pos = (
317,
668
);
},
{
name = top_low_3;
pos = (
317,
648
);
}
);
hints = (
{
name = "_cap.UC-thin-diagonal-flare";
options = 2;
type = Cap;
},
{
name = "_cap.UC-thin-diagonal-flare";
options = 2;
type = Cap;
},
{
name = "_corner.UC-right-diagonal-serif";
options = 1;
type = Corner;
},
{
name = "_corner.UC-left-diagonal-serif";
type = Corner;
},
{
name = "_corner.UC-left-diagonal-serif";
type = Corner;
},
{
name = "_corner.UC-right-diagonal-serif";
options = 1;
type = Corner;
}
);
shapes = (
{
closed = 1;
nodes = (
(
567,
3,
l
),
(
618,
0,
l
),
(
192,
708,
l
),
(
141,
705,
l
),
(
90,
708,
l
),
(
516,
0,
l
)
);
},
{
closed = 1;
nodes = (
(
101,
0,
l
),
(
321,
341,
l
),
(
320,
342,
l
),
(
99,
0,
l
)
);
},
{
closed = 1;
nodes = (
(
584,
708,
l
),
(
582,
708,
l
),
(
361,
368,
l
),
(
362,
366,
l
)
);
}
);
};
layerId = "AFC96F23-47F0-425A-B0F2-EF4F30B912F5";
name = "Cap & Corner";
shapes = (
{
closed = 1;
nodes = (
(
567,
3,
l
),
(
573,
3,
l
),
(
618,
3,
o
),
(
652,
1,
o
),
(
674,
0,
c
),
(
674,
1,
l
),
(
663,
2,
l
),
(
624,
6,
o
),
(
606,
21,
o
),
(
574,
72,
c
),
(
241,
626,
l
),
(
209,
688,
o
),
(
215,
698,
o
),
(
271,
704,
c
),
(
287,
706,
l
),
(
287,
707,
l
),
(
258,
706,
o
),
(
211,
705,
o
),
(
147,
705,
c
),
(
141,
705,
l
),
(
135,
705,
l
),
(
90,
705,
o
),
(
56,
707,
o
),
(
34,
708,
c
),
(
34,
707,
l
),
(
45,
706,
l
),
(
84,
702,
o
),
(
102,
687,
o
),
(
134,
636,
c
),
(
467,
82,
l
),
(
499,
20,
o
),
(
493,
10,
o
),
(
437,
4,
c
),
(
421,
2,
l
),
(
421,
1,
l
),
(
450,
2,
o
),
(
497,
3,
o
),
(
561,
3,
c
)
);
},
{
closed = 1;
nodes = (
(
321,
341,
l
),
(
320,
342,
l
),
(
178,
122,
l
),
(
126,
40,
o
),
(
86,
13,
o
),
(
36,
3,
c
),
(
26,
1,
l
),
(
26,
0,
l
),
(
43,
1,
o
),
(
70,
3,
o
),
(
111,
3,
c
),
(
148,
3,
o
),
(
209,
2,
o
),
(
251,
0,
c
),
(
251,
1,
l
),
(
241,
2,
l
),
(
153,
11,
o
),
(
137,
54,
o
),
(
186,
131,
c
)
);
},
{
closed = 1;
nodes = (
(
505,
587,
l
),
(
557,
668,
o
),
(
597,
695,
o
),
(
647,
705,
c
),
(
657,
707,
l
),
(
657,
708,
l
),
(
640,
707,
o
),
(
613,
705,
o
),
(
572,
705,
c
),
(
535,
705,
o
),
(
474,
706,
o
),
(
432,
708,
c
),
(
432,
707,
l
),
(
442,
706,
l
),
(
530,
697,
o
),
(
546,
654,
o
),
(
497,
577,
c
),
(
361,
368,
l
),
(
362,
366,
l
)
);
}
);
width = 700;
},
{
anchors = (
{
name = bottom;
pos = (
382.167,
0
);
},
{
name = bottomright;
pos = (
763.374,
0
);
},
{
name = top;
pos = (
382.167,
708
);
},
{
name = top_low_1;
pos = (
382.167,
688
);
},
{
name = top_low_2;
pos = (
382.167,
668
);
},
{
name = top_low_3;
pos = (
382.167,
648
);
}
);
associatedMasterId = "F497C50F-30EB-4580-9148-0005B36D0333";
background = {
anchors = (
{
name = bottom;
pos = (
365,
0
);
},
{
name = bottomright;
pos = (
762,
0
);
},
{
name = top;
pos = (
365,
708
);
},
{
name = top_low_1;
pos = (
365,
688
);
},
{
name = top_low_2;
pos = (
365,
668
);
},
{
name = top_low_3;
pos = (
365,
648
);
}
);
hints = (
{
name = "_cap.UC-thin-diagonal-flare";
options = 2;
type = Cap;
},
{
name = "_cap.UC-thin-diagonal-flare";
options = 2;
type = Cap;
},
{
name = "_corner.UC-right-diagonal-serif";
options = 1;
type = Corner;
},
{
name = "_corner.UC-left-diagonal-serif";
type = Corner;
},
{
name = "_corner.UC-left-diagonal-serif";
type = Corner;
},
{
name = "_corner.UC-right-diagonal-serif";
options = 1;
type = Corner;
}
);
shapes = (
{
closed = 1;
nodes = (
(
624.142,
3,
l
),
(
730.727,
0,
l
),
(
264.06,
708,
l
),
(
157.476,
705,
l
),
(
50.891,
708,
l
),
(
517.558,
0,
l
)
);
},
{
closed = 1;
nodes = (
(
74.897,
0,
l
),
(
335.116,
332,
l
),
(
334.156,
333,
l
),
(
72.976,
0,
l
)
);
},
{
closed = 1;
nodes = (
(
660.631,
708,
l
),
(
658.71,
708,
l
),
(
398.491,
376,
l
),
(
399.451,
375,
l
)
);
}
);
};
layerId = "1EB0132F-2464-4549-A2CE-9AC297F4269F";
name = "Cap & Corner";
shapes = (
{
closed = 1;
nodes = (
(
624.142,
3,
l
),
(
640.466,
3,
l
),
(
705.761,
3,
o
),
(
755.692,
1,
o
),
(
781.618,
0,
c
),
(
781.618,
1,
l
),
(
768.175,
3,
l
),
(
735.528,
8,
o
),
(
717.284,
19,
o
),
(
697.119,
52,
c
),
(
316.872,
628,
l
),
(
278.463,
686,
o
),
(
286.145,
701,
o
),
(
327.435,
705,
c
),
(
346.639,
707,
l
),
(
346.639,
708,
l
),
(
313.031,
707,
o
),
(
251.577,
705,
o
),
(
167.078,
705,
c
),
(
157.476,
705,
l
),
(
141.152,
705,
l
),
(
75.857,
705,
o
),
(
25.926,
707,
o
),
(
0,
708,
c
),
(
0,
707,
l
),
(
13.443,
705,
l
),
(
46.09,
700,
o
),
(
64.334,
689,
o
),
(
84.499,
656,
c
),
(
464.746,
80,
l
),
(
503.155,
22,
o
),
(
495.473,
7,
o
),
(
454.183,
3,
c
),
(
434.979,
1,
l
),
(
434.979,
0,
l
),
(
468.587,
1,
o
),
(
530.041,
3,
o
),
(
614.54,
3,
c
)
);
},
{
closed = 1;
nodes = (
(
335.116,
332,
l
),
(
334.156,
333,
l
),
(
236.214,
209,
l
),
(
118.107,
58,
o
),
(
71.056,
24,
o
),
(
16.323,
5,
c
),
(
4.801,
1,
l
),
(
4.801,
0,
l
),
(
42.249,
2,
o
),
(
64.334,
3,
o
),
(
101.783,
3,
c
),
(
141.152,
3,
o
),
(
166.118,
2,
o
),
(
223.731,
0,
c
),
(
223.731,
1,
l
),
(
217.009,
2,
l
),
(
133.47,
14,
o
),
(
144.993,
89,
o
),
(
238.134,
209,
c
)
);
},
{
closed = 1;
nodes = (
(
497.393,
499,
l
),
(
615.5,
650,
o
),
(
662.551,
684,
o
),
(
717.284,
703,
c
),
(
728.806,
707,
l
),
(
728.806,
708,
l
),
(
691.358,
706,
o
),
(
669.273,
705,
o
),
(
631.824,
705,
c
),
(
592.455,
705,
o
),
(
567.489,
706,
o
),
(
509.876,
708,
c
),
(
509.876,
707,
l
),
(
516.598,
706,
l
),
(
600.137,
694,
o
),
(
588.614,
619,
o
),
(
495.473,
499,
c
),
(
398.491,
376,
l
),
(
399.451,
375,
l
)
);
}
);
width = 700;
},
{
anchors = (
{
name = bottom;
pos = (
353.482,
0
);
},
{
name = bottomright;
pos = (
683.457,
0
);
},
{
name = top;
pos = (
353.482,
708
);
},
{
name = top_low_1;
pos = (
353.482,
688
);
},
{
name = top_low_2;
pos = (
353.482,
668
);
},
{
name = top_low_3;
pos = (
353.482,
648
);
}
);
associatedMasterId = "7300F074-2CFD-43CC-B20F-1BF1EAE6C2C7";
background = {
anchors = (
{
name = bottom;
pos = (
397,
0
);
},
{
name = bottomright;
pos = (
776,
0
);
},
{
name = top;
pos = (
397,
708
);
},
{
name = top_low_1;
pos = (
397,
688
);
},
{
name = top_low_2;
pos = (
397,
668
);
},
{
name = top_low_3;
pos = (
397,
648
);
}
);
hints = (
{
name = "_cap.UC-thin-diagonal-flare";
options = 2;
type = Cap;
},
{
name = "_cap.UC-thin-diagonal-flare";
options = 2;
type = Cap;
},
{
name = "_corner.UC-right-diagonal-serif";
options = 1;
type = Corner;
},
{
name = "_corner.UC-left-diagonal-serif";
options = 4;
scale = (
-1,
-1
);
type = Corner;
},
{
name = "_corner.UC-left-diagonal-serif";
options = 4;
type = Corner;
},
{
name = "_corner.UC-right-diagonal-serif";
options = 1;
type = Corner;
}
);
shapes = (
{
closed = 1;
nodes = (
(
592.04,
3,
l
),
(
642.537,
0,
l
),
(
180.224,
708,
l
),
(
130.597,
705,
l
),
(
80.099,
708,
l
),
(
542.413,
0,
l
)
);
},
{
closed = 1;
nodes = (
(
152.363,
0,
l
),
(
368.283,
334,
l
),
(
324.751,
383,
l
),
(
75.746,
0,
l
)
);
},
{
closed = 1;
nodes = (
(
618.159,
708,
l
),
(
543.283,
708,
l
),
(
338.681,
387,
l
),
(
388.308,
346,
l
)
);
}
);
};
layerId = "8B152FE0-A013-4DDE-9046-6CF3019E1322";
name = "Cap & Corner";
shapes = (
{
closed = 1;
nodes = (
(
592.04,
3,
l
),
(
599.875,
3,
l
),
(
626.865,
3,
o
),
(
667.786,
2,
o
),
(
708.706,
1,
c
),
(
707.836,
71,
l
),
(
660.821,
75,
l
),
(
621.642,
79,
o
),
(
588.557,
82,
o
),
(
554.602,
135,
c
),
(
268.159,
573,
l
),
(
236.816,
622,
o
),
(
229.851,
627,
o
),
(
291.666,
633,
c
),
(
339.552,
638,
l
),
(
339.552,
708,
l
),
(
298.632,
707,
o
),
(
205.472,
705,
o
),
(
138.433,
705,
c
),
(
130.597,
705,
l
),
(
122.761,
705,
l
),
(
95.771,
705,
o
),
(
54.851,
706,
o
),
(
13.93,
707,
c
),
(
14.801,
637,
l
),
(
61.816,
633,
l
),
(
100.995,
629,
o
),
(
134.079,
626,
o
),
(
168.035,
573,
c
),
(
454.477,
135,
l
),
(
485.821,
86,
o
),
(
492.786,
81,
o
),
(
430.97,
75,
c
),
(
383.084,
70,
l
),
(
383.084,
0,
l
),
(
424.005,
1,
o
),
(
517.164,
3,
o
),
(
584.204,
3,
c
)
);
},
{
closed = 1;
nodes = (
(
368.283,
334,
l
),
(
324.751,
383,
l
),
(
187.189,
171,
l
),
(
134.95,
90,
o
),
(
86.194,
80,
o
),
(
16.542,
72,
c
),
(
0,
70,
l
),
(
0,
0,
l
),
(
40.92,
2,
o
),
(
87.935,
3,
o
),
(
134.95,
3,
c
),
(
181.094,
3,
o
),
(
235.074,
2,
o
),
(
289.925,
0,
c
),
(
289.925,
70,
l
),
(
266.418,
73,
l
),
(
201.119,
81,
o
),
(
211.567,
105,
o
),
(
258.582,
180,
c
)
);
},
{
closed = 1;
nodes = (
(
508.457,
536,
l
),
(
559.826,
617,
o
),
(
607.711,
628,
o
),
(
677.363,
636,
c
),
(
693.905,
638,
l
),
(
693.905,
708,
l
),
(
652.985,
706,
o
),
(
605.97,
705,
o
),
(
558.955,
705,
c
),
(
512.811,
705,
o
),
(
458.831,
706,
o
),
(
403.98,
708,
c
),
(
403.98,
638,
l
),
(
427.487,
635,
l
),
(
492.786,
627,
o
),
(
482.338,
602,
o
),
(
436.194,
527,
c
),
(
338.681,
387,
l
),
(
388.308,
346,
l
)
);
}
);
width = 700;
},
{
anchors = (
{
name = bottom;
pos = (
386.651,
0
);
},
{
name = bottomright;
pos = (
738.665,
0
);
},
{
name = top;
pos = (
386.651,
708
);
},
{
name = top_low_1;
pos = (
386.651,
688
);
},
{
name = top_low_2;
pos = (
386.651,
668
);
},
{
name = top_low_3;
pos = (
386.651,
648
);
}
);
associatedMasterId = "29EF49B2-C370-4E88-B36E-A4ACD23E3F3A";
background = {
anchors = (
{
name = bottom;
pos = (
435,
0
);
},
{
name = bottomright;
pos = (
872,
0
);
},
{
name = top;
pos = (
435,
708
);
},
{
name = top_low_1;
pos = (
435,
688
);
},
{
name = top_low_2;
pos = (
435,
668
);
},
{
name = top_low_3;
pos = (
435,
648
);
}
);
hints = (
{
name = "_cap.UC-thin-diagonal-flare";
options = 2;
type = Cap;
},
{
name = "_cap.UC-thin-diagonal-flare";
options = 2;
type = Cap;
},
{
name = "_corner.UC-right-diagonal-serif";
options = 1;
type = Corner;
},
{
name = "_corner.UC-left-diagonal-serif";
type = Corner;
},
{
name = "_corner.UC-left-diagonal-serif";
type = Corner;
},
{
name = "_corner.UC-right-diagonal-serif";
options = 1;
type = Corner;
}
);
shapes = (
{
closed = 1;
nodes = (
(
625.086,
3,
l
),
(
720.943,
0,
l
),
(
258.573,
708,
l
),
(
162.715,
705,
l
),
(
66.858,
708,
l
),
(
529.229,
0,
l
)
);
},
{
closed = 1;
nodes = (
(
140.966,
0,
l
),
(
369.735,
332,
l
),
(
314.154,
357,
l
),
(
70.08,
0,
l
)
);
},
{
closed = 1;
nodes = (
(
662.945,
708,
l
),
(
592.059,
708,
l
),
(
377.79,
400,
l
),
(
433.371,
375,
l
)
);
}
);
};
layerId = "8490621E-1D49-4E30-BAF4-01EC43CE7754";
name = "Cap & Corner";
shapes = (
{
closed = 1;
nodes = (
(
625.086,
3,
l
),
(
642.002,
2,
l
),
(
673.417,
3,
o
),
(
728.998,
2,
o
),
(
766.052,
0,
c
),
(
765.247,
70,
l
),
(
736.248,
73,
l
),
(
700,
77,
o
),
(
671.806,
76,
o
),
(
643.613,
118,
c
),
(
347.18,
573,
l
),
(
310.932,
628,
o
),
(
304.487,
630,
o
),
(
348.791,
634,
c
),
(
375.374,
637,
l
),
(
375.374,
707,
l
),
(
319.792,
705,
o
),
(
231.99,
705,
o
),
(
182.853,
706,
c
),
(
162.715,
705,
l
),
(
145.799,
706,
l
),
(
114.384,
705,
o
),
(
58.803,
706,
o
),
(
21.749,
708,
c
),
(
22.554,
638,
l
),
(
51.553,
635,
l
),
(
87.802,
631,
o
),
(
115.995,
632,
o
),
(
144.188,
590,
c
),
(
440.621,
135,
l
),
(
476.869,
80,
o
),
(
483.314,
78,
o
),
(
439.01,
74,
c
),
(
412.428,
71,
l
),
(
412.428,
1,
l
),
(
468.009,
3,
o
),
(
555.811,
3,
o
),
(
604.948,
2,
c
)
);
},
{
closed = 1;
nodes = (
(
369.735,
332,
l
),
(
314.154,
357,
l
),
(
181.242,
163,
l
),
(
128.883,
86,
o
),
(
79.746,
80,
o
),
(
15.304,
72,
c
),
(
0,
70,
l
),
(
0,
0,
l
),
(
37.859,
2,
o
),
(
81.357,
3,
o
),
(
124.856,
3,
c
),
(
167.548,
3,
o
),
(
217.491,
2,
o
),
(
268.239,
0,
c
),
(
268.239,
70,
l
),
(
246.49,
73,
l
),
(
186.075,
81,
o
),
(
201.38,
100,
o
),
(
248.906,
170,
c
)
);
},
{
closed = 1;
nodes = (
(
550.978,
546,
l
),
(
603.337,
623,
o
),
(
653.279,
628,
o
),
(
717.721,
636,
c
),
(
733.026,
638,
l
),
(
733.026,
708,
l
),
(
695.166,
706,
o
),
(
651.668,
705,
o
),
(
608.17,
705,
c
),
(
565.477,
705,
o
),
(
515.535,
706,
o
),
(
464.787,
708,
c
),
(
464.787,
638,
l
),
(
486.536,
635,
l
),
(
546.95,
627,
o
),
(
530.84,
609,
o
),
(
483.314,
539,
c
),
(
377.79,
400,
l
),
(
433.371,
375,
l
)
);
}
);
width = 700;
}
);
metricRight = "=|";
unicode = 88;
}
{
color = 6;
glyphname = bracketleft;
kernRight = KO_bracketleft;
layers = (
{
guides = (
{
pos = (
631.5,
772
);
}
);
layerId = "DF17D77B-A5C4-4843-826A-BC0F1C4CB224";
shapes = (
{
closed = 1;
nodes = (
(
435.5,
-181,
l
),
(
435.5,
-180,
l
),
(
354.5,
-180,
l
),
(
354.5,
771,
l
),
(
435.5,
771,
l
),
(
435.5,
772,
l
),
(
264.5,
772,
l
),
(
264.5,
-181,
l
)
);
}
);
width = 700;
},
{
guides = (
{
pos = (
631.5,
772
);
}
);
layerId = "7300F074-2CFD-43CC-B20F-1BF1EAE6C2C7";
shapes = (
{
closed = 1;
nodes = (
(
435.5,
-181,
l
),
(
435.5,
-112,
l
),
(
354.5,
-112,
l
),
(
354.5,
703,
l
),
(
435.5,
703,
l
),
(
435.5,
772,
l
),
(
264.5,
772,
l
),
(
264.5,
-181,
l
)
);
}
);
width = 700;
},
{
guides = (
{
pos = (
620.5,
772
);
}
);
layerId = "F497C50F-30EB-4580-9148-0005B36D0333";
shapes = (
{
closed = 1;
nodes = (
(
460.5,
-181,
l
),
(
460.5,
-180,
l
),
(
419.5,
-180,
l
),
(
419.5,
771,
l
),
(
460.5,
771,
l
),
(
460.5,
772,
l
),
(
239.5,
772,
l
),
(
239.5,
-181,
l
)
);
}
);
width = 700;
},
{
guides = (
{
pos = (
620.5,
772
);
}
);
layerId = "29EF49B2-C370-4E88-B36E-A4ACD23E3F3A";
shapes = (
{
closed = 1;
nodes = (
(
460.5,
-181,
l
),
(
460.5,
-112,
l
),
(
419.5,
-112,
l
),
(
419.5,
703,
l
),
(
460.5,
703,
l
),
(
460.5,
772,
l
),
(
239.5,
772,
l
),
(
239.5,
-181,
l
)
);
}
);
width = 700;
}
);
unicode = 91;
userData = {
KernOnSpecialSpacing = {
L = parenthesis;
R = parenthesis;
};
};
}
{
color = 5;
glyphname = backslash;
layers = (
{
layerId = "DF17D77B-A5C4-4843-826A-BC0F1C4CB224";
shapes = (
{
closed = 1;
nodes = (
(
215,
722,
l
),
(
213,
722,
l
),
(
485,
-14,
l
),
(
487,
-14,
l
)
);
}
);
width = 700;
},
{
layerId = "7300F074-2CFD-43CC-B20F-1BF1EAE6C2C7";
shapes = (
{
closed = 1;
nodes = (
(
255.5,
722,
l
),
(
172.5,
722,
l
),
(
444.5,
-14,
l
),
(
527.5,
-14,
l
)
);
}
);
width = 700;
},
{
layerId = "F497C50F-30EB-4580-9148-0005B36D0333";
shapes = (
{
closed = 1;
nodes = (
(
214.5,
722,
l
),
(
213.5,
722,
l
),
(
485.5,
-14,
l
),
(
486.5,
-14,
l
)
);
}
);
width = 700;
},
{
layerId = "29EF49B2-C370-4E88-B36E-A4ACD23E3F3A";
shapes = (
{
closed = 1;
nodes = (
(
255.5,
722,
l
),
(
172.5,
722,
l
),
(
444.5,
-14,
l
),
(
527.5,
-14,
l
)
);
}
);
width = 700;
}
);
metricLeft = "=|slash";
metricRight = "=|slash";
unicode = 92;
userData = {
KernOnSpecialSpacing = {
L = NoKerning;
R = NoKerning;
};
};
}
{
color = 5;
glyphname = underscore;
layers = (
{
layerId = "DF17D77B-A5C4-4843-826A-BC0F1C4CB224";
shapes = (
{
closed = 1;
nodes = (
(
576.5,
-126,
l
),
(
576.5,
-125,
l
),
(
123.5,
-125,
l
),
(
123.5,
-126,
l
)
);
}
);
width = 700;
},
{
layerId = "7300F074-2CFD-43CC-B20F-1BF1EAE6C2C7";
shapes = (
{
closed = 1;
nodes = (
(
589.5,
-170,
l
),
(
589.5,
-80,
l
),
(
110.5,
-80,
l
),
(
110.5,
-170,
l
)
);
}
);
width = 700;
},
{
layerId = "F497C50F-30EB-4580-9148-0005B36D0333";
shapes = (
{
closed = 1;
nodes = (
(
608.5,
-118.2,
l
),
(
608.5,
-117.4,
l
),
(
91.5,
-117.4,
l
),
(
91.5,
-118.2,
l
)
);
}
);
width = 700;
},
{
layerId = "29EF49B2-C370-4E88-B36E-A4ACD23E3F3A";
shapes = (
{
closed = 1;
nodes = (
(
608.5,
-154.2,
l
),
(
608.5,
-82.2,
l
),
(
91.5,
-82.2,
l
),
(
91.5,
-154.2,
l
)
);
}
);
width = 700;
}
);
metricLeft = hyphen;
metricRight = hyphen;
unicode = 95;
userData = {
KernOnSpecialSpacing = {
L = NoKerning;
R = NoKerning;
};
};
}
{
glyphname = c;
kernLeft = KO_o;
kernRight = KO_c;
layers = (
{
anchors = (
{
name = bottom;
pos = (
369.5,
0
);
},
{
name = center;
pos = (
379.5,
257
);
},
{
name = currency;
pos = (
375.5,
0
);
},
{
name = hook;
pos = (
484.5,
514
);
},
{
name = top;
pos = (
364.5,
512
);
}
);
layerId = "DF17D77B-A5C4-4843-826A-BC0F1C4CB224";
shapes = (
{
closed = 1;
nodes = (
(
455.5,
-14,
o
),
(
526.5,
39,
o
),
(
552.5,
125,
c
),
(
551.5,
125,
l
),
(
524.5,
46,
o
),
(
469.5,
1,
o
),
(
400.5,
1,
cs
),
(
301.5,
1,
o
),
(
244.5,
98,
o
),
(
244.5,
265,
cs
),
(
244.5,
431,
o
),
(
298.5,
527,
o
),
(
390.5,
527,
cs
),
(
439.5,
527,
o
),
(
480.5,
506,
o
),
(
480.5,
480,
cs
),
(
480.5,
454,
o
),
(
450.5,
435,
o
),
(
450.5,
397,
cs
),
(
450.5,
374,
o
),
(
468.5,
358,
o
),
(
493.5,
358,
cs
),
(
524.5,
358,
o
),
(
545.5,
381,
o
),
(
545.5,
414,
cs
),
(
545.5,
477,
o
),
(
470.5,
529,
o
),
(
379.5,
529,
cs
),
(
243.5,
529,
o
),
(
147.5,
414,
o
),
(
147.5,
252,
cs
),
(
147.5,
95,
o
),
(
237.5,
-14,
o
),
(
366.5,
-14,
cs
)
);
}
);
width = 700;
},
{
anchors = (
{
name = bottom;
pos = (
355,
0
);
},
{
name = center;
pos = (
352,
257
);
},
{
name = currency;
pos = (
356,
0
);
},
{
name = hook;
pos = (
467,
514
);
},
{
name = top;
pos = (
350,
512
);
}
);
guides = (
{
pos = (
78,
461
);
}
);
layerId = "7300F074-2CFD-43CC-B20F-1BF1EAE6C2C7";
shapes = (
{
closed = 1;
nodes = (
(
460,
-14,
o
),
(
538,
38,
o
),
(
567,
125,
c
),
(
501,
158,
l
),
(
471,
98,
o
),
(
429,
71,
o
),
(
370,
71,
cs
),
(
277,
71,
o
),
(
230,
137,
o
),
(
230,
266,
cs
),
(
230,
397,
o
),
(
279,
461,
o
),
(
381,
461,
cs
),
(
421,
461,
o
),
(
446,
451,
o
),
(
446,
434,
cs
),
(
446,
415,
o
),
(
416,
396,
o
),
(
416,
360,
cs
),
(
416,
326,
o
),
(
442,
302,
o
),
(
481,
302,
cs
),
(
528,
302,
o
),
(
561,
337,
o
),
(
561,
389,
cs
),
(
561,
471,
o
),
(
479,
529,
o
),
(
363,
529,
cs
),
(
216,
529,
o
),
(
133,
431,
o
),
(
133,
258,
cs
),
(
133,
86,
o
),
(
216,
-14,
o
),
(
359,
-14,
cs
)
);
}
);
width = 700;
},
{
anchors = (
{
name = bottom;
pos = (
370,
0
);
},
{
name = center;
pos = (
383,
259
);
},
{
name = currency;
pos = (
362,
0
);
},
{
name = hook;
pos = (
478,
519
);
},
{
name = top;
pos = (
366,
520
);
}
);
layerId = "F497C50F-30EB-4580-9148-0005B36D0333";
shapes = (
{
closed = 1;
nodes = (
(
463,
-14,
o
),
(
537,
43,
o
),
(
575,
156,
c
),
(
574,
156,
l
),
(
546,
81,
o
),
(
506,
46,
o
),
(
447,
46,
cs
),
(
358,
46,
o
),
(
312,
126,
o
),
(
312,
280,
cs
),
(
312,
430,
o
),
(
356,
527,
o
),
(
425,
527,
cs
),
(
450,
527,
o
),
(
465,
515,
o
),
(
465,
495,
cs
),
(
465,
451,
o
),
(
396,
430,
o
),
(
396,
373,
cs
),
(
396,
336,
o
),
(
425,
312,
o
),
(
470,
312,
cs
),
(
525,
312,
o
),
(
563,
348,
o
),
(
563,
401,
cs
),
(
563,
481,
o
),
(
489,
533,
o
),
(
376,
533,
cs
),
(
218,
533,
o
),
(
125,
430,
o
),
(
125,
256,
cs
),
(
125,
88,
o
),
(
212,
-14,
o
),
(
356,
-14,
cs
)
);
}
);
width = 700;
},
{
anchors = (
{
name = bottom;
pos = (
370,
0
);
},
{
name = center;
pos = (
363,
259
);
},
{
name = currency;
pos = (
357,
0
);
},
{
name = hook;
pos = (
461,
519
);
},
{
name = top;
pos = (
366,
520
);
}
);
layerId = "29EF49B2-C370-4E88-B36E-A4ACD23E3F3A";
shapes = (
{
closed = 1;
nodes = (
(
463,
-14,
o
),
(
537,
43,
o
),
(
575,
156,
c
),
(
507,
186,
l
),
(
482,
128,
o
),
(
452,
96,
o
),
(
406,
96,
cs
),
(
346,
96,
o
),
(
312,
162,
o
),
(
312,
277,
cs
),
(
312,
385,
o
),
(
352,
454,
o
),
(
415,
454,
cs
),
(
434,
454,
o
),
(
445,
446,
o
),
(
445,
432,
cs
),
(
445,
396,
o
),
(
396,
375,
o
),
(
396,
327,
cs
),
(
396,
295,
o
),
(
422,
272,
o
),
(
464,
272,
cs
),
(
530,
272,
o
),
(
563,
324,
o
),
(
563,
381,
cs
),
(
563,
471,
o
),
(
489,
533,
o
),
(
376,
533,
cs
),
(
218,
533,
o
),
(
125,
430,
o
),
(
125,
256,
cs
),
(
125,
88,
o
),
(
212,
-14,
o
),
(
356,
-14,
cs
)
);
}
);
width = 700;
}
);
metricLeft = o;
unicode = 99;
userData = {
KernOnName = c;
};
}
{
glyphname = g;
kernLeft = KO_g;
kernRight = KO_g;
layers = (
{
anchors = (
{
name = bottom;
pos = (
334,
-231
);
},
{
name = center;
pos = (
331,
0
);
},
{
name = top;
pos = (
319,
512
);
}
);
guides = (
{
locked = 1;
pos = (
-107,
529
);
}
);
layerId = "DF17D77B-A5C4-4843-826A-BC0F1C4CB224";
shapes = (
{
closed = 1;
nodes = (
(
453,
-239,
o
),
(
565,
-151,
o
),
(
565,
-29,
cs
),
(
565,
55,
o
),
(
510,
100,
o
),
(
408,
100,
cs
),
(
293,
100,
ls
),
(
252,
100,
o
),
(
230,
116,
o
),
(
230,
146,
cs
),
(
230,
172,
o
),
(
246,
192,
o
),
(
285,
214,
c
),
(
283,
214,
l
),
(
213,
181,
o
),
(
176,
140,
o
),
(
176,
95,
cs
),
(
176,
45,
o
),
(
220,
16,
o
),
(
296,
16,
cs
),
(
380,
16,
ls
),
(
458,
16,
o
),
(
496,
-15,
o
),
(
496,
-77,
cs
),
(
496,
-167,
o
),
(
416,
-237,
o
),
(
313,
-237,
cs
),
(
225,
-237,
o
),
(
176,
-188,
o
),
(
176,
-101,
cs
),
(
176,
-42,
o
),
(
198,
7,
o
),
(
234,
27,
c
),
(
234,
28,
l
),
(
142,
-1,
o
),
(
94,
-50,
o
),
(
94,
-113,
cs
),
(
94,
-189,
o
),
(
174,
-239,
o
),
(
298,
-239,
cs
)
);
},
{
closed = 1;
nodes = (
(
413,
213,
o
),
(
478,
271,
o
),
(
478,
371,
cs
),
(
478,
471,
o
),
(
413,
529,
o
),
(
303,
529,
cs
),
(
193,
529,
o
),
(
128,
471,
o
),
(
128,
371,
cs
),
(
128,
271,
o
),
(
193,
213,
o
),
(
303,
213,
cs
)
);
},
{
closed = 1;
nodes = (
(
247,
214,
o
),
(
222,
263,
o
),
(
222,
371,
cs
),
(
222,
479,
o
),
(
247,
528,
o
),
(
303,
528,
cs
),
(
359,
528,
o
),
(
384,
479,
o
),
(
384,
371,
cs
),
(
384,
263,
o
),
(
359,
214,
o
),
(
303,
214,
cs
)
);
},
{
closed = 1;
nodes = (
(
592,
425,
o
),
(
606,
443,
o
),
(
606,
471,
cs
),
(
606,
507,
o
),
(
584,
529,
o
),
(
548,
529,
cs
),
(
502,
529,
o
),
(
449,
491,
o
),
(
429,
443,
c
),
(
431,
443,
l
),
(
446,
484,
o
),
(
495,
517,
o
),
(
507,
517,
cs
),
(
535,
517,
o
),
(
523,
425,
o
),
(
571,
425,
cs
)
);
}
);
width = 700;
},
{
anchors = (
{
name = bottom;
pos = (
324,
-231
);
},
{
name = center;
pos = (
331,
0
);
},
{
name = top;
pos = (
314,
512
);
}
);
guides = (
{
locked = 1;
pos = (
-117,
529
);
},
{
angle = 90;
pos = (
108,
145
);
}
);
layerId = "7300F074-2CFD-43CC-B20F-1BF1EAE6C2C7";
shapes = (
{
closed = 1;
nodes = (
(
441,
-239,
o
),
(
555,
-154,
o
),
(
555,
-37,
cs
),
(
555,
45,
o
),
(
499,
90,
o
),
(
398,
90,
cs
),
(
313,
90,
ls
),
(
274,
90,
o
),
(
255,
101,
o
),
(
255,
123,
cs
),
(
255,
143,
o
),
(
267,
159,
o
),
(
289,
172,
c
),
(
227,
181,
l
),
(
186,
156,
o
),
(
166,
127,
o
),
(
166,
93,
cs
),
(
166,
40,
o
),
(
217,
6,
o
),
(
296,
6,
cs
),
(
390,
6,
ls
),
(
435,
6,
o
),
(
456,
-13,
o
),
(
456,
-52,
cs
),
(
456,
-122,
o
),
(
389,
-172,
o
),
(
294,
-172,
cs
),
(
220,
-172,
o
),
(
176,
-141,
o
),
(
176,
-89,
cs
),
(
176,
-45,
o
),
(
206,
-4,
o
),
(
250,
15,
c
),
(
204,
51,
l
),
(
124,
14,
o
),
(
84,
-38,
o
),
(
84,
-103,
cs
),
(
84,
-187,
o
),
(
161,
-239,
o
),
(
286,
-239,
cs
)
);
},
{
closed = 1;
nodes = (
(
417,
163,
o
),
(
488,
231,
o
),
(
488,
346,
cs
),
(
488,
461,
o
),
(
417,
529,
o
),
(
298,
529,
cs
),
(
179,
529,
o
),
(
108,
461,
o
),
(
108,
346,
cs
),
(
108,
231,
o
),
(
179,
163,
o
),
(
298,
163,
cs
)
);
},
{
closed = 1;
nodes = (
(
232,
231,
o
),
(
202,
267,
o
),
(
202,
346,
cs
),
(
202,
425,
o
),
(
232,
461,
o
),
(
298,
461,
cs
),
(
364,
461,
o
),
(
394,
425,
o
),
(
394,
346,
cs
),
(
394,
267,
o
),
(
364,
231,
o
),
(
298,
231,
cs
)
);
},
{
closed = 1;
nodes = (
(
597,
375,
o
),
(
616,
403,
o
),
(
616,
448,
cs
),
(
616,
500,
o
),
(
591,
529,
o
),
(
548,
529,
cs
),
(
507,
529,
o
),
(
459,
502,
o
),
(
429,
463,
c
),
(
457,
416,
l
),
(
474,
436,
o
),
(
491,
449,
o
),
(
501,
449,
cs
),
(
525,
449,
o
),
(
516,
375,
o
),
(
566,
375,
cs
)
);
}
);
width = 700;
},
{
anchors = (
{
name = bottom;
pos = (
345.5,
-231
);
},
{
name = center;
pos = (
323.5,
0
);
},
{
name = top;
pos = (
311.5,
520
);
}
);
guides = (
{
locked = 1;
pos = (
-99.5,
533
);
}
);
layerId = "F497C50F-30EB-4580-9148-0005B36D0333";
shapes = (
{
closed = 1;
nodes = (
(
471.5,
-239,
o
),
(
596.5,
-152,
o
),
(
596.5,
-18,
cs
),
(
596.5,
78,
o
),
(
531.5,
130,
o
),
(
409.5,
130,
cs
),
(
302.5,
130,
ls
),
(
255.5,
130,
o
),
(
228.5,
147,
o
),
(
228.5,
178,
cs
),
(
228.5,
191,
o
),
(
232.5,
203,
o
),
(
244.5,
218,
c
),
(
243.5,
218,
l
),
(
163.5,
177,
o
),
(
127.5,
135,
o
),
(
127.5,
83,
cs
),
(
127.5,
23,
o
),
(
183.5,
-16,
o
),
(
267.5,
-16,
cs
),
(
351.5,
-16,
ls
),
(
419.5,
-16,
o
),
(
457.5,
-45,
o
),
(
457.5,
-97,
cs
),
(
457.5,
-179,
o
),
(
395.5,
-237,
o
),
(
306.5,
-237,
cs
),
(
227.5,
-237,
o
),
(
185.5,
-191,
o
),
(
185.5,
-105,
cs
),
(
185.5,
-65,
o
),
(
193.5,
-33,
o
),
(
205.5,
-7,
c
),
(
204.5,
-7,
l
),
(
109.5,
-32,
o
),
(
55.5,
-75,
o
),
(
55.5,
-130,
cs
),
(
55.5,
-197,
o
),
(
141.5,
-239,
o
),
(
277.5,
-239,
cs
)
);
},
{
closed = 1;
nodes = (
(
439.5,
213,
o
),
(
515.5,
271,
o
),
(
515.5,
373,
cs
),
(
515.5,
475,
o
),
(
439.5,
533,
o
),
(
308.5,
533,
cs
),
(
174.5,
533,
o
),
(
95.5,
473,
o
),
(
95.5,
373,
cs
),
(
95.5,
273,
o
),
(
174.5,
213,
o
),
(
308.5,
213,
cs
)
);
},
{
closed = 1;
nodes = (
(
274.5,
214,
o
),
(
249.5,
264,
o
),
(
249.5,
373,
cs
),
(
249.5,
482,
o
),
(
275.5,
532,
o
),
(
310.5,
532,
cs
),
(
345.5,
532,
o
),
(
371.5,
482,
o
),
(
371.5,
373,
cs
),
(
371.5,
264,
o
),
(
344.5,
214,
o
),
(
308.5,
214,
cs
)
);
},
{
closed = 1;
nodes = (
(
626.5,
406,
o
),
(
644.5,
430,
o
),
(
644.5,
465,
cs
),
(
644.5,
508,
o
),
(
618.5,
533,
o
),
(
575.5,
533,
cs
),
(
522.5,
533,
o
),
(
473.5,
496,
o
),
(
452.5,
440,
c
),
(
453.5,
440,
l
),
(
475.5,
493,
o
),
(
509.5,
514,
o
),
(
523.5,
514,
cs
),
(
551.5,
514,
o
),
(
545.5,
406,
o
),
(
600.5,
406,
cs
)
);
}
);
width = 700;
},
{
anchors = (
{
name = bottom;
pos = (
345.5,
-231
);
},
{
name = center;
pos = (
341.5,
0
);
},
{
name = top;
pos = (
311.5,
520
);
}
);
guides = (
{
locked = 1;
pos = (
-99.5,
533
);
}
);
layerId = "29EF49B2-C370-4E88-B36E-A4ACD23E3F3A";
shapes = (
{
closed = 1;
nodes = (
(
471.5,
-239,
o
),
(
596.5,
-152,
o
),
(
596.5,
-18,
cs
),
(
596.5,
78,
o
),
(
531.5,
130,
o
),
(
409.5,
130,
cs
),
(
327.5,
130,
ls
),
(
285.5,
130,
o
),
(
261.5,
144,
o
),
(
261.5,
169,
cs
),
(
261.5,
185,
o
),
(
269.5,
200,
o
),
(
293.5,
218,
c
),
(
234.5,
226,
l
),
(
160.5,
182,
o
),
(
127.5,
138,
o
),
(
127.5,
83,
cs
),
(
127.5,
23,
o
),
(
183.5,
-16,
o
),
(
267.5,
-16,
cs
),
(
391.5,
-16,
ls
),
(
437.5,
-16,
o
),
(
457.5,
-36,
o
),
(
457.5,
-73,
cs
),
(
457.5,
-131,
o
),
(
395.5,
-172,
o
),
(
306.5,
-172,
cs
),
(
227.5,
-172,
o
),
(
185.5,
-140,
o
),
(
185.5,
-82,
cs
),
(
185.5,
-50,
o
),
(
198.5,
-21,
o
),
(
223.5,
0,
c
),
(
188.5,
16,
l
),
(
102.5,
-12,
o
),
(
55.5,
-54,
o
),
(
55.5,
-115,
cs
),
(
55.5,
-180,
o
),
(
121.5,
-239,
o
),
(
277.5,
-239,
cs
)
);
},
{
closed = 1;
nodes = (
(
439.5,
213,
o
),
(
515.5,
271,
o
),
(
515.5,
373,
cs
),
(
515.5,
475,
o
),
(
439.5,
533,
o
),
(
308.5,
533,
cs
),
(
174.5,
533,
o
),
(
95.5,
473,
o
),
(
95.5,
373,
cs
),
(
95.5,
273,
o
),
(
174.5,
213,
o
),
(
308.5,
213,
cs
)
);
},
{
closed = 1;
nodes = (
(
275.5,
281,
o
),
(
259.5,
310,
o
),
(
259.5,
373,
cs
),
(
259.5,
436,
o
),
(
275.5,
465,
o
),
(
310.5,
465,
cs
),
(
345.5,
465,
o
),
(
361.5,
436,
o
),
(
361.5,
373,
cs
),
(
361.5,
310,
o
),
(
345.5,
281,
o
),
(
310.5,
281,
cs
)
);
},
{
closed = 1;
nodes = (
(
622.5,
381,
o
),
(
644.5,
411,
o
),
(
644.5,
455,
cs
),
(
644.5,
504,
o
),
(
610.5,
533,
o
),
(
562.5,
533,
cs
),
(
515.5,
533,
o
),
(
475.5,
508,
o
),
(
442.5,
470,
c
),
(
473.5,
408,
l
),
(
486.5,
433,
o
),
(
502.5,
450,
o
),
(
514.5,
450,
cs
),
(
554.5,
450,
o
),
(
539.5,
381,
o
),
(
590.5,
381,
cs
)
);
}
);
width = 700;
},
{
anchors = (
{
name = bottom;
pos = (
361.5,
-231
);
},
{
name = center;
pos = (
357.5,
0
);
},
{
name = top;
pos = (
327.5,
520
);
}
);
associatedMasterId = "29EF49B2-C370-4E88-B36E-A4ACD23E3F3A";
attr = {
axisRules = (
{
max = 400;
},
{},
{}
);
};
guides = (
{
locked = 1;
pos = (
-83.5,
533
);
}
);
layerId = "5A668A61-ABA6-4596-B52B-4E966B495C4B";
name = "10 Jan 22, 16:31";
shapes = (
{
closed = 1;
nodes = (
(
487.5,
-239,
o
),
(
612.5,
-152,
o
),
(
612.5,
-18,
cs
),
(
612.5,
78,
o
),
(
547.5,
130,
o
),
(
425.5,
130,
cs
),
(
343.5,
130,
ls
),
(
301.5,
130,
o
),
(
277.5,
144,
o
),
(
277.5,
169,
cs
),
(
277.5,
185,
o
),
(
285.5,
200,
o
),
(
309.5,
218,
c
),
(
250.5,
226,
l
),
(
176.5,
182,
o
),
(
143.5,
138,
o
),
(
143.5,
83,
cs
),
(
143.5,
23,
o
),
(
199.5,
-16,
o
),
(
283.5,
-16,
cs
),
(
407.5,
-16,
ls
),
(
453.5,
-16,
o
),
(
473.5,
-36,
o
),
(
473.5,
-73,
cs
),
(
473.5,
-131,
o
),
(
411.5,
-172,
o
),
(
322.5,
-172,
cs
),
(
243.5,
-172,
o
),
(
201.5,
-140,
o
),
(
201.5,
-82,
cs
),
(
201.5,
-50,
o
),
(
214.5,
-21,
o
),
(
239.5,
0,
c
),
(
204.5,
16,
l
),
(
118.5,
-12,
o
),
(
71.5,
-54,
o
),
(
71.5,
-115,
cs
),
(
71.5,
-180,
o
),
(
137.5,
-239,
o
),
(
293.5,
-239,
cs
)
);
},
{
closed = 1;
nodes = (
(
455.5,
213,
o
),
(
531.5,
271,
o
),
(
531.5,
373,
cs
),
(
531.5,
475,
o
),
(
455.5,
533,
o
),
(
324.5,
533,
cs
),
(
190.5,
533,
o
),
(
111.5,
473,
o
),
(
111.5,
373,
cs
),
(
111.5,
273,
o
),
(
190.5,
213,
o
),
(
324.5,
213,
cs
)
);
},
{
closed = 1;
nodes = (
(
291.5,
281,
o
),
(
275.5,
310,
o
),
(
275.5,
373,
cs
),
(
275.5,
436,
o
),
(
291.5,
465,
o
),
(
326.5,
465,
cs
),
(
361.5,
465,
o
),
(
377.5,
436,
o
),
(
377.5,
373,
cs
),
(
377.5,
310,
o
),
(
361.5,
281,
o
),
(
326.5,
281,
cs
)
);
},
{
closed = 1;
nodes = (
(
628.5,
449,
l
),
(
628.5,
519,
l
),
(
346.5,
519,
l
),
(
436.5,
449,
l
)
);
}
);
width = 700;
},
{
anchors = (
{
name = bottom;
pos = (
336,
-231
);
},
{
name = center;
pos = (
343,
0
);
},
{
name = top;
pos = (
316,
512
);
}
);
associatedMasterId = "7300F074-2CFD-43CC-B20F-1BF1EAE6C2C7";
attr = {
axisRules = (
{
max = 400;
},
{},
{}
);
};
guides = (
{
locked = 1;
pos = (
-105,
529
);
},
{
angle = 90;
pos = (
120,
145
);
}
);
layerId = "5FEF5780-7366-4B2D-AC97-FFC009EC8B74";
name = "10 Jan 22, 16:31";
shapes = (
{
closed = 1;
nodes = (
(
453,
-239,
o
),
(
567,
-154,
o
),
(
567,
-37,
cs
),
(
567,
45,
o
),
(
511,
90,
o
),
(
410,
90,
cs
),
(
325,
90,
ls
),
(
286,
90,
o
),
(
267,
101,
o
),
(
267,
123,
cs
),
(
267,
143,
o
),
(
279,
159,
o
),
(
301,
172,
c
),
(
239,
181,
l
),
(
198,
156,
o
),
(
178,
127,
o
),
(
178,
93,
cs
),
(
178,
40,
o
),
(
229,
6,
o
),
(
308,
6,
cs
),
(
402,
6,
ls
),
(
447,
6,
o
),
(
468,
-13,
o
),
(
468,
-52,
cs
),
(
468,
-122,
o
),
(
401,
-172,
o
),
(
306,
-172,
cs
),
(
232,
-172,
o
),
(
188,
-141,
o
),
(
188,
-89,
cs
),
(
188,
-45,
o
),
(
218,
-4,
o
),
(
262,
15,
c
),
(
216,
51,
l
),
(
136,
14,
o
),
(
96,
-38,
o
),
(
96,
-103,
cs
),
(
96,
-187,
o
),
(
173,
-239,
o
),
(
298,
-239,
cs
)
);
},
{
closed = 1;
nodes = (
(
429,
163,
o
),
(
500,
231,
o
),
(
500,
346,
cs
),
(
500,
461,
o
),
(
429,
529,
o
),
(
310,
529,
cs
),
(
191,
529,
o
),
(
120,
461,
o
),
(
120,
346,
cs
),
(
120,
231,
o
),
(
191,
163,
o
),
(
310,
163,
cs
)
);
},
{
closed = 1;
nodes = (
(
244,
231,
o
),
(
214,
267,
o
),
(
214,
346,
cs
),
(
214,
425,
o
),
(
244,
461,
o
),
(
310,
461,
cs
),
(
376,
461,
o
),
(
406,
425,
o
),
(
406,
346,
cs
),
(
406,
267,
o
),
(
376,
231,
o
),
(
310,
231,
cs
)
);
},
{
closed = 1;
nodes = (
(
604,
444,
l
),
(
604,
514,
l
),
(
332,
514,
l
),
(
422,
444,
l
)
);
}
);
width = 700;
},
{
anchors = (
{
name = bottom;
pos = (
357,
-231
);
},
{
name = center;
pos = (
335,
0
);
},
{
name = top;
pos = (
323,
520
);
}
);
associatedMasterId = "F497C50F-30EB-4580-9148-0005B36D0333";
attr = {
axisRules = (
{
max = 400;
},
{},
{}
);
};
guides = (
{
locked = 1;
pos = (
-88,
533
);
}
);
layerId = "D84007D0-4D29-4B81-AFA0-2BC7FDFFFC11";
name = "10 Jan 22, 16:31";
shapes = (
{
closed = 1;
nodes = (
(
483,
-239,
o
),
(
608,
-152,
o
),
(
608,
-18,
cs
),
(
608,
78,
o
),
(
543,
130,
o
),
(
421,
130,
cs
),
(
314,
130,
ls
),
(
267,
130,
o
),
(
240,
147,
o
),
(
240,
178,
cs
),
(
240,
191,
o
),
(
244,
203,
o
),
(
256,
218,
c
),
(
255,
218,
l
),
(
175,
177,
o
),
(
139,
135,
o
),
(
139,
83,
cs
),
(
139,
23,
o
),
(
195,
-16,
o
),
(
279,
-16,
cs
),
(
363,
-16,
ls
),
(
431,
-16,
o
),
(
469,
-45,
o
),
(
469,
-97,
cs
),
(
469,
-179,
o
),
(
407,
-237,
o
),
(
318,
-237,
cs
),
(
239,
-237,
o
),
(
197,
-191,
o
),
(
197,
-105,
cs
),
(
197,
-65,
o
),
(
205,
-33,
o
),
(
217,
-7,
c
),
(
216,
-7,
l
),
(
121,
-32,
o
),
(
67,
-75,
o
),
(
67,
-130,
cs
),
(
67,
-197,
o
),
(
153,
-239,
o
),
(
289,
-239,
cs
)
);
},
{
closed = 1;
nodes = (
(
451,
213,
o
),
(
527,
271,
o
),
(
527,
373,
cs
),
(
527,
475,
o
),
(
451,
533,
o
),
(
320,
533,
cs
),
(
186,
533,
o
),
(
107,
473,
o
),
(
107,
373,
cs
),
(
107,
273,
o
),
(
186,
213,
o
),
(
320,
213,
cs
)
);
},
{
closed = 1;
nodes = (
(
286,
214,
o
),
(
261,
264,
o
),
(
261,
373,
cs
),
(
261,
482,
o
),
(
287,
532,
o
),
(
322,
532,
cs
),
(
357,
532,
o
),
(
383,
482,
o
),
(
383,
373,
cs
),
(
383,
264,
o
),
(
356,
214,
o
),
(
320,
214,
cs
)
);
},
{
closed = 1;
nodes = (
(
633,
518,
l
),
(
633,
519,
l
),
(
383,
519,
l
),
(
385,
518,
l
)
);
}
);
width = 700;
},
{
anchors = (
{
name = bottom;
pos = (
342,
-226
);
},
{
name = center;
pos = (
339,
0
);
},
{
name = top;
pos = (
327,
512
);
}
);
associatedMasterId = "DF17D77B-A5C4-4843-826A-BC0F1C4CB224";
attr = {
axisRules = (
{
max = 400;
},
{},
{}
);
};
guides = (
{
locked = 1;
pos = (
-99,
529
);
}
);
layerId = "D65B4FB1-5C9E-4BC6-92B5-B53B688E527F";
name = "10 Jan 22, 16:31";
shapes = (
{
closed = 1;
nodes = (
(
461,
-239,
o
),
(
573,
-151,
o
),
(
573,
-29,
cs
),
(
573,
55,
o
),
(
518,
100,
o
),
(
416,
100,
cs
),
(
301,
100,
ls
),
(
260,
100,
o
),
(
238,
116,
o
),
(
238,
146,
cs
),
(
238,
172,
o
),
(
254,
192,
o
),
(
293,
214,
c
),
(
291,
214,
l
),
(
221,
181,
o
),
(
184,
140,
o
),
(
184,
95,
cs
),
(
184,
45,
o
),
(
228,
16,
o
),
(
304,
16,
cs
),
(
388,
16,
ls
),
(
466,
16,
o
),
(
504,
-15,
o
),
(
504,
-77,
cs
),
(
504,
-167,
o
),
(
424,
-237,
o
),
(
321,
-237,
cs
),
(
233,
-237,
o
),
(
184,
-188,
o
),
(
184,
-101,
cs
),
(
184,
-42,
o
),
(
206,
7,
o
),
(
242,
27,
c
),
(
242,
28,
l
),
(
150,
-1,
o
),
(
102,
-50,
o
),
(
102,
-113,
cs
),
(
102,
-189,
o
),
(
182,
-239,
o
),
(
306,
-239,
cs
)
);
},
{
closed = 1;
nodes = (
(
421,
213,
o
),
(
486,
271,
o
),
(
486,
371,
cs
),
(
486,
471,
o
),
(
421,
529,
o
),
(
311,
529,
cs
),
(
201,
529,
o
),
(
136,
471,
o
),
(
136,
371,
cs
),
(
136,
271,
o
),
(
201,
213,
o
),
(
311,
213,
cs
)
);
},
{
closed = 1;
nodes = (
(
255,
214,
o
),
(
230,
263,
o
),
(
230,
371,
cs
),
(
230,
479,
o
),
(
255,
528,
o
),
(
311,
528,
cs
),
(
367,
528,
o
),
(
392,
479,
o
),
(
392,
371,
cs
),
(
392,
263,
o
),
(
367,
214,
o
),
(
311,
214,
cs
)
);
},
{
closed = 1;
nodes = (
(
598,
513,
l
),
(
598,
514,
l
),
(
376,
514,
l
),
(
378,
513,
l
)
);
}
);
width = 700;
}
);
unicode = 103;
userData = {
KernOnName = g;
};
}
{
color = 5;
glyphname = h;
kernLeft = KO_l;
kernRight = KO_n;
layers = (
{
anchors = (
{
name = "#entry";
pos = (
149.5,
256
);
},
{
name = "#exit";
pos = (
239.5,
256
);
},
{
name = "%entry";
pos = (
-71.5,
0
);
},
{
name = "%exit";
pos = (
149.5,
0
);
},
{
name = "^entry";
},
{
name = "^exit";
pos = (
330.5,
0
);
},
{
name = bottom;
pos = (
360.5,
0
);
},
{
name = reversedExit;
pos = (
239.5,
256
);
},
{
name = stem;
pos = (
149.5,
256
);
},
{
name = top;
pos = (
350.5,
512
);
}
);
layerId = "DF17D77B-A5C4-4843-826A-BC0F1C4CB224";
shapes = (
{
closed = 1;
nodes = (
(
194.5,
3,
l
),
(
194.5,
3,
l
),
(
235.5,
3,
o
),
(
272.5,
1,
o
),
(
315.5,
0,
c
),
(
315.5,
1,
l
),
(
304.5,
2,
l
),
(
256.5,
6,
o
),
(
239.5,
23,
o
),
(
239.5,
73,
c
),
(
239.5,
256,
l
),
(
149.5,
256,
l
),
(
149.5,
73,
l
),
(
149.5,
23,
o
),
(
132.5,
6,
o
),
(
84.5,
2,
c
),
(
73.5,
1,
l
),
(
73.5,
0,
l
),
(
116.5,
1,
o
),
(
153.5,
3,
o
),
(
194.5,
3,
c
)
);
},
{
closed = 1;
nodes = (
(
239.5,
256,
l
),
(
239.5,
773,
l
),
(
239.5,
785,
l
),
(
211.5,
775,
o
),
(
174.5,
771,
o
),
(
133.5,
771,
c
),
(
117.5,
771,
o
),
(
104.5,
771,
o
),
(
73.5,
773,
c
),
(
73.5,
772,
l
),
(
82.5,
771,
l
),
(
134.5,
765,
o
),
(
149.5,
749,
o
),
(
149.5,
700,
c
),
(
149.5,
256,
l
)
);
},
{
closed = 1;
nodes = (
(
550.5,
256,
l
),
(
550.5,
330,
ls
),
(
550.5,
458,
o
),
(
496.5,
529,
o
),
(
397.5,
529,
cs
),
(
306.5,
529,
o
),
(
247.5,
485,
o
),
(
214.5,
395,
c
),
(
215.5,
394,
l
),
(
245.5,
472,
o
),
(
295.5,
514,
o
),
(
357.5,
514,
cs
),
(
426.5,
514,
o
),
(
460.5,
458,
o
),
(
460.5,
346,
cs
),
(
460.5,
256,
l
)
);
},
{
closed = 1;
nodes = (
(
505.5,
3,
l
),
(
505.5,
3,
l
),
(
546.5,
3,
o
),
(
583.5,
1,
o
),
(
626.5,
0,
c
),
(
626.5,
1,
l
),
(
615.5,
2,
l
),
(
567.5,
6,
o
),
(
550.5,
23,
o
),
(
550.5,
73,
c
),
(
550.5,
256,
l
),
(
460.5,
256,
l
),
(
460.5,
73,
l
),
(
460.5,
23,
o
),
(
443.5,
6,
o
),
(
395.5,
2,
c
),
(
384.5,
1,
l
),
(
384.5,
0,
l
),
(
427.5,
1,
o
),
(
464.5,
3,
o
),
(
505.5,
3,
c
)
);
}
);
width = 700;
},
{
anchors = (
{
name = "#entry";
pos = (
162.533,
256
);
},
{
name = "#exit";
pos = (
245.646,
256
);
},
{
name = "%entry";
pos = (
-140.369,
0
);
},
{
name = "%exit";
pos = (
162.533,
0
);
},
{
name = "^entry";
},
{
name = "^exit";
pos = (
394.327,
0
);
},
{
name = bottom;
pos = (
357.388,
0
);
},
{
name = reversedExit;
pos = (
245.646,
256
);
},
{
name = stem;
pos = (
162.533,
256
);
},
{
name = top;
pos = (
348.153,
512
);
}
);
layerId = "7300F074-2CFD-43CC-B20F-1BF1EAE6C2C7";
shapes = (
{
closed = 1;
nodes = (
(
204.09,
3,
l
),
(
204.09,
3,
l
),
(
253.034,
3,
o
),
(
282.586,
1,
o
),
(
314.908,
0,
c
),
(
314.908,
70,
l
),
(
306.596,
71,
l
),
(
261.346,
76,
o
),
(
245.646,
100,
o
),
(
245.646,
162,
c
),
(
245.646,
256,
l
),
(
162.533,
256,
l
),
(
162.533,
162,
l
),
(
162.533,
101,
o
),
(
142.216,
80,
o
),
(
87.731,
75,
c
),
(
36.939,
70,
l
),
(
36.939,
0,
l
),
(
85.884,
1,
o
),
(
130.211,
3,
o
),
(
204.09,
3,
c
)
);
},
{
closed = 1;
nodes = (
(
245.646,
256,
l
),
(
245.646,
773,
l
),
(
245.646,
785,
l
),
(
208.707,
776,
o
),
(
161.609,
771,
o
),
(
99.736,
771,
c
),
(
76.649,
771,
o
),
(
53.562,
772,
o
),
(
36.939,
773,
c
),
(
36.939,
703,
l
),
(
87.731,
698,
l
),
(
142.216,
693,
o
),
(
162.533,
672,
o
),
(
162.533,
611,
c
),
(
162.533,
256,
l
)
);
},
{
closed = 1;
nodes = (
(
537.467,
256,
l
),
(
537.467,
361,
ls
),
(
537.467,
465,
o
),
(
482.058,
529,
o
),
(
391.557,
529,
cs
),
(
310.29,
529,
o
),
(
246.57,
468,
o
),
(
209.631,
343,
c
),
(
221.636,
309,
l
),
(
255.805,
403,
o
),
(
305.673,
447,
o
),
(
368.47,
447,
cs
),
(
422.955,
447,
o
),
(
454.354,
413,
o
),
(
454.354,
353,
cs
),
(
454.354,
256,
l
)
);
},
{
closed = 1;
nodes = (
(
495.91,
3,
l
),
(
495.91,
3,
l
),
(
569.789,
3,
o
),
(
614.116,
1,
o
),
(
663.061,
0,
c
),
(
663.061,
70,
l
),
(
612.269,
75,
l
),
(
557.784,
80,
o
),
(
537.467,
101,
o
),
(
537.467,
162,
c
),
(
537.467,
256,
l
),
(
454.354,
256,
l
),
(
454.354,
162,
l
),
(
454.354,
100,
o
),
(
438.654,
76,
o
),
(
393.404,
71,
c
),
(
385.092,
70,
l
),
(
385.092,
0,
l
),
(
417.414,
1,
o
),
(
446.966,
3,
o
),
(
495.91,
3,
c
)
);
}
);
width = 700;
},
{
anchors = (
{
name = "#entry";
pos = (
104.5,
260
);
},
{
name = "#exit";
pos = (
284.5,
260
);
},
{
name = "%entry";
pos = (
-84.5,
0
);
},
{
name = "%exit";
pos = (
104.5,
0
);
},
{
name = "^entry";
},
{
name = "^exit";
pos = (
351.5,
0
);
},
{
name = bottom;
pos = (
361.5,
0
);
},
{
name = reversedExit;
pos = (
284.5,
260
);
},
{
name = stem;
pos = (
104.5,
260
);
},
{
name = top;
pos = (
345.5,
520
);
}
);
layerId = "F497C50F-30EB-4580-9148-0005B36D0333";
shapes = (
{
closed = 1;
nodes = (
(
194.5,
3,
l
),
(
194.5,
3,
l
),
(
232.5,
3,
o
),
(
268.5,
3,
o
),
(
340.5,
0,
c
),
(
340.5,
1,
l
),
(
330.5,
2,
l
),
(
295.5,
6,
o
),
(
284.5,
24,
o
),
(
284.5,
73,
c
),
(
284.5,
260,
l
),
(
104.5,
260,
l
),
(
104.5,
73,
l
),
(
104.5,
24,
o
),
(
93.5,
6,
o
),
(
58.5,
2,
c
),
(
48.5,
1,
l
),
(
48.5,
0,
l
),
(
120.5,
3,
o
),
(
156.5,
3,
o
),
(
194.5,
3,
c
)
);
},
{
closed = 1;
nodes = (
(
284.5,
260,
l
),
(
284.5,
771,
l
),
(
284.5,
782,
l
),
(
236.5,
772,
o
),
(
193.5,
768,
o
),
(
148.5,
768,
c
),
(
118.5,
768,
o
),
(
89.5,
768,
o
),
(
48.5,
771,
c
),
(
48.5,
770,
l
),
(
56.5,
769,
l
),
(
93.5,
764,
o
),
(
104.5,
747,
o
),
(
104.5,
698,
c
),
(
104.5,
260,
l
)
);
},
{
closed = 1;
nodes = (
(
595.5,
260,
l
),
(
595.5,
378,
ls
),
(
595.5,
480,
o
),
(
543.5,
533,
o
),
(
441.5,
533,
cs
),
(
346.5,
533,
o
),
(
281.5,
492,
o
),
(
246.5,
392,
c
),
(
247.5,
391,
l
),
(
277.5,
469,
o
),
(
315.5,
502,
o
),
(
358.5,
502,
cs
),
(
397.5,
502,
o
),
(
415.5,
478,
o
),
(
415.5,
426,
cs
),
(
415.5,
260,
l
)
);
},
{
closed = 1;
nodes = (
(
505.5,
3,
l
),
(
505.5,
3,
l
),
(
543.5,
3,
o
),
(
579.5,
3,
o
),
(
651.5,
0,
c
),
(
651.5,
1,
l
),
(
641.5,
2,
l
),
(
606.5,
6,
o
),
(
595.5,
24,
o
),
(
595.5,
73,
c
),
(
595.5,
260,
l
),
(
415.5,
260,
l
),
(
415.5,
73,
l
),
(
415.5,
24,
o
),
(
404.5,
6,
o
),
(
369.5,
2,
c
),
(
359.5,
1,
l
),
(
359.5,
0,
l
),
(
431.5,
3,
o
),
(
467.5,
3,
o
),
(
505.5,
3,
c
)
);
}
);
width = 700;
},
{
anchors = (
{
name = "#entry";
pos = (
103.056,
260
);
},
{
name = "#exit";
pos = (
278.056,
260
);
},
{
name = "%entry";
pos = (
-141.944,
0
);
},
{
name = "%exit";
pos = (
103.056,
0
);
},
{
name = "^entry";
pos = (
-0.097,
0
);
},
{
name = "^exit";
pos = (
372.361,
0
);
},
{
name = bottom;
pos = (
347.083,
0
);
},
{
name = reversedExit;
pos = (
278.056,
260
);
},
{
name = stem;
pos = (
103.056,
260
);
},
{
name = top;
pos = (
337.361,
520
);
}
);
layerId = "29EF49B2-C370-4E88-B36E-A4ACD23E3F3A";
shapes = (
{
closed = 1;
nodes = (
(
190.556,
3,
l
),
(
190.556,
3,
l
),
(
243.444,
3,
o
),
(
285.25,
1,
o
),
(
325.889,
0,
c
),
(
325.889,
70,
l
),
(
316.556,
71.4,
l
),
(
286.028,
77.6,
o
),
(
278.056,
88.6,
o
),
(
278.056,
137,
c
),
(
278.056,
260,
l
),
(
103.056,
260,
l
),
(
103.056,
137,
l
),
(
103.056,
91,
o
),
(
94.306,
80,
o
),
(
42.778,
73,
c
),
(
19.444,
70,
l
),
(
19.444,
0,
l
),
(
70.972,
1,
o
),
(
124.444,
3,
o
),
(
190.556,
3,
c
)
);
},
{
closed = 1;
nodes = (
(
278.056,
260,
l
),
(
278.056,
771,
l
),
(
278.056,
782,
l
),
(
234.306,
774,
o
),
(
181.806,
769,
o
),
(
111.806,
769,
c
),
(
72.917,
769,
o
),
(
47.639,
770,
o
),
(
19.444,
771,
c
),
(
19.444,
701,
l
),
(
42.778,
698,
l
),
(
94.306,
691,
o
),
(
103.056,
680,
o
),
(
103.056,
634,
c
),
(
103.056,
260,
l
)
);
},
{
closed = 1;
nodes = (
(
596.944,
260,
l
),
(
596.944,
358,
ls
),
(
596.944,
473,
o
),
(
542.5,
533,
o
),
(
438.472,
533,
cs
),
(
346.111,
533,
o
),
(
280,
484,
o
),
(
231.389,
334,
c
),
(
251.806,
318,
l
),
(
280.972,
391,
o
),
(
313.056,
421,
o
),
(
357.778,
421,
cs
),
(
401.528,
421,
o
),
(
421.944,
397,
o
),
(
421.944,
347,
cs
),
(
421.944,
260,
l
)
);
},
{
closed = 1;
nodes = (
(
509.444,
3,
l
),
(
509.444,
3,
l
),
(
575.556,
3,
o
),
(
629.028,
1,
o
),
(
680.556,
0,
c
),
(
680.556,
70,
l
),
(
657.222,
73,
l
),
(
605.694,
80,
o
),
(
596.944,
91,
o
),
(
596.944,
137,
c
),
(
596.944,
260,
l
),
(
421.944,
260,
l
),
(
421.944,
137,
l
),
(
421.944,
89,
o
),
(
414.167,
78,
o
),
(
383.056,
71,
c
),
(
374.306,
70,
l
),
(
374.306,
0,
l
),
(
414.167,
1,
o
),
(
455.972,
3,
o
),
(
509.444,
3,
c
)
);
}
);
width = 700;
},
{
anchors = (
{
name = "#entry";
pos = (
149.5,
256
);
},
{
name = "#exit";
pos = (
239.5,
256
);
},
{
name = "%entry";
pos = (
-71.5,
0
);
},
{
name = "%exit";
pos = (
149.5,
0
);
},
{
name = "^entry";
},
{
name = "^exit";
pos = (
330.5,
0
);
},
{
name = bottom;
pos = (
360.5,
0
);
},
{
name = reversedExit;
pos = (
239.5,
256
);
},
{
name = stem;
pos = (
149.5,
256
);
},
{
name = top;
pos = (
350.5,
512
);
}
);
associatedMasterId = "DF17D77B-A5C4-4843-826A-BC0F1C4CB224";
attr = {
axisRules = (
{
max = 400;
},
{},
{}
);
};
layerId = "17376AE9-5F9F-4A7E-92AC-1644A280AA9A";
name = "2 Feb 24 at 19:42";
shapes = (
{
closed = 1;
nodes = (
(
194.5,
3,
l
),
(
194.5,
3,
l
),
(
235.5,
3,
o
),
(
272.5,
1,
o
),
(
315.5,
0,
c
),
(
315.5,
1,
l
),
(
304.5,
2,
l
),
(
256.5,
6,
o
),
(
239.5,
23,
o
),
(
239.5,
73,
c
),
(
239.5,
256,
l
),
(
149.5,
256,
l
),
(
149.5,
73,
l
),
(
149.5,
23,
o
),
(
132.5,
6,
o
),
(
84.5,
2,
c
),
(
73.5,
1,
l
),
(
73.5,
0,
l
),
(
116.5,
1,
o
),
(
153.5,
3,
o
),
(
194.5,
3,
c
)
);
},
{
closed = 1;
nodes = (
(
239.5,
256,
l
),
(
239.5,
773,
l
),
(
239.5,
785,
l
),
(
211.5,
775,
o
),
(
174.5,
771,
o
),
(
133.5,
771,
c
),
(
117.5,
771,
o
),
(
104.5,
771,
o
),
(
73.5,
773,
c
),
(
73.5,
772,
l
),
(
82.5,
771,
l
),
(
134.5,
765,
o
),
(
149.5,
749,
o
),
(
149.5,
700,
c
),
(
149.5,
256,
l
)
);
},
{
closed = 1;
nodes = (
(
550.5,
256,
l
),
(
550.5,
330,
ls
),
(
550.5,
458,
o
),
(
496.5,
529,
o
),
(
397.5,
529,
cs
),
(
306.5,
529,
o
),
(
247.5,
485,
o
),
(
214.5,
395,
c
),
(
215.5,
394,
l
),
(
245.5,
472,
o
),
(
295.5,
514,
o
),
(
357.5,
514,
cs
),
(
426.5,
514,
o
),
(
460.5,
458,
o
),
(
460.5,
346,
cs
),
(
460.5,
256,
l
)
);
},
{
closed = 1;
nodes = (
(
460.5,
0,
l
),
(
477.5,
2,
o
),
(
495.5,
3,
o
),
(
514.5,
3,
c
),
(
538.5,
3,
o
),
(
579.5,
1,
o
),
(
626.5,
0,
c
),
(
626.5,
1,
l
),
(
615.5,
2,
l
),
(
567.5,
6,
o
),
(
550.5,
23,
o
),
(
550.5,
73,
c
),
(
550.5,
256,
l
),
(
460.5,
256,
l
),
(
460.5,
0,
l
)
);
}
);
width = 700;
},
{
anchors = (
{
name = "#entry";
pos = (
114.5,
260
);
},
{
name = "#exit";
pos = (
294.5,
260
);
},
{
name = "%entry";
pos = (
-74.5,
0
);
},
{
name = "%exit";
pos = (
114.5,
0
);
},
{
name = "^entry";
},
{
name = "^exit";
pos = (
361.5,
0
);
},
{
name = bottom;
pos = (
371.5,
0
);
},
{
name = reversedExit;
pos = (
294.5,
260
);
},
{
name = stem;
pos = (
114.5,
260
);
},
{
name = top;
pos = (
355.5,
520
);
}
);
associatedMasterId = "F497C50F-30EB-4580-9148-0005B36D0333";
attr = {
axisRules = (
{
max = 400;
},
{},
{}
);
};
layerId = "47A524D0-EAB0-4DCD-B2AA-FA3631E34FF7";
name = "2 Feb 24 at 19:42";
shapes = (
{
closed = 1;
nodes = (
(
204.5,
3,
l
),
(
204.5,
3,
l
),
(
242.5,
3,
o
),
(
278.5,
3,
o
),
(
350.5,
0,
c
),
(
350.5,
1,
l
),
(
340.5,
2,
l
),
(
305.5,
6,
o
),
(
294.5,
24,
o
),
(
294.5,
73,
c
),
(
294.5,
260,
l
),
(
114.5,
260,
l
),
(
114.5,
73,
l
),
(
114.5,
24,
o
),
(
103.5,
6,
o
),
(
68.5,
2,
c
),
(
58.5,
1,
l
),
(
58.5,
0,
l
),
(
130.5,
3,
o
),
(
166.5,
3,
o
),
(
204.5,
3,
c
)
);
},
{
closed = 1;
nodes = (
(
204.5,
260,
l
),
(
204.5,
777,
l
),
(
204.5,
789,
l
),
(
176.5,
779,
o
),
(
139.5,
775,
o
),
(
98.5,
775,
c
),
(
82.5,
775,
o
),
(
69.5,
775,
o
),
(
38.5,
777,
c
),
(
38.5,
776,
l
),
(
47.5,
775,
l
),
(
99.5,
769,
o
),
(
114.5,
753,
o
),
(
114.5,
704,
c
),
(
114.5,
260,
l
)
);
},
{
closed = 1;
nodes = (
(
605.5,
260,
l
),
(
605.5,
378,
ls
),
(
605.5,
480,
o
),
(
553.5,
533,
o
),
(
451.5,
533,
cs
),
(
356.5,
533,
o
),
(
291.5,
492,
o
),
(
256.5,
392,
c
),
(
257.5,
391,
l
),
(
287.5,
469,
o
),
(
325.5,
502,
o
),
(
368.5,
502,
cs
),
(
407.5,
502,
o
),
(
425.5,
478,
o
),
(
425.5,
426,
cs
),
(
425.5,
260,
l
)
);
},
{
closed = 1;
nodes = (
(
425.5,
0,
l
),
(
463.5,
2,
o
),
(
498.5,
3,
o
),
(
520.5,
3,
c
),
(
542.5,
3,
o
),
(
581.5,
3,
o
),
(
661.5,
0,
c
),
(
661.5,
1,
l
),
(
651.5,
2,
l
),
(
616.5,
6,
o
),
(
605.5,
24,
o
),
(
605.5,
73,
c
),
(
605.5,
260,
l
),
(
425.5,
260,
l
),
(
425.5,
0,
l
)
);
}
);
width = 700;
},
{
anchors = (
{
name = "#entry";
pos = (
162.533,
256
);
},
{
name = "#exit";
pos = (
245.646,
256
);
},
{
name = "%entry";
pos = (
-149.604,
0
);
},
{
name = "%exit";
pos = (
162.533,
0
);
},
{
name = "^entry";
},
{
name = "^exit";
pos = (
394.327,
0
);
},
{
name = bottom;
pos = (
357.388,
0
);
},
{
name = reversedExit;
pos = (
245.646,
256
);
},
{
name = stem;
pos = (
162.533,
256
);
},
{
name = top;
pos = (
348.153,
512
);
}
);
associatedMasterId = "7300F074-2CFD-43CC-B20F-1BF1EAE6C2C7";
attr = {
axisRules = (
{
max = 400;
},
{},
{}
);
};
layerId = "E647B9CE-F376-4ABA-8CDC-4BC85E326F1E";
name = "2 Feb 24 at 19:42";
shapes = (
{
closed = 1;
nodes = (
(
204.09,
3,
l
),
(
204.09,
3,
l
),
(
277.968,
3,
o
),
(
322.296,
1,
o
),
(
371.24,
0,
c
),
(
371.24,
70,
l
),
(
320.449,
75,
l
),
(
265.963,
80,
o
),
(
245.646,
101,
o
),
(
245.646,
162,
c
),
(
245.646,
256,
l
),
(
162.533,
256,
l
),
(
162.533,
162,
l
),
(
162.533,
101,
o
),
(
142.216,
80,
o
),
(
87.731,
75,
c
),
(
36.939,
70,
l
),
(
36.939,
0,
l
),
(
85.884,
1,
o
),
(
130.211,
3,
o
),
(
204.09,
3,
c
)
);
},
{
closed = 1;
nodes = (
(
245.646,
256,
l
),
(
245.646,
773,
l
),
(
245.646,
785,
l
),
(
219.789,
775,
o
),
(
185.62,
771,
o
),
(
147.757,
771,
c
),
(
132.982,
771,
o
),
(
120.976,
771,
o
),
(
92.348,
773,
c
),
(
92.348,
772,
l
),
(
100.66,
771,
l
),
(
148.681,
765,
o
),
(
162.533,
749,
o
),
(
162.533,
700,
c
),
(
162.533,
256,
l
)
);
},
{
closed = 1;
nodes = (
(
537.467,
256,
l
),
(
537.467,
361,
ls
),
(
537.467,
465,
o
),
(
482.058,
529,
o
),
(
391.557,
529,
cs
),
(
310.29,
529,
o
),
(
246.57,
468,
o
),
(
209.631,
343,
c
),
(
221.636,
309,
l
),
(
255.805,
403,
o
),
(
305.673,
447,
o
),
(
368.47,
447,
cs
),
(
422.955,
447,
o
),
(
454.354,
413,
o
),
(
454.354,
353,
cs
),
(
454.354,
256,
l
)
);
},
{
closed = 1;
nodes = (
(
454.354,
0,
l
),
(
494.063,
2,
o
),
(
518.074,
2,
o
),
(
542.084,
2,
c
),
(
567.942,
2,
o
),
(
614.116,
1,
o
),
(
663.061,
0,
c
),
(
663.061,
70,
l
),
(
612.269,
75,
l
),
(
557.784,
80,
o
),
(
537.467,
101,
o
),
(
537.467,
162,
c
),
(
537.467,
256,
l
),
(
454.354,
256,
l
),
(
454.354,
0,
l
)
);
}
);
width = 700;
},
{
anchors = (
{
name = "#entry";
pos = (
103.056,
260
);
},
{
name = "#exit";
pos = (
278.056,
260
);
},
{
name = "%entry";
pos = (
-157.5,
0
);
},
{
name = "%exit";
pos = (
103.056,
0
);
},
{
name = "^entry";
pos = (
-0.972,
0
);
},
{
name = "^exit";
pos = (
372.361,
0
);
},
{
name = bottom;
pos = (
347.083,
0
);
},
{
name = reversedExit;
pos = (
278.056,
260
);
},
{
name = stem;
pos = (
103.056,
260
);
},
{
name = top;
pos = (
337.361,
520
);
}
);
associatedMasterId = "29EF49B2-C370-4E88-B36E-A4ACD23E3F3A";
attr = {
axisRules = (
{
max = 400;
},
{},
{}
);
};
layerId = "75BB8F3C-5335-4FD5-A3C3-ECC3FB0A601C";
name = "2 Feb 24 at 19:42";
shapes = (
{
closed = 1;
nodes = (
(
190.556,
3,
l
),
(
190.556,
3,
l
),
(
256.667,
3,
o
),
(
310.139,
1,
o
),
(
361.667,
0,
c
),
(
361.667,
70,
l
),
(
338.333,
73,
l
),
(
286.806,
80,
o
),
(
278.056,
91,
o
),
(
278.056,
137,
c
),
(
278.056,
260,
l
),
(
103.056,
260,
l
),
(
103.056,
137,
l
),
(
103.056,
91,
o
),
(
94.306,
80,
o
),
(
42.778,
73,
c
),
(
19.444,
70,
l
),
(
19.444,
0,
l
),
(
70.972,
1,
o
),
(
124.444,
3,
o
),
(
190.556,
3,
c
)
);
},
{
closed = 1;
nodes = (
(
190.556,
260,
l
),
(
190.556,
777,
l
),
(
190.556,
789,
l
),
(
163.333,
779,
o
),
(
127.361,
775,
o
),
(
87.5,
775,
c
),
(
71.944,
775,
o
),
(
59.306,
775,
o
),
(
29.167,
777,
c
),
(
29.167,
776,
l
),
(
37.917,
775,
l
),
(
88.472,
769,
o
),
(
103.056,
753,
o
),
(
103.056,
704,
c
),
(
103.056,
260,
l
)
);
},
{
closed = 1;
nodes = (
(
596.944,
260,
l
),
(
596.944,
358,
ls
),
(
596.944,
473,
o
),
(
542.5,
533,
o
),
(
438.472,
533,
cs
),
(
346.111,
533,
o
),
(
280,
484,
o
),
(
231.389,
334,
c
),
(
251.806,
318,
l
),
(
280.972,
391,
o
),
(
313.056,
421,
o
),
(
357.778,
421,
cs
),
(
401.528,
421,
o
),
(
421.944,
397,
o
),
(
421.944,
347,
cs
),
(
421.944,
260,
l
)
);
},
{
closed = 1;
nodes = (
(
421.944,
0,
l
),
(
463.75,
2,
o
),
(
502.639,
2,
o
),
(
536.667,
2,
c
),
(
568.75,
2,
o
),
(
634.861,
1,
o
),
(
680.556,
0,
c
),
(
680.556,
70,
l
),
(
657.222,
73,
l
),
(
605.694,
80,
o
),
(
596.944,
91,
o
),
(
596.944,
137,
c
),
(
596.944,
260,
l
),
(
421.944,
260,
l
),
(
421.944,
0,
l
)
);
}
);
width = 700;
}
);
unicode = 104;
userData = {
KernOnName = h;
};
}
{
color = 5;
glyphname = j;
kernLeft = KO_j;
kernRight = KO_j;
layers = (
{
anchors = (
{
name = "#entry";
pos = (
305,
256
);
},
{
name = "#exit";
pos = (
395,
256
);
},
{
name = "%entry";
pos = (
84,
0
);
},
{
name = "%exit";
pos = (
305,
0
);
},
{
name = "^exit";
pos = (
486,
0
);
},
{
name = center;
pos = (
350,
257
);
},
{
name = ogonek;
pos = (
433,
0
);
},
{
name = stem;
pos = (
305,
256
);
},
{
name = top;
pos = (
350,
512
);
},
{
name = top_low_1;
pos = (
350,
492
);
},
{
name = top_low_2;
pos = (
350,
472
);
},
{
name = top_low_3;
pos = (
350,
452
);
},
{
name = topright;
pos = (
395,
514
);
},
{
name = "^entry";
pos = (
153,
0
);
},
{
name = bottom;
pos = (
350,
0
);
}
);
layerId = "DF17D77B-A5C4-4843-826A-BC0F1C4CB224";
shapes = (
{
closed = 1;
nodes = (
(
470.5,
256,
l
),
(
470.5,
514,
l
),
(
470.5,
526,
l
),
(
442.5,
516,
o
),
(
405.5,
512,
o
),
(
364.5,
512,
c
),
(
348.5,
512,
o
),
(
335.5,
512,
o
),
(
304.5,
514,
c
),
(
304.5,
513,
l
),
(
313.5,
512,
l
),
(
365.5,
506,
o
),
(
380.5,
490,
o
),
(
380.5,
441,
c
),
(
380.5,
256,
l
)
);
},
{
closed = 1;
nodes = (
(
422.5,
-239,
o
),
(
470.5,
-132,
o
),
(
470.5,
45,
cs
),
(
470.5,
256,
l
),
(
380.5,
256,
l
),
(
380.5,
3,
ls
),
(
380.5,
-167,
o
),
(
329.5,
-234,
o
),
(
221.5,
-238,
c
),
(
221.5,
-239,
l
)
);
},
{
closed = 1;
nodes = (
(
454.5,
647,
o
),
(
478.5,
671,
o
),
(
478.5,
701,
cs
),
(
478.5,
731,
o
),
(
454.5,
755,
o
),
(
425.5,
755,
cs
),
(
395.5,
755,
o
),
(
371.5,
731,
o
),
(
371.5,
701,
cs
),
(
371.5,
671,
o
),
(
395.5,
647,
o
),
(
425.5,
647,
cs
)
);
}
);
width = 700;
},
{
anchors = (
{
name = "#entry";
pos = (
305,
256
);
},
{
name = "#exit";
pos = (
395,
256
);
},
{
name = "%entry";
pos = (
-33,
0
);
},
{
name = "%exit";
pos = (
305,
0
);
},
{
name = "^exit";
pos = (
556,
0
);
},
{
name = center;
pos = (
350,
257
);
},
{
name = ogonek;
pos = (
490,
0
);
},
{
name = stem;
pos = (
305,
256
);
},
{
name = top;
pos = (
350,
512
);
},
{
name = top_low_1;
pos = (
350,
492
);
},
{
name = top_low_2;
pos = (
350,
472
);
},
{
name = top_low_3;
pos = (
350,
452
);
},
{
name = topright;
pos = (
395,
514
);
},
{
name = "^entry";
pos = (
153,
0
);
},
{
name = bottom;
pos = (
350,
0
);
}
);
layerId = "7300F074-2CFD-43CC-B20F-1BF1EAE6C2C7";
shapes = (
{
closed = 1;
nodes = (
(
474,
256,
l
),
(
474,
514,
l
),
(
474,
526,
l
),
(
434,
517,
o
),
(
383,
512,
o
),
(
316,
512,
c
),
(
291,
512,
o
),
(
266,
513,
o
),
(
248,
514,
c
),
(
248,
444,
l
),
(
303,
439,
l
),
(
362,
434,
o
),
(
384,
413,
o
),
(
384,
352,
c
),
(
384,
256,
l
)
);
},
{
closed = 1;
nodes = (
(
420,
-239,
o
),
(
474,
-132,
o
),
(
474,
45,
cs
),
(
474,
256,
l
),
(
384,
256,
l
),
(
384,
13,
ls
),
(
384,
-119,
o
),
(
323,
-171,
o
),
(
195,
-174,
c
),
(
195,
-239,
l
)
);
},
{
closed = 1;
nodes = (
(
471,
626,
o
),
(
505,
660,
o
),
(
505,
701,
cs
),
(
505,
742,
o
),
(
471,
776,
o
),
(
430,
776,
cs
),
(
389,
776,
o
),
(
355,
742,
o
),
(
355,
701,
cs
),
(
355,
660,
o
),
(
389,
626,
o
),
(
430,
626,
cs
)
);
}
);
width = 700;
},
{
anchors = (
{
name = "#entry";
pos = (
260,
260
);
},
{
name = "#exit";
pos = (
440,
260
);
},
{
name = "%entry";
pos = (
71,
0
);
},
{
name = "%exit";
pos = (
260,
0
);
},
{
name = "^exit";
pos = (
507,
0
);
},
{
name = center;
pos = (
350,
259
);
},
{
name = ogonek;
pos = (
450,
0
);
},
{
name = stem;
pos = (
260,
260
);
},
{
name = top;
pos = (
350,
520
);
},
{
name = top_low_1;
pos = (
350,
500
);
},
{
name = top_low_2;
pos = (
350,
480
);
},
{
name = top_low_3;
pos = (
350,
460
);
},
{
name = topright;
pos = (
440,
519
);
},
{
name = "^entry";
pos = (
153,
0
);
},
{
name = bottom;
pos = (
353,
0
);
}
);
layerId = "F497C50F-30EB-4580-9148-0005B36D0333";
shapes = (
{
closed = 1;
nodes = (
(
505.5,
260,
l
),
(
505.5,
519,
l
),
(
505.5,
530,
l
),
(
457.5,
520,
o
),
(
414.5,
516,
o
),
(
369.5,
516,
c
),
(
339.5,
516,
o
),
(
310.5,
516,
o
),
(
269.5,
519,
c
),
(
269.5,
518,
l
),
(
277.5,
517,
l
),
(
314.5,
512,
o
),
(
325.5,
495,
o
),
(
325.5,
446,
c
),
(
325.5,
260,
l
)
);
},
{
closed = 1;
nodes = (
(
443.5,
-239,
o
),
(
505.5,
-132,
o
),
(
505.5,
45,
cs
),
(
505.5,
260,
l
),
(
325.5,
260,
l
),
(
325.5,
3,
ls
),
(
325.5,
-168,
o
),
(
281.5,
-234,
o
),
(
186.5,
-238,
c
),
(
186.5,
-239,
l
)
);
},
{
closed = 1;
nodes = (
(
463.5,
607,
o
),
(
513.5,
637,
o
),
(
513.5,
696,
cs
),
(
513.5,
755,
o
),
(
463.5,
785,
o
),
(
415.5,
785,
cs
),
(
366.5,
785,
o
),
(
317.5,
755,
o
),
(
317.5,
696,
cs
),
(
317.5,
637,
o
),
(
366.5,
607,
o
),
(
415.5,
607,
cs
)
);
}
);
width = 700;
},
{
anchors = (
{
name = "#entry";
pos = (
260,
260
);
},
{
name = "#exit";
pos = (
440,
260
);
},
{
name = "%entry";
pos = (
-8,
0
);
},
{
name = "%exit";
pos = (
260,
0
);
},
{
name = "^entry";
pos = (
153,
0
);
},
{
name = "^exit";
pos = (
537,
0
);
},
{
name = center;
pos = (
350,
259
);
},
{
name = ogonek;
pos = (
450,
0
);
},
{
name = stem;
pos = (
260,
260
);
},
{
name = top;
pos = (
349,
520
);
},
{
name = top_low_1;
pos = (
349,
500
);
},
{
name = top_low_2;
pos = (
349,
480
);
},
{
name = top_low_3;
pos = (
349,
460
);
},
{
name = topright;
pos = (
440,
519
);
},
{
name = bottom;
pos = (
353,
0
);
}
);
layerId = "29EF49B2-C370-4E88-B36E-A4ACD23E3F3A";
shapes = (
{
closed = 1;
nodes = (
(
497.5,
260,
l
),
(
497.5,
519,
l
),
(
497.5,
530,
l
),
(
452.5,
522,
o
),
(
398.5,
517,
o
),
(
326.5,
517,
c
),
(
286.5,
517,
o
),
(
260.5,
518,
o
),
(
231.5,
519,
c
),
(
231.5,
449,
l
),
(
255.5,
446,
l
),
(
308.5,
439,
o
),
(
317.5,
428,
o
),
(
317.5,
382,
c
),
(
317.5,
260,
l
)
);
},
{
closed = 1;
nodes = (
(
435.5,
-239,
o
),
(
497.5,
-132,
o
),
(
497.5,
45,
cs
),
(
497.5,
260,
l
),
(
317.5,
260,
l
),
(
317.5,
53,
ls
),
(
317.5,
-107,
o
),
(
273.5,
-170,
o
),
(
178.5,
-174,
c
),
(
178.5,
-239,
l
)
);
},
{
closed = 1;
nodes = (
(
470.5,
603,
o
),
(
521.5,
635,
o
),
(
521.5,
696,
cs
),
(
521.5,
757,
o
),
(
470.5,
789,
o
),
(
407.5,
789,
cs
),
(
343.5,
789,
o
),
(
293.5,
757,
o
),
(
293.5,
696,
cs
),
(
293.5,
635,
o
),
(
343.5,
603,
o
),
(
407.5,
603,
cs
)
);
}
);
width = 700;
}
);
unicode = 106;
userData = {
KernOnName = j;
};
}
{
color = 5;
glyphname = p;
kernLeft = KO_p;
kernRight = KO_p;
layers = (
{
anchors = (
{
name = "#entry";
pos = (
260,
256
);
},
{
name = "#exit";
pos = (
260,
256
);
},
{
name = bottom;
pos = (
380,
-231
);
},
{
name = center;
pos = (
377,
255
);
},
{
name = "lower-left";
pos = (
170,
0
);
},
{
name = top;
pos = (
337,
512
);
},
{
name = "top-left";
pos = (
170,
512
);
}
);
layerId = "DF17D77B-A5C4-4843-826A-BC0F1C4CB224";
shapes = (
{
closed = 1;
nodes = (
(
260,
256,
l
),
(
260,
514,
l
),
(
260,
526,
l
),
(
232,
516,
o
),
(
195,
512,
o
),
(
154,
512,
c
),
(
138,
512,
o
),
(
125,
512,
o
),
(
94,
514,
c
),
(
94,
513,
l
),
(
103,
512,
l
),
(
155,
506,
o
),
(
170,
490,
o
),
(
170,
441,
c
),
(
170,
256,
l
)
);
},
{
closed = 1;
nodes = (
(
215,
-228,
l
),
(
215,
-228,
l
),
(
266,
-228,
o
),
(
313,
-230,
o
),
(
366,
-231,
c
),
(
366,
-230,
l
),
(
325,
-227,
l
),
(
274,
-223,
o
),
(
260,
-208,
o
),
(
260,
-158,
c
),
(
260,
256,
l
),
(
170,
256,
l
),
(
170,
-158,
l
),
(
170,
-208,
o
),
(
153,
-225,
o
),
(
105,
-229,
c
),
(
94,
-230,
l
),
(
94,
-231,
l
),
(
137,
-230,
o
),
(
174,
-228,
o
),
(
215,
-228,
c
)
);
},
{
closed = 1;
nodes = (
(
322,
526,
o
),
(
268,
483,
o
),
(
247,
431,
c
),
(
248,
431,
l
),
(
269,
478,
o
),
(
309,
511,
o
),
(
368,
511,
cs
),
(
457,
511,
o
),
(
509,
416,
o
),
(
509,
255,
cs
),
(
509,
91,
o
),
(
455,
-5,
o
),
(
362,
-5,
cs
),
(
303,
-5,
o
),
(
262,
29,
o
),
(
254,
60,
c
),
(
253,
61,
l
),
(
258,
30,
o
),
(
309,
-17,
o
),
(
385,
-17,
cs
),
(
522,
-17,
o
),
(
606,
83,
o
),
(
606,
255,
cs
),
(
606,
426,
o
),
(
530,
526,
o
),
(
405,
526,
cs
)
);
}
);
width = 700;
},
{
anchors = (
{
name = "#entry";
pos = (
290,
256
);
},
{
name = "#exit";
pos = (
290,
256
);
},
{
name = bottom;
pos = (
409,
-231
);
},
{
name = center;
pos = (
405,
255
);
},
{
name = "lower-left";
pos = (
200,
0
);
},
{
name = top;
pos = (
353,
512
);
},
{
name = "top-left";
pos = (
200,
512
);
}
);
layerId = "7300F074-2CFD-43CC-B20F-1BF1EAE6C2C7";
shapes = (
{
closed = 1;
nodes = (
(
290,
256,
l
),
(
290,
514,
l
),
(
290,
526,
l
),
(
250,
517,
o
),
(
199,
512,
o
),
(
132,
512,
c
),
(
107,
512,
o
),
(
82,
513,
o
),
(
64,
514,
c
),
(
64,
444,
l
),
(
119,
439,
l
),
(
178,
434,
o
),
(
200,
413,
o
),
(
200,
352,
c
),
(
200,
256,
l
)
);
},
{
closed = 1;
nodes = (
(
245,
-228,
l
),
(
245,
-228,
l
),
(
334,
-228,
o
),
(
387,
-230,
o
),
(
446,
-231,
c
),
(
446,
-161,
l
),
(
391,
-156,
l
),
(
318,
-150,
o
),
(
290,
-130,
o
),
(
290,
-69,
c
),
(
290,
256,
l
),
(
200,
256,
l
),
(
200,
-69,
l
),
(
200,
-130,
o
),
(
178,
-151,
o
),
(
119,
-156,
c
),
(
64,
-161,
l
),
(
64,
-231,
l
),
(
117,
-230,
o
),
(
165,
-228,
o
),
(
245,
-228,
c
)
);
},
{
closed = 1;
nodes = (
(
348,
526,
o
),
(
276,
465,
o
),
(
262,
375,
c
),
(
283,
336,
l
),
(
297,
402,
o
),
(
350,
446,
o
),
(
416,
446,
cs
),
(
497,
446,
o
),
(
539,
382,
o
),
(
539,
260,
cs
),
(
539,
128,
o
),
(
490,
56,
o
),
(
401,
56,
cs
),
(
344,
56,
o
),
(
302,
86,
o
),
(
284,
137,
c
),
(
258,
92,
l
),
(
293,
17,
o
),
(
343,
-17,
o
),
(
416,
-17,
cs
),
(
548,
-17,
o
),
(
636,
95,
o
),
(
636,
264,
cs
),
(
636,
422,
o
),
(
559,
526,
o
),
(
443,
526,
cs
)
);
}
);
width = 700;
},
{
anchors = (
{
name = "#entry";
pos = (
305,
260
);
},
{
name = "#exit";
pos = (
305,
260
);
},
{
name = bottom;
pos = (
373,
-231
);
},
{
name = center;
pos = (
378,
261
);
},
{
name = "lower-left";
pos = (
125,
0
);
},
{
name = top;
pos = (
328,
520
);
},
{
name = "top-left";
pos = (
125,
520
);
}
);
layerId = "F497C50F-30EB-4580-9148-0005B36D0333";
shapes = (
{
closed = 1;
nodes = (
(
305,
260,
l
),
(
305,
519,
l
),
(
305,
530,
l
),
(
257,
520,
o
),
(
214,
516,
o
),
(
169,
516,
c
),
(
139,
516,
o
),
(
110,
516,
o
),
(
69,
519,
c
),
(
69,
518,
l
),
(
77,
517,
l
),
(
114,
512,
o
),
(
125,
495,
o
),
(
125,
446,
c
),
(
125,
260,
l
)
);
},
{
closed = 1;
nodes = (
(
215,
-228,
l
),
(
215,
-228,
l
),
(
261,
-228,
o
),
(
304,
-228,
o
),
(
391,
-231,
c
),
(
391,
-230,
l
),
(
366,
-228,
l
),
(
319,
-224,
o
),
(
305,
-206,
o
),
(
305,
-158,
c
),
(
305,
260,
l
),
(
125,
260,
l
),
(
125,
-158,
l
),
(
125,
-207,
o
),
(
114,
-225,
o
),
(
79,
-229,
c
),
(
69,
-230,
l
),
(
69,
-231,
l
),
(
141,
-228,
o
),
(
177,
-228,
o
),
(
215,
-228,
c
)
);
},
{
closed = 1;
nodes = (
(
361,
534,
o
),
(
315,
505,
o
),
(
292,
440,
c
),
(
293,
439,
l
),
(
313,
492,
o
),
(
337,
507,
o
),
(
362,
507,
cs
),
(
422,
507,
o
),
(
444,
421,
o
),
(
444,
260,
cs
),
(
444,
81,
o
),
(
415,
2,
o
),
(
349,
2,
cs
),
(
325,
2,
o
),
(
303,
12,
o
),
(
289,
27,
c
),
(
289,
26,
l
),
(
310,
3,
o
),
(
351,
-13,
o
),
(
407,
-13,
cs
),
(
550,
-13,
o
),
(
631,
87,
o
),
(
631,
264,
cs
),
(
631,
434,
o
),
(
557,
534,
o
),
(
430,
534,
cs
)
);
}
);
width = 700;
},
{
anchors = (
{
name = "#entry";
pos = (
320,
260
);
},
{
name = "#exit";
pos = (
320,
260
);
},
{
name = bottom;
pos = (
458,
-231
);
},
{
name = center;
pos = (
390,
261
);
},
{
name = "lower-left";
pos = (
140,
0
);
},
{
name = top;
pos = (
333,
520
);
},
{
name = "top-left";
pos = (
140,
520
);
}
);
layerId = "29EF49B2-C370-4E88-B36E-A4ACD23E3F3A";
shapes = (
{
closed = 1;
nodes = (
(
320,
260,
l
),
(
320,
519,
l
),
(
320,
530,
l
),
(
275,
522,
o
),
(
221,
517,
o
),
(
149,
517,
c
),
(
109,
517,
o
),
(
83,
518,
o
),
(
54,
519,
c
),
(
54,
449,
l
),
(
78,
446,
l
),
(
131,
439,
o
),
(
140,
428,
o
),
(
140,
382,
c
),
(
140,
260,
l
)
);
},
{
closed = 1;
nodes = (
(
230,
-228,
l
),
(
230,
-228,
l
),
(
310,
-228,
o
),
(
374,
-230,
o
),
(
436,
-231,
c
),
(
436,
-161,
l
),
(
412,
-158,
l
),
(
334,
-148,
o
),
(
320,
-140,
o
),
(
320,
-94,
c
),
(
320,
260,
l
),
(
140,
260,
l
),
(
140,
-94,
l
),
(
140,
-140,
o
),
(
131,
-151,
o
),
(
78,
-158,
c
),
(
54,
-161,
l
),
(
54,
-231,
l
),
(
107,
-230,
o
),
(
162,
-228,
o
),
(
230,
-228,
c
)
);
},
{
closed = 1;
nodes = (
(
382,
534,
o
),
(
328,
499,
o
),
(
302,
427,
c
),
(
314,
375,
l
),
(
325,
407,
o
),
(
356,
432,
o
),
(
387,
432,
cs
),
(
437,
432,
o
),
(
459,
380,
o
),
(
459,
260,
cs
),
(
459,
131,
o
),
(
430,
73,
o
),
(
364,
73,
cs
),
(
340,
73,
o
),
(
318,
83,
o
),
(
304,
98,
c
),
(
293,
39,
l
),
(
316,
5,
o
),
(
361,
-13,
o
),
(
422,
-13,
cs
),
(
565,
-13,
o
),
(
646,
87,
o
),
(
646,
264,
cs
),
(
646,
433,
o
),
(
572,
534,
o
),
(
453,
534,
cs
)
);
}
);
width = 700;
}
);
metricLeft = l;
metricRight = o;
unicode = 112;
}
{
color = 5;
glyphname = q;
kernLeft = KO_d;
kernRight = KO_q;
layers = (
{
anchors = (
{
name = "#entry";
pos = (
440,
256
);
},
{
name = "#exit";
pos = (
440,
256
);
},
{
name = bottom;
pos = (
363,
0
);
},
{
name = "bottom-right";
pos = (
530,
0
);
},
{
name = center;
pos = (
323,
257
);
},
{
name = "lower-right";
pos = (
530,
0
);
}
);
layerId = "DF17D77B-A5C4-4843-826A-BC0F1C4CB224";
shapes = (
{
closed = 1;
nodes = (
(
378,
-14,
o
),
(
432,
29,
o
),
(
453,
81,
c
),
(
452,
81,
l
),
(
431,
34,
o
),
(
391,
1,
o
),
(
332,
1,
cs
),
(
243,
1,
o
),
(
191,
96,
o
),
(
191,
257,
cs
),
(
191,
421,
o
),
(
245,
517,
o
),
(
338,
517,
cs
),
(
397,
517,
o
),
(
438,
483,
o
),
(
446,
452,
c
),
(
447,
451,
l
),
(
442,
482,
o
),
(
391,
529,
o
),
(
315,
529,
cs
),
(
178,
529,
o
),
(
94,
429,
o
),
(
94,
257,
cs
),
(
94,
86,
o
),
(
170,
-14,
o
),
(
295,
-14,
cs
)
);
},
{
closed = 1;
nodes = (
(
526,
-228,
o
),
(
563,
-230,
o
),
(
606,
-231,
c
),
(
606,
-230,
l
),
(
595,
-229,
l
),
(
547,
-225,
o
),
(
530,
-208,
o
),
(
530,
-158,
c
),
(
530,
256,
l
),
(
440,
256,
l
),
(
440,
-158,
l
),
(
440,
-208,
o
),
(
426,
-223,
o
),
(
375,
-227,
c
),
(
334,
-230,
l
),
(
334,
-231,
l
),
(
387,
-230,
o
),
(
434,
-228,
o
),
(
485,
-228,
c
),
(
485,
-228,
l
),
(
485,
-228,
l
)
);
},
{
closed = 1;
nodes = (
(
530,
256,
l
),
(
530,
464,
l
),
(
530,
497,
o
),
(
534,
517,
o
),
(
543,
532,
c
),
(
542,
533,
l
),
(
523,
504,
o
),
(
483,
478,
o
),
(
440,
469,
c
),
(
440,
514,
l
),
(
440,
256,
l
)
);
}
);
width = 700;
},
{
anchors = (
{
name = "#entry";
pos = (
410,
256
);
},
{
name = "#exit";
pos = (
410,
256
);
},
{
name = bottom;
pos = (
347,
0
);
},
{
name = "bottom-right";
pos = (
500,
0
);
},
{
name = center;
pos = (
295,
257
);
},
{
name = "lower-right";
pos = (
500,
0
);
}
);
layerId = "7300F074-2CFD-43CC-B20F-1BF1EAE6C2C7";
shapes = (
{
closed = 1;
nodes = (
(
359,
-14,
o
),
(
415,
41,
o
),
(
426,
94,
c
),
(
416,
208,
l
),
(
403,
117,
o
),
(
359,
66,
o
),
(
292,
66,
cs
),
(
207,
66,
o
),
(
161,
133,
o
),
(
161,
256,
cs
),
(
161,
385,
o
),
(
211,
456,
o
),
(
301,
456,
cs
),
(
354,
456,
o
),
(
394,
427,
o
),
(
411,
376,
c
),
(
434,
446,
l
),
(
406,
500,
o
),
(
355,
529,
o
),
(
287,
529,
cs
),
(
151,
529,
o
),
(
64,
420,
o
),
(
64,
248,
cs
),
(
64,
84,
o
),
(
139,
-14,
o
),
(
265,
-14,
cs
)
);
},
{
closed = 1;
nodes = (
(
535,
-228,
o
),
(
583,
-230,
o
),
(
636,
-231,
c
),
(
636,
-161,
l
),
(
581,
-156,
l
),
(
522,
-151,
o
),
(
500,
-130,
o
),
(
500,
-69,
c
),
(
500,
256,
l
),
(
410,
256,
l
),
(
410,
-69,
l
),
(
410,
-130,
o
),
(
382,
-150,
o
),
(
309,
-156,
c
),
(
254,
-161,
l
),
(
254,
-231,
l
),
(
313,
-230,
o
),
(
366,
-228,
o
),
(
455,
-228,
c
),
(
455,
-228,
l
),
(
455,
-228,
l
)
);
},
{
closed = 1;
nodes = (
(
500,
256,
l
),
(
500,
349,
l
),
(
500,
413,
o
),
(
510,
438,
o
),
(
550,
470,
c
),
(
499,
528,
l
),
(
470,
501,
o
),
(
441,
480,
o
),
(
410,
462,
c
),
(
410,
514,
l
),
(
410,
256,
l
)
);
}
);
width = 700;
},
{
anchors = (
{
name = "#entry";
pos = (
395,
260
);
},
{
name = "#exit";
pos = (
395,
260
);
},
{
name = bottom;
pos = (
372,
0
);
},
{
name = "bottom-right";
pos = (
575,
0
);
},
{
name = center;
pos = (
322,
259
);
},
{
name = "lower-right";
pos = (
575,
0
);
}
);
layerId = "F497C50F-30EB-4580-9148-0005B36D0333";
shapes = (
{
closed = 1;
nodes = (
(
339,
-14,
o
),
(
385,
15,
o
),
(
408,
80,
c
),
(
407,
81,
l
),
(
387,
28,
o
),
(
363,
13,
o
),
(
338,
13,
cs
),
(
278,
13,
o
),
(
256,
99,
o
),
(
256,
260,
cs
),
(
256,
439,
o
),
(
285,
518,
o
),
(
351,
518,
cs
),
(
375,
518,
o
),
(
397,
508,
o
),
(
411,
493,
c
),
(
411,
494,
l
),
(
390,
517,
o
),
(
349,
533,
o
),
(
293,
533,
cs
),
(
150,
533,
o
),
(
69,
433,
o
),
(
69,
256,
cs
),
(
69,
86,
o
),
(
143,
-14,
o
),
(
270,
-14,
cs
)
);
},
{
closed = 1;
nodes = (
(
523,
-228,
o
),
(
559,
-228,
o
),
(
631,
-231,
c
),
(
631,
-230,
l
),
(
621,
-229,
l
),
(
586,
-225,
o
),
(
575,
-207,
o
),
(
575,
-158,
c
),
(
575,
260,
l
),
(
395,
260,
l
),
(
395,
-158,
l
),
(
395,
-206,
o
),
(
381,
-224,
o
),
(
334,
-228,
c
),
(
309,
-230,
l
),
(
309,
-231,
l
),
(
396,
-228,
o
),
(
439,
-228,
o
),
(
485,
-228,
c
),
(
485,
-228,
l
),
(
485,
-228,
l
)
);
},
{
closed = 1;
nodes = (
(
575,
260,
l
),
(
575,
470,
l
),
(
575,
503,
o
),
(
579,
523,
o
),
(
588,
538,
c
),
(
587,
539,
l
),
(
549,
507,
o
),
(
459,
483,
o
),
(
395,
506,
c
),
(
395,
519,
l
),
(
395,
260,
l
)
);
}
);
width = 700;
},
{
anchors = (
{
name = "#entry";
pos = (
380,
260
);
},
{
name = "#exit";
pos = (
380,
260
);
},
{
name = bottom;
pos = (
367,
0
);
},
{
name = "bottom-right";
pos = (
560,
0
);
},
{
name = center;
pos = (
310,
259
);
},
{
name = "lower-right";
pos = (
560,
0
);
}
);
layerId = "29EF49B2-C370-4E88-B36E-A4ACD23E3F3A";
shapes = (
{
closed = 1;
nodes = (
(
318,
-14,
o
),
(
372,
21,
o
),
(
398,
93,
c
),
(
386,
145,
l
),
(
375,
113,
o
),
(
344,
88,
o
),
(
313,
88,
cs
),
(
263,
88,
o
),
(
241,
140,
o
),
(
241,
260,
cs
),
(
241,
389,
o
),
(
270,
447,
o
),
(
336,
447,
cs
),
(
360,
447,
o
),
(
382,
437,
o
),
(
396,
422,
c
),
(
407,
481,
l
),
(
384,
515,
o
),
(
339,
533,
o
),
(
278,
533,
cs
),
(
135,
533,
o
),
(
54,
433,
o
),
(
54,
256,
cs
),
(
54,
87,
o
),
(
128,
-14,
o
),
(
247,
-14,
cs
)
);
},
{
closed = 1;
nodes = (
(
538,
-228,
o
),
(
593,
-230,
o
),
(
646,
-231,
c
),
(
646,
-161,
l
),
(
622,
-158,
l
),
(
569,
-151,
o
),
(
560,
-140,
o
),
(
560,
-94,
c
),
(
560,
260,
l
),
(
380,
260,
l
),
(
380,
-94,
l
),
(
380,
-140,
o
),
(
366,
-148,
o
),
(
288,
-158,
c
),
(
264,
-161,
l
),
(
264,
-231,
l
),
(
326,
-230,
o
),
(
390,
-228,
o
),
(
470,
-228,
c
),
(
470,
-228,
l
),
(
470,
-228,
l
)
);
},
{
closed = 1;
nodes = (
(
560,
260,
l
),
(
560,
356,
l
),
(
560,
416,
o
),
(
568,
444,
o
),
(
595,
475,
c
),
(
544,
533,
l
),
(
506,
501,
o
),
(
441,
488,
o
),
(
380,
501,
c
),
(
380,
519,
l
),
(
380,
260,
l
)
);
}
);
width = 700;
}
);
metricLeft = o;
unicode = 113;
}
{
color = 8;
glyphname = t;
kernLeft = KO_t;
kernRight = KO_t;
layers = (
{
anchors = (
{
name = "#exit";
pos = (
379,
0
);
}
);
guides = (
{
angle = 90;
pos = (
170,
494
);
}
);
layerId = "DF17D77B-A5C4-4843-826A-BC0F1C4CB224";
shapes = (
{
closed = 1;
nodes = (
(
470,
-14,
o
),
(
513,
32,
o
),
(
530,
124,
c
),
(
529,
124,
l
),
(
514,
46,
o
),
(
477,
-2,
o
),
(
427,
-2,
cs
),
(
377,
-2,
o
),
(
356,
27,
o
),
(
356,
87,
cs
),
(
356,
256,
l
),
(
266,
256,
l
),
(
266,
159,
ls
),
(
266,
38,
o
),
(
306,
-14,
o
),
(
400,
-14,
cs
)
);
},
{
closed = 1;
nodes = (
(
356,
256,
l
),
(
356,
681,
l
),
(
332,
673,
o
),
(
302,
668,
o
),
(
266,
667,
c
),
(
266,
256,
l
)
);
},
{
closed = 1;
nodes = (
(
503,
511,
l
),
(
503,
512,
l
),
(
170,
512,
l
),
(
170,
511,
l
)
);
}
);
width = 700;
},
{
anchors = (
{
name = "#exit";
pos = (
438,
0
);
}
);
guides = (
{
angle = 90;
pos = (
140,
494
);
}
);
layerId = "7300F074-2CFD-43CC-B20F-1BF1EAE6C2C7";
shapes = (
{
closed = 1;
nodes = (
(
494,
-14,
o
),
(
539,
28,
o
),
(
560,
124,
c
),
(
504,
139,
l
),
(
490,
93,
o
),
(
465,
72,
o
),
(
424,
72,
cs
),
(
379,
72,
o
),
(
356,
100,
o
),
(
356,
157,
cs
),
(
356,
256,
l
),
(
266,
256,
l
),
(
266,
153,
ls
),
(
266,
42,
o
),
(
315,
-14,
o
),
(
411,
-14,
cs
)
);
},
{
closed = 1;
nodes = (
(
356,
256,
l
),
(
356,
681,
l
),
(
328,
673,
o
),
(
298,
668,
o
),
(
266,
667,
c
),
(
266,
256,
l
)
);
},
{
closed = 1;
nodes = (
(
534,
442,
l
),
(
534,
512,
l
),
(
140,
512,
l
),
(
140,
442,
l
)
);
}
);
width = 700;
},
{
anchors = (
{
name = "#exit";
pos = (
441,
0
);
}
);
guides = (
{
angle = 90;
pos = (
164,
494
);
}
);
layerId = "F497C50F-30EB-4580-9148-0005B36D0333";
shapes = (
{
closed = 1;
nodes = (
(
462,
-14,
o
),
(
505,
17,
o
),
(
537,
96,
c
),
(
536,
96,
l
),
(
513,
42,
o
),
(
491,
19,
o
),
(
461,
19,
cs
),
(
435,
19,
o
),
(
420,
39,
o
),
(
420,
72,
cs
),
(
420,
260,
l
),
(
240,
260,
l
),
(
240,
149,
ls
),
(
240,
42,
o
),
(
291,
-14,
o
),
(
389,
-14,
cs
)
);
},
{
closed = 1;
nodes = (
(
420,
260,
l
),
(
420,
681,
l
),
(
368,
665,
o
),
(
311,
657,
o
),
(
240,
657,
c
),
(
240,
260,
l
)
);
},
{
closed = 1;
nodes = (
(
518,
519,
l
),
(
518,
520,
l
),
(
163,
520,
l
),
(
163,
519,
l
)
);
}
);
width = 700;
},
{
anchors = (
{
name = "#exit";
pos = (
442,
0
);
}
);
guides = (
{
angle = 90;
pos = (
135,
494
);
}
);
layerId = "29EF49B2-C370-4E88-B36E-A4ACD23E3F3A";
shapes = (
{
closed = 1;
nodes = (
(
486,
-14,
o
),
(
533,
18,
o
),
(
568,
96,
c
),
(
515,
130,
l
),
(
498,
108,
o
),
(
483,
99,
o
),
(
462,
99,
cs
),
(
434,
99,
o
),
(
421,
113,
o
),
(
421,
144,
cs
),
(
421,
260,
l
),
(
241,
260,
l
),
(
241,
149,
ls
),
(
241,
42,
o
),
(
297,
-14,
o
),
(
405,
-14,
cs
)
);
},
{
closed = 1;
nodes = (
(
421,
260,
l
),
(
421,
681,
l
),
(
363,
665,
o
),
(
305,
657,
o
),
(
241,
657,
c
),
(
241,
260,
l
)
);
},
{
closed = 1;
nodes = (
(
547,
450,
l
),
(
547,
520,
l
),
(
132,
520,
l
),
(
132,
450,
l
)
);
}
);
width = 700;
}
);
unicode = 116;
userData = {
KernOnName = t;
};
}
{
color = 4;
glyphname = v;
kernLeft = KO_v;
kernRight = KO_v;
layers = (
{
anchors = (
{
name = bottom;
pos = (
355.5,
0
);
},
{
name = top;
pos = (
350.5,
512
);
}
);
background = {
anchors = (
{
name = bottom;
pos = (
258,
0
);
},
{
name = top;
pos = (
253,
512
);
}
);
shapes = (
{
closed = 1;
nodes = (
(
356.5,
-15,
l
),
(
506.5,
390,
ls
),
(
538.5,
476,
o
),
(
565.5,
510,
o
),
(
601.5,
513,
c
),
(
601.5,
514,
l
),
(
580.5,
513,
o
),
(
555.5,
512,
o
),
(
525.5,
512,
cs
),
(
496.5,
512,
o
),
(
479.5,
512,
o
),
(
431.5,
514,
c
),
(
431.5,
513,
l
),
(
512.5,
507,
o
),
(
526.5,
446,
o
),
(
476.5,
312,
cs
),
(
395.5,
93,
l
),
(
401.5,
108,
l
),
(
267.5,
436,
ls
),
(
244.5,
492,
o
),
(
256.5,
507,
o
),
(
327.5,
513,
c
),
(
327.5,
514,
l
),
(
290.5,
512,
o
),
(
254.5,
511,
o
),
(
191.5,
511,
cs
),
(
152.5,
511,
o
),
(
126.5,
512,
o
),
(
93.5,
514,
c
),
(
93.5,
513,
l
),
(
124.5,
512,
o
),
(
146.5,
494,
o
),
(
161.5,
458,
cs
),
(
355.5,
-15,
l
)
);
}
);
};
layerId = "DF17D77B-A5C4-4843-826A-BC0F1C4CB224";
shapes = (
{
closed = 1;
nodes = (
(
356.5,
-15,
l
),
(
488.5,
341,
l
),
(
535.5,
468,
o
),
(
561.5,
499,
o
),
(
596.5,
509,
c
),
(
603.5,
511,
l
),
(
603.5,
512,
l
),
(
591.5,
511,
o
),
(
572.5,
509,
o
),
(
544.5,
509,
c
),
(
521.5,
509,
o
),
(
485.5,
510,
o
),
(
460.5,
512,
c
),
(
460.5,
511,
l
),
(
467.5,
510,
l
),
(
518.5,
503,
o
),
(
528.5,
454,
o
),
(
483.5,
330,
c
),
(
395.5,
93,
l
),
(
401.5,
108,
l
),
(
272.5,
424,
l
),
(
249.5,
490,
o
),
(
259.5,
502,
o
),
(
315.5,
509,
c
),
(
331.5,
511,
l
),
(
331.5,
512,
l
),
(
303.5,
511,
o
),
(
256.5,
509,
o
),
(
193.5,
509,
c
),
(
191.5,
509,
l
),
(
188.5,
509,
l
),
(
153.5,
509,
o
),
(
122.5,
511,
o
),
(
96.5,
512,
c
),
(
96.5,
511,
l
),
(
105.5,
510,
l
),
(
135.5,
506,
o
),
(
147.5,
494,
o
),
(
165.5,
450,
c
),
(
355.5,
-15,
l
)
);
}
);
width = 700;
},
{
anchors = (
{
name = bottom;
pos = (
353.5,
0
);
},
{
name = top;
pos = (
353.5,
512
);
}
);
background = {
anchors = (
{
name = bottom;
pos = (
326,
0
);
},
{
name = top;
pos = (
326,
512
);
}
);
shapes = (
{
closed = 1;
nodes = (
(
390.5,
-5,
l
),
(
523.5,
356,
ls
),
(
546.5,
418,
o
),
(
584.5,
444,
o
),
(
654.5,
443,
c
),
(
654.5,
514,
l
),
(
626.5,
513,
o
),
(
581.5,
512,
o
),
(
527.5,
512,
cs
),
(
476.5,
512,
o
),
(
458.5,
513,
o
),
(
394.5,
514,
c
),
(
394.5,
443,
l
),
(
454.5,
444,
o
),
(
470.5,
413,
o
),
(
447.5,
350,
cs
),
(
356.5,
102,
l
),
(
373.5,
97,
l
),
(
264.5,
366,
ls
),
(
242.5,
420,
o
),
(
256.5,
444,
o
),
(
314.5,
443,
c
),
(
314.5,
514,
l
),
(
267.5,
512,
o
),
(
235.5,
511,
o
),
(
184.5,
511,
cs
),
(
115.5,
511,
o
),
(
79.5,
512,
o
),
(
41.5,
514,
c
),
(
41.5,
443,
l
),
(
109.5,
444,
o
),
(
149.5,
421,
o
),
(
170.5,
370,
cs
),
(
323.5,
-5,
l
)
);
}
);
};
layerId = "7300F074-2CFD-43CC-B20F-1BF1EAE6C2C7";
shapes = (
{
closed = 1;
nodes = (
(
390.5,
-5,
l
),
(
507.5,
312,
l
),
(
546.5,
406,
o
),
(
571.5,
432,
o
),
(
630.5,
439,
c
),
(
652.5,
442,
l
),
(
652.5,
512,
l
),
(
607.5,
510,
o
),
(
557.5,
509,
o
),
(
505.5,
509,
c
),
(
474.5,
509,
o
),
(
436.5,
510,
o
),
(
399.5,
512,
c
),
(
399.5,
442,
l
),
(
410.5,
441,
l
),
(
455.5,
435,
o
),
(
471.5,
412,
o
),
(
428.5,
303,
c
),
(
356.5,
102,
l
),
(
373.5,
97,
l
),
(
268.5,
357,
l
),
(
246.5,
413,
o
),
(
253.5,
434,
o
),
(
302.5,
441,
c
),
(
317.5,
443,
l
),
(
317.5,
513,
l
),
(
284.5,
511,
o
),
(
210.5,
509,
o
),
(
156.5,
509,
c
),
(
160.5,
509,
l
),
(
156.5,
509,
l
),
(
126.5,
509,
o
),
(
82.5,
510,
o
),
(
47.5,
512,
c
),
(
47.5,
442,
l
),
(
88.5,
438,
l
),
(
134.5,
434,
o
),
(
151.5,
417,
o
),
(
176.5,
356,
c
),
(
323.5,
-5,
l
)
);
}
);
width = 700;
},
{
anchors = (
{
name = bottom;
pos = (
353.5,
0
);
},
{
name = top;
pos = (
353.5,
520
);
}
);
background = {
anchors = (
{
name = bottom;
pos = (
284,
0
);
},
{
name = top;
pos = (
284,
520
);
}
);
shapes = (
{
closed = 1;
nodes = (
(
359.5,
-15,
l
),
(
512.5,
356,
ls
),
(
548.5,
443,
o
),
(
577.5,
484,
o
),
(
625.5,
518,
c
),
(
625.5,
519,
l
),
(
610.5,
517,
o
),
(
574.5,
515,
o
),
(
548.5,
515,
cs
),
(
518.5,
515,
o
),
(
470.5,
517,
o
),
(
443.5,
519,
c
),
(
443.5,
518,
l
),
(
505.5,
497,
o
),
(
525.5,
392,
o
),
(
485.5,
295,
cs
),
(
443.5,
193,
l
),
(
449.5,
204,
l
),
(
346.5,
429,
ls
),
(
322.5,
481,
o
),
(
335.5,
512,
o
),
(
381.5,
518,
c
),
(
381.5,
519,
l
),
(
323.5,
516,
o
),
(
287.5,
515,
o
),
(
244.5,
515,
cs
),
(
171.5,
515,
o
),
(
119.5,
516,
o
),
(
81.5,
519,
c
),
(
81.5,
518,
l
),
(
104.5,
516,
o
),
(
123.5,
498,
o
),
(
139.5,
462,
cs
),
(
358.5,
-15,
l
)
);
}
);
};
layerId = "F497C50F-30EB-4580-9148-0005B36D0333";
shapes = (
{
closed = 1;
nodes = (
(
359.5,
-15,
l
),
(
481.5,
281,
l
),
(
553.5,
453,
o
),
(
581.5,
496,
o
),
(
621.5,
515,
c
),
(
630.5,
519,
l
),
(
630.5,
520,
l
),
(
602.5,
518,
o
),
(
586.5,
517,
o
),
(
559.5,
517,
c
),
(
530.5,
517,
o
),
(
512.5,
518,
o
),
(
470.5,
520,
c
),
(
470.5,
519,
l
),
(
475.5,
518,
l
),
(
536.5,
506,
o
),
(
536.5,
418,
o
),
(
480.5,
281,
c
),
(
443.5,
193,
l
),
(
449.5,
204,
l
),
(
345.5,
431,
l
),
(
316.5,
495,
o
),
(
328.5,
513,
o
),
(
370.5,
517,
c
),
(
389.5,
519,
l
),
(
389.5,
520,
l
),
(
358.5,
519,
o
),
(
301.5,
517,
o
),
(
223.5,
517,
c
),
(
217.5,
517,
l
),
(
213.5,
517,
l
),
(
152.5,
517,
o
),
(
101.5,
519,
o
),
(
69.5,
520,
c
),
(
69.5,
519,
l
),
(
81.5,
517,
l
),
(
107.5,
514,
o
),
(
120.5,
503,
o
),
(
134.5,
472,
c
),
(
358.5,
-15,
l
)
);
}
);
width = 700;
},
{
anchors = (
{
name = bottom;
pos = (
351,
0
);
},
{
name = top;
pos = (
351,
520
);
}
);
background = {
anchors = (
{
name = bottom;
pos = (
348,
0
);
},
{
name = top;
pos = (
348,
520
);
}
);
shapes = (
{
closed = 1;
nodes = (
(
391,
0,
l
),
(
543,
356,
ls
),
(
569,
417,
o
),
(
596,
441,
o
),
(
652,
448,
c
),
(
652,
519,
l
),
(
611,
517,
o
),
(
565,
515,
o
),
(
545,
515,
cs
),
(
521,
515,
o
),
(
471,
517,
o
),
(
420,
519,
c
),
(
420,
448,
l
),
(
483,
441,
o
),
(
492,
409,
o
),
(
461,
336,
cs
),
(
380,
147,
l
),
(
426,
193,
l
),
(
345,
360,
ls
),
(
314,
424,
o
),
(
325,
448,
o
),
(
387,
448,
c
),
(
387,
519,
l
),
(
353,
516,
o
),
(
313,
515,
o
),
(
229,
515,
cs
),
(
141,
515,
o
),
(
92,
516,
o
),
(
46,
519,
c
),
(
46,
448,
l
),
(
99,
443,
o
),
(
121,
427,
o
),
(
145,
377,
cs
),
(
324,
0,
l
)
);
}
);
};
layerId = "29EF49B2-C370-4E88-B36E-A4ACD23E3F3A";
shapes = (
{
closed = 1;
nodes = (
(
391,
0,
l
),
(
546,
364,
l
),
(
576,
424,
o
),
(
601,
443,
o
),
(
640,
448,
c
),
(
657,
450,
l
),
(
657,
520,
l
),
(
620,
518,
o
),
(
578,
517,
o
),
(
535,
517,
c
),
(
500,
517,
o
),
(
459,
518,
o
),
(
417,
520,
c
),
(
417,
450,
l
),
(
434,
448,
l
),
(
482,
442,
o
),
(
496,
417,
o
),
(
448,
314,
c
),
(
380,
147,
l
),
(
426,
193,
l
),
(
344,
363,
l
),
(
313,
427,
o
),
(
319,
443,
o
),
(
345,
448,
c
),
(
360,
450,
l
),
(
360,
520,
l
),
(
312,
518,
o
),
(
227,
517,
o
),
(
174,
517,
c
),
(
179,
517,
l
),
(
168,
517,
l
),
(
136,
517,
o
),
(
80,
518,
o
),
(
43,
520,
c
),
(
44,
450,
l
),
(
68,
447,
l
),
(
107,
442,
o
),
(
118,
430,
o
),
(
140,
386,
c
),
(
324,
0,
l
)
);
}
);
width = 700;
},
{
anchors = (
{
name = bottom;
pos = (
345.607,
0
);
},
{
name = top;
pos = (
345.607,
520
);
}
);
associatedMasterId = "29EF49B2-C370-4E88-B36E-A4ACD23E3F3A";
attr = {
axisRules = (
{
max = 400;
},
{
max = 97;
},
{
min = 700;
}
);
};
background = {
anchors = (
{
name = bottom;
pos = (
354,
0
);
},
{
name = top;
pos = (
354,
520
);
}
);
shapes = (
{
closed = 1;
nodes = (
(
384.658,
0,
l
),
(
533.054,
356,
ls
),
(
558.438,
417,
o
),
(
584.798,
441,
o
),
(
639.47,
448,
c
),
(
639.47,
519,
l
),
(
599.442,
517,
o
),
(
554.533,
515,
o
),
(
535.007,
515,
cs
),
(
511.576,
515,
o
),
(
462.762,
517,
o
),
(
412.971,
519,
c
),
(
412.971,
448,
l
),
(
474.477,
441,
o
),
(
483.264,
409,
o
),
(
452.999,
336,
cs
),
(
373.919,
148,
l
),
(
418.828,
193,
l
),
(
313.389,
416,
ls
),
(
298.745,
447,
o
),
(
292.887,
482,
o
),
(
294.84,
519,
c
),
(
265.551,
517,
o
),
(
236.262,
516,
o
),
(
206.974,
516,
cs
),
(
130.823,
516,
o
),
(
87.866,
517,
o
),
(
47.838,
519,
c
),
(
47.838,
448,
l
),
(
99.582,
443,
o
),
(
121.06,
427,
o
),
(
144.491,
377,
cs
),
(
319.247,
0,
l
)
);
}
);
};
layerId = "227F319E-628A-4DE2-8A82-8EE6009E24C9";
name = "23 Jan 22, 11:35";
shapes = (
{
closed = 1;
nodes = (
(
384.658,
0,
l
),
(
529.149,
348,
l
),
(
564.296,
421,
o
),
(
591.632,
442,
o
),
(
643.375,
448,
c
),
(
660.948,
450,
l
),
(
660.948,
520,
l
),
(
620.921,
518,
o
),
(
575.035,
517,
o
),
(
529.149,
517,
c
),
(
488.145,
517,
o
),
(
439.331,
518,
o
),
(
390.516,
520,
c
),
(
390.516,
450,
l
),
(
411.018,
448,
l
),
(
469.596,
440,
o
),
(
483.264,
409,
o
),
(
440.307,
314,
c
),
(
373.919,
147,
l
),
(
418.828,
193,
l
),
(
311.437,
420,
l
),
(
294.84,
450,
o
),
(
284.1,
483,
o
),
(
286.053,
520,
c
),
(
256.764,
518,
o
),
(
227.476,
517,
o
),
(
198.187,
517,
c
),
(
122.036,
517,
o
),
(
79.079,
518,
o
),
(
39.052,
520,
c
),
(
39.052,
449,
l
),
(
90.795,
444,
o
),
(
117.155,
430,
o
),
(
143.515,
382,
c
),
(
319.247,
0,
l
)
);
}
);
width = 700;
},
{
anchors = (
{
name = bottom;
pos = (
357.5,
0
);
},
{
name = top;
pos = (
357.5,
512
);
}
);
associatedMasterId = "7300F074-2CFD-43CC-B20F-1BF1EAE6C2C7";
attr = {
axisRules = (
{
max = 400;
},
{
max = 97;
},
{
min = 700;
}
);
};
background = {
anchors = (
{
name = bottom;
pos = (
338,
0
);
},
{
name = top;
pos = (
338,
512
);
}
);
shapes = (
{
closed = 1;
nodes = (
(
394.5,
-5,
l
),
(
527.5,
356,
ls
),
(
550.5,
418,
o
),
(
588.5,
444,
o
),
(
658.5,
444,
c
),
(
658.5,
515,
l
),
(
630.5,
513,
o
),
(
575.5,
512,
o
),
(
531.5,
512,
cs
),
(
490.5,
512,
o
),
(
462.5,
513,
o
),
(
398.5,
515,
c
),
(
398.5,
444,
l
),
(
458.5,
444,
o
),
(
474.5,
413,
o
),
(
451.5,
350,
cs
),
(
353.5,
83,
l
),
(
382.5,
83,
l
),
(
252.5,
406,
ls
),
(
239.5,
439,
o
),
(
232.5,
476,
o
),
(
234.5,
514,
c
),
(
212.5,
512,
o
),
(
190.5,
511,
o
),
(
158.5,
511,
cs
),
(
109.5,
511,
o
),
(
77.5,
512,
o
),
(
45.5,
514,
c
),
(
45.5,
443,
l
),
(
113.5,
444,
o
),
(
153.5,
421,
o
),
(
174.5,
370,
cs
),
(
327.5,
-5,
l
)
);
}
);
};
layerId = "83AF2804-8268-4DC5-A648-959CDD49BFE0";
name = "23 Jan 22, 11:35";
shapes = (
{
closed = 1;
nodes = (
(
394.5,
-5,
l
),
(
511.5,
312,
l
),
(
550.5,
406,
o
),
(
575.5,
432,
o
),
(
639.5,
439,
c
),
(
660.5,
442,
l
),
(
660.5,
512,
l
),
(
615.5,
510,
o
),
(
563.5,
509,
o
),
(
511.5,
509,
c
),
(
474.5,
509,
o
),
(
431.5,
510,
o
),
(
387.5,
512,
c
),
(
387.5,
442,
l
),
(
402.5,
440,
l
),
(
456.5,
434,
o
),
(
473.5,
406,
o
),
(
431.5,
303,
c
),
(
360.5,
102,
l
),
(
377.5,
97,
l
),
(
252.5,
406,
l
),
(
238.5,
439,
o
),
(
227.5,
474,
o
),
(
229.5,
512,
c
),
(
207.5,
510,
o
),
(
184.5,
509,
o
),
(
152.5,
509,
c
),
(
103.5,
509,
o
),
(
72.5,
511,
o
),
(
39.5,
512,
c
),
(
39.5,
441,
l
),
(
107.5,
442,
o
),
(
153.5,
421,
o
),
(
174.5,
370,
c
),
(
327.5,
-5,
l
)
);
}
);
width = 700;
},
{
anchors = (
{
name = bottom;
pos = (
337,
0
);
},
{
name = top;
pos = (
337,
520
);
}
);
associatedMasterId = "F497C50F-30EB-4580-9148-0005B36D0333";
attr = {
axisRules = (
{
max = 400;
},
{
max = 97;
},
{
min = 700;
}
);
};
background = {
anchors = (
{
name = bottom;
pos = (
272,
0
);
},
{
name = top;
pos = (
272,
520
);
}
);
shapes = (
{
closed = 1;
nodes = (
(
343,
-15,
l
),
(
496,
356,
ls
),
(
532,
443,
o
),
(
561,
484,
o
),
(
609,
518,
c
),
(
609,
519,
l
),
(
594,
517,
o
),
(
558,
515,
o
),
(
532,
515,
cs
),
(
502,
515,
o
),
(
454,
517,
o
),
(
427,
519,
c
),
(
427,
518,
l
),
(
489,
497,
o
),
(
509,
393,
o
),
(
469,
295,
cs
),
(
427,
193,
l
),
(
433,
204,
l
),
(
323,
443,
ls
),
(
312,
467,
o
),
(
305,
492,
o
),
(
303,
519,
c
),
(
273,
517,
o
),
(
247,
516,
o
),
(
212,
516,
cs
),
(
149,
516,
o
),
(
101,
516,
o
),
(
65,
519,
c
),
(
65,
518,
l
),
(
88,
516,
o
),
(
107,
498,
o
),
(
123,
462,
cs
),
(
342,
-15,
l
)
);
}
);
};
layerId = "38613EF2-4D91-46D6-8D21-E7F316723477";
name = "23 Jan 22, 11:36";
shapes = (
{
closed = 1;
nodes = (
(
343,
-15,
l
),
(
461,
271,
l
),
(
536,
451,
o
),
(
566,
496,
o
),
(
623,
515,
c
),
(
635,
519,
l
),
(
635,
520,
l
),
(
596,
518,
o
),
(
573,
517,
o
),
(
534,
517,
c
),
(
493,
517,
o
),
(
467,
518,
o
),
(
407,
520,
c
),
(
407,
519,
l
),
(
414,
518,
l
),
(
501,
506,
o
),
(
518,
414,
o
),
(
459,
271,
c
),
(
427,
193,
l
),
(
433,
204,
l
),
(
323,
444,
l
),
(
312,
468,
o
),
(
305,
493,
o
),
(
303,
520,
c
),
(
273,
518,
o
),
(
247,
517,
o
),
(
212,
517,
c
),
(
149,
517,
o
),
(
101,
517,
o
),
(
65,
520,
c
),
(
65,
519,
l
),
(
88,
517,
o
),
(
107,
499,
o
),
(
132,
444,
c
),
(
342,
-15,
l
)
);
}
);
width = 700;
},
{
anchors = (
{
name = bottom;
pos = (
346.5,
0
);
},
{
name = top;
pos = (
341.5,
512
);
}
);
associatedMasterId = "DF17D77B-A5C4-4843-826A-BC0F1C4CB224";
attr = {
axisRules = (
{
max = 400;
},
{
max = 97;
},
{
min = 700;
}
);
};
background = {
anchors = (
{
name = bottom;
pos = (
262,
0
);
},
{
name = top;
pos = (
257,
512
);
}
);
shapes = (
{
closed = 1;
nodes = (
(
347.5,
-15,
l
),
(
497.5,
390,
ls
),
(
529.5,
476,
o
),
(
556.5,
510,
o
),
(
592.5,
513,
c
),
(
592.5,
514,
l
),
(
571.5,
513,
o
),
(
546.5,
512,
o
),
(
516.5,
512,
cs
),
(
487.5,
512,
o
),
(
470.5,
512,
o
),
(
422.5,
514,
c
),
(
422.5,
513,
l
),
(
503.5,
507,
o
),
(
516.5,
447,
o
),
(
467.5,
314,
cs
),
(
390.5,
105,
l
),
(
392.5,
107,
l
),
(
258.5,
435,
ls
),
(
248.5,
459,
o
),
(
242.5,
486,
o
),
(
240.5,
514,
c
),
(
221.5,
512,
o
),
(
201.5,
511,
o
),
(
178.5,
511,
cs
),
(
143.5,
511,
o
),
(
117.5,
512,
o
),
(
84.5,
514,
c
),
(
84.5,
513,
l
),
(
115.5,
512,
o
),
(
137.5,
494,
o
),
(
152.5,
458,
cs
),
(
346.5,
-15,
l
)
);
}
);
};
guides = (
{
angle = 69.599;
pos = (
347.5,
-15
);
}
);
layerId = "82607577-90E0-4D6C-9D17-FD6A6FE6FDC6";
name = "23 Jan 22, 11:36";
shapes = (
{
closed = 1;
nodes = (
(
347.5,
-15,
l
),
(
477.5,
335,
l
),
(
525.5,
467,
o
),
(
556.5,
499,
o
),
(
606.5,
509,
c
),
(
616.5,
511,
l
),
(
616.5,
512,
l
),
(
599.5,
511,
o
),
(
572.5,
509,
o
),
(
531.5,
509,
c
),
(
499.5,
509,
o
),
(
447.5,
510,
o
),
(
411.5,
512,
c
),
(
411.5,
511,
l
),
(
421.5,
510,
l
),
(
494.5,
503,
o
),
(
517.5,
452,
o
),
(
471.5,
324,
c
),
(
386.5,
93,
l
),
(
392.5,
108,
l
),
(
259.5,
434,
l
),
(
249.5,
458,
o
),
(
240.5,
484,
o
),
(
238.5,
512,
c
),
(
219.5,
510,
o
),
(
200.5,
509,
o
),
(
177.5,
509,
c
),
(
142.5,
509,
o
),
(
116.5,
510,
o
),
(
83.5,
512,
c
),
(
83.5,
511,
l
),
(
114.5,
510,
o
),
(
139.5,
493,
o
),
(
154.5,
457,
c
),
(
346.5,
-15,
l
)
);
}
);
width = 700;
}
);
unicode = 118;
userData = {
KernOnName = v;
};
}
{
color = 4;
glyphname = w;
kernLeft = KO_w;
kernRight = KO_w;
layers = (
{
anchors = (
{
name = bottom;
pos = (
351.334,
0
);
},
{
name = top;
pos = (
374.46,
512
);
}
);
background = {
anchors = (
{
name = bottom;
pos = (
403,
0
);
},
{
name = top;
pos = (
429,
512
);
}
);
shapes = (
{
closed = 1;
nodes = (
(
214.461,
-15,
l
),
(
374.878,
518,
l
),
(
374.02,
519,
l
),
(
250.49,
110,
l
),
(
253.922,
118,
l
),
(
156.128,
430,
ls
),
(
135.539,
497,
o
),
(
141.544,
508,
o
),
(
203.309,
513,
c
),
(
203.309,
514,
l
),
(
172.427,
512,
o
),
(
135.539,
511,
o
),
(
91.789,
511,
cs
),
(
59.191,
511,
o
),
(
27.451,
513,
o
),
(
7.721,
514,
c
),
(
7.721,
513,
l
),
(
21.446,
512,
o
),
(
48.039,
512,
o
),
(
65.196,
458,
cs
),
(
213.603,
-15,
l
)
);
},
{
closed = 1;
nodes = (
(
487.255,
-15,
l
),
(
601.348,
381,
ls
),
(
627.083,
470,
o
),
(
648.53,
504,
o
),
(
682.843,
513,
c
),
(
682.843,
514,
l
),
(
658.824,
512,
o
),
(
635.662,
512,
o
),
(
609.069,
512,
cs
),
(
586.765,
512,
o
),
(
573.897,
512,
o
),
(
537.01,
514,
c
),
(
537.01,
513,
l
),
(
596.201,
508,
o
),
(
613.358,
430,
o
),
(
579.902,
313,
cs
),
(
511.275,
73,
l
),
(
523.284,
111,
l
),
(
375.735,
519,
l
),
(
374.02,
519,
l
),
(
337.133,
397,
l
),
(
486.397,
-15,
l
)
);
}
);
};
layerId = "DF17D77B-A5C4-4843-826A-BC0F1C4CB224";
shapes = (
{
closed = 1;
nodes = (
(
214.461,
-15,
l
),
(
374.878,
518,
l
),
(
374.02,
519,
l
),
(
250.49,
110,
l
),
(
253.922,
118,
l
),
(
158.701,
422,
l
),
(
140.686,
489,
o
),
(
150.123,
502,
o
),
(
198.162,
509,
c
),
(
211.887,
510,
l
),
(
211.887,
511,
l
),
(
187.01,
511,
o
),
(
145.833,
509,
o
),
(
92.647,
509,
c
),
(
89.216,
509,
l
),
(
88.358,
509,
l
),
(
48.897,
509,
o
),
(
19.731,
511,
o
),
(
0,
512,
c
),
(
0,
511,
l
),
(
9.436,
510,
l
),
(
42.892,
506,
o
),
(
54.902,
489,
o
),
(
72.917,
433,
c
),
(
213.603,
-15,
l
)
);
},
{
closed = 1;
nodes = (
(
487.255,
-15,
l
),
(
587.623,
333,
l
),
(
624.51,
466,
o
),
(
650.245,
499,
o
),
(
693.137,
509,
c
),
(
701.716,
511,
l
),
(
701.716,
512,
l
),
(
687.133,
511,
o
),
(
663.971,
509,
o
),
(
628.799,
509,
c
),
(
601.348,
509,
o
),
(
556.74,
510,
o
),
(
525.858,
512,
c
),
(
525.858,
511,
l
),
(
534.436,
510,
l
),
(
597.059,
503,
o
),
(
618.505,
451,
o
),
(
582.476,
322,
c
),
(
511.275,
73,
l
),
(
523.284,
111,
l
),
(
375.735,
519,
l
),
(
374.02,
519,
l
),
(
337.133,
397,
l
),
(
486.397,
-15,
l
)
);
}
);
width = 700;
},
{
anchors = (
{
name = bottom;
pos = (
351.499,
0
);
},
{
name = top;
pos = (
361.242,
512
);
}
);
background = {
anchors = (
{
name = bottom;
pos = (
459,
0
);
},
{
name = top;
pos = (
472,
512
);
}
);
shapes = (
{
closed = 1;
nodes = (
(
260.109,
-5,
l
),
(
379.454,
468,
l
),
(
334.317,
514,
l
),
(
231.038,
107,
l
),
(
244.809,
112,
l
),
(
179.016,
359,
ls
),
(
160.656,
427,
o
),
(
171.366,
443,
o
),
(
231.038,
443,
c
),
(
231.038,
514,
l
),
(
208.087,
511,
o
),
(
180.546,
510,
o
),
(
128.525,
510,
cs
),
(
67.322,
510,
o
),
(
35.956,
511,
o
),
(
10.71,
514,
c
),
(
10.71,
443,
l
),
(
63.497,
443,
o
),
(
90.273,
422,
o
),
(
104.809,
369,
cs
),
(
208.852,
-5,
l
)
);
},
{
closed = 1;
nodes = (
(
503.388,
-5,
l
),
(
589.836,
355,
ls
),
(
605.902,
421,
o
),
(
630.383,
443,
o
),
(
689.29,
443,
c
),
(
689.29,
514,
l
),
(
661.749,
512,
o
),
(
626.557,
511,
o
),
(
586.776,
511,
cs
),
(
551.585,
511,
o
),
(
534.754,
512,
o
),
(
491.913,
514,
c
),
(
491.913,
443,
l
),
(
535.519,
443,
o
),
(
548.525,
418,
o
),
(
531.694,
349,
cs
),
(
471.257,
100,
l
),
(
491.913,
108,
l
),
(
390.164,
514,
l
),
(
334.317,
514,
l
),
(
349.617,
403,
l
),
(
452.131,
-5,
l
)
);
}
);
};
layerId = "7300F074-2CFD-43CC-B20F-1BF1EAE6C2C7";
shapes = (
{
closed = 1;
nodes = (
(
260.109,
-5,
l
),
(
379.454,
466,
l
),
(
334.317,
512,
l
),
(
231.038,
107,
l
),
(
244.809,
112,
l
),
(
179.781,
354,
l
),
(
165.246,
411,
o
),
(
176.721,
432,
o
),
(
221.093,
438,
c
),
(
244.809,
441,
l
),
(
244.809,
511,
l
),
(
216.503,
510,
o
),
(
153.005,
509,
o
),
(
106.339,
509,
c
),
(
101.749,
509,
l
),
(
98.689,
509,
l
),
(
75.738,
509,
o
),
(
42.077,
510,
o
),
(
15.301,
512,
c
),
(
15.301,
442,
l
),
(
46.667,
438,
l
),
(
81.858,
434,
o
),
(
91.803,
415,
o
),
(
109.399,
354,
c
),
(
208.852,
-5,
l
)
);
},
{
closed = 1;
nodes = (
(
503.388,
-5,
l
),
(
578.361,
307,
l
),
(
604.372,
404,
o
),
(
618.907,
431,
o
),
(
667.869,
438,
c
),
(
683.934,
440,
l
),
(
684.699,
510,
l
),
(
650.273,
509,
o
),
(
610.492,
508,
o
),
(
570.71,
509,
c
),
(
542.404,
509,
o
),
(
509.508,
511,
o
),
(
475.847,
514,
c
),
(
475.082,
444,
l
),
(
486.557,
442,
l
),
(
527.869,
434,
o
),
(
545.464,
404,
o
),
(
517.158,
300,
c
),
(
471.257,
100,
l
),
(
491.913,
108,
l
),
(
390.164,
512,
l
),
(
334.317,
512,
l
),
(
349.617,
403,
l
),
(
452.131,
-5,
l
)
);
}
);
width = 700;
},
{
anchors = (
{
name = bottom;
pos = (
371.171,
0
);
},
{
name = top;
pos = (
381.982,
520
);
}
);
background = {
anchors = (
{
name = bottom;
pos = (
432,
0
);
},
{
name = top;
pos = (
444,
520
);
}
);
shapes = (
{
closed = 1;
nodes = (
(
254.233,
-15,
l
),
(
426.871,
522,
l
),
(
426.012,
523,
l
),
(
324.663,
208,
l
),
(
328.098,
217,
l
),
(
240.491,
440,
ls
),
(
223.313,
484,
o
),
(
227.607,
514,
o
),
(
270.552,
518,
c
),
(
270.552,
519,
l
),
(
230.184,
517,
o
),
(
177.791,
515,
o
),
(
135.706,
515,
cs
),
(
89.325,
515,
o
),
(
52.393,
517,
o
),
(
17.178,
519,
c
),
(
17.178,
518,
l
),
(
29.202,
516,
o
),
(
48.098,
512,
o
),
(
67.853,
462,
cs
),
(
253.374,
-15,
l
)
);
},
{
closed = 1;
nodes = (
(
467.239,
-15,
l
),
(
621.84,
421,
ls
),
(
640.736,
475,
o
),
(
654.479,
497,
o
),
(
682.822,
518,
c
),
(
682.822,
519,
l
),
(
669.939,
516,
o
),
(
637.301,
515,
o
),
(
616.687,
515,
cs
),
(
596.074,
515,
o
),
(
541.963,
516,
o
),
(
517.914,
519,
c
),
(
517.914,
518,
l
),
(
566.012,
510,
o
),
(
625.276,
435,
o
),
(
581.472,
312,
cs
),
(
541.104,
198,
l
),
(
546.258,
209,
l
),
(
426.871,
523,
l
),
(
426.012,
523,
l
),
(
351.288,
290,
l
),
(
466.38,
-15,
l
)
);
}
);
};
layerId = "F497C50F-30EB-4580-9148-0005B36D0333";
shapes = (
{
closed = 1;
nodes = (
(
254.233,
-15,
l
),
(
426.871,
522,
l
),
(
426.012,
523,
l
),
(
324.663,
208,
l
),
(
328.098,
217,
l
),
(
243.926,
430,
l
),
(
219.877,
495,
o
),
(
229.325,
512,
o
),
(
266.258,
517,
c
),
(
280.859,
519,
l
),
(
280.859,
520,
l
),
(
254.233,
519,
o
),
(
202.699,
517,
o
),
(
133.988,
517,
c
),
(
127.117,
517,
l
),
(
138.282,
517,
l
),
(
74.724,
517,
o
),
(
25.767,
519,
o
),
(
0,
520,
c
),
(
0,
519,
l
),
(
12.025,
517,
l
),
(
41.227,
512,
o
),
(
54.11,
499,
o
),
(
67.853,
463,
c
),
(
253.374,
-15,
l
)
);
},
{
closed = 1;
nodes = (
(
467.239,
-15,
l
),
(
572.025,
281,
l
),
(
633.865,
453,
o
),
(
657.914,
496,
o
),
(
692.27,
515,
c
),
(
700,
519,
l
),
(
700,
520,
l
),
(
675.951,
518,
o
),
(
662.209,
517,
o
),
(
639.018,
517,
c
),
(
614.11,
517,
o
),
(
598.65,
518,
o
),
(
562.577,
520,
c
),
(
562.577,
519,
l
),
(
566.871,
518,
l
),
(
619.264,
506,
o
),
(
619.264,
418,
o
),
(
571.166,
281,
c
),
(
541.104,
198,
l
),
(
546.258,
209,
l
),
(
426.871,
523,
l
),
(
426.012,
523,
l
),
(
351.288,
290,
l
),
(
466.38,
-15,
l
)
);
}
);
width = 700;
},
{
anchors = (
{
name = bottom;
pos = (
370.633,
0
);
},
{
name = top;
pos = (
379.803,
520
);
}
);
background = {
anchors = (
{
name = bottom;
pos = (
476,
0
);
},
{
name = top;
pos = (
488,
520
);
}
);
shapes = (
{
closed = 1;
nodes = (
(
261.752,
0,
l
),
(
400.855,
477,
l
),
(
357.479,
519,
l
),
(
262.5,
188,
l
),
(
294.658,
199,
l
),
(
243.803,
370,
ls
),
(
227.35,
426,
o
),
(
238.568,
448,
o
),
(
278.953,
448,
c
),
(
278.953,
519,
l
),
(
246.047,
516,
o
),
(
203.419,
515,
o
),
(
151.816,
515,
cs
),
(
109.936,
515,
o
),
(
74.786,
516,
o
),
(
26.175,
519,
c
),
(
26.175,
448,
l
),
(
63.568,
448,
o
),
(
81.517,
430,
o
),
(
97.97,
375,
cs
),
(
211.645,
0,
l
)
);
},
{
closed = 1;
nodes = (
(
472.65,
0,
l
),
(
569.872,
333,
ls
),
(
590.064,
403,
o
),
(
611.752,
436,
o
),
(
649.893,
448,
c
),
(
649.893,
519,
l
),
(
633.44,
517,
o
),
(
596.795,
515,
o
),
(
569.872,
515,
cs
),
(
542.949,
515,
o
),
(
509.295,
517,
o
),
(
486.859,
519,
c
),
(
486.859,
448,
l
),
(
525.748,
442,
o
),
(
536.966,
405,
o
),
(
513.034,
326,
cs
),
(
469.658,
181,
l
),
(
501.816,
212,
l
),
(
407.585,
519,
l
),
(
357.479,
519,
l
),
(
327.564,
313,
l
),
(
422.543,
0,
l
)
);
}
);
};
layerId = "29EF49B2-C370-4E88-B36E-A4ACD23E3F3A";
shapes = (
{
closed = 1;
nodes = (
(
261.752,
0,
l
),
(
400.855,
478,
l
),
(
357.479,
520,
l
),
(
262.5,
188,
l
),
(
294.658,
199,
l
),
(
247.543,
358,
l
),
(
227.35,
425,
o
),
(
239.316,
442,
o
),
(
266.987,
447,
c
),
(
283.44,
450,
l
),
(
283.44,
520,
l
),
(
243.056,
518,
o
),
(
175,
517,
o
),
(
134.615,
517,
c
),
(
127.137,
517,
l
),
(
123.397,
517,
l
),
(
99.466,
517,
o
),
(
57.585,
518,
o
),
(
29.915,
520,
c
),
(
30.662,
450,
l
),
(
48.611,
447,
l
),
(
77.778,
441,
o
),
(
82.265,
428,
o
),
(
95.726,
383,
c
),
(
211.645,
0,
l
)
);
},
{
closed = 1;
nodes = (
(
472.65,
0,
l
),
(
573.611,
346,
l
),
(
598.291,
420,
o
),
(
616.987,
442,
o
),
(
656.624,
448,
c
),
(
670.085,
450,
l
),
(
670.085,
520,
l
),
(
639.423,
518,
o
),
(
604.274,
517,
o
),
(
569.124,
517,
c
),
(
537.714,
517,
o
),
(
500.321,
518,
o
),
(
462.927,
520,
c
),
(
462.927,
450,
l
),
(
478.632,
448,
l
),
(
523.504,
440,
o
),
(
536.218,
408,
o
),
(
504.808,
312,
c
),
(
469.658,
181,
l
),
(
501.816,
212,
l
),
(
407.585,
520,
l
),
(
357.479,
520,
l
),
(
327.564,
313,
l
),
(
422.543,
0,
l
)
);
}
);
width = 700;
},
{
anchors = (
{
name = bottom;
pos = (
370.633,
0
);
},
{
name = top;
pos = (
379.803,
520
);
}
);
associatedMasterId = "29EF49B2-C370-4E88-B36E-A4ACD23E3F3A";
attr = {
axisRules = (
{
max = 400;
},
{
max = 97;
},
{
min = 700;
}
);
};
background = {
anchors = (
{
name = bottom;
pos = (
485,
0
);
},
{
name = top;
pos = (
497,
520
);
}
);
shapes = (
{
closed = 1;
nodes = (
(
274.345,
0,
l
),
(
416.485,
477,
l
),
(
372.162,
519,
l
),
(
275.109,
188,
l
),
(
304.148,
199,
l
),
(
238.428,
416,
l
),
(
226.965,
447,
o
),
(
222.38,
482,
o
),
(
223.908,
519,
c
),
(
200.983,
517,
o
),
(
178.057,
516,
o
),
(
155.131,
516,
cs
),
(
95.524,
516,
o
),
(
61.9,
517,
o
),
(
30.568,
519,
c
),
(
30.568,
448,
l
),
(
71.07,
443,
o
),
(
87.882,
427,
o
),
(
106.223,
377,
c
),
(
223.144,
0,
l
)
);
},
{
closed = 1;
nodes = (
(
489.847,
0,
l
),
(
588.428,
333,
ls
),
(
609.061,
403,
o
),
(
631.223,
436,
o
),
(
670.197,
448,
c
),
(
670.197,
519,
l
),
(
658.734,
518,
o
),
(
634.279,
516,
o
),
(
615.939,
516,
cs
),
(
594.541,
516,
o
),
(
580.022,
517,
o
),
(
560.153,
519,
c
),
(
564.738,
484,
o
),
(
558.624,
435,
o
),
(
541.048,
368,
cs
),
(
490.611,
181,
l
),
(
518.886,
212,
l
),
(
423.362,
519,
l
),
(
372.162,
519,
l
),
(
343.122,
313,
l
),
(
438.646,
0,
l
)
);
}
);
};
layerId = "B837431A-1EAE-4F9C-B844-F030F98B8FB5";
name = "23 Jan 22, 11:43";
shapes = (
{
closed = 1;
nodes = (
(
271.288,
0,
l
),
(
413.428,
478,
l
),
(
369.105,
520,
l
),
(
272.052,
188,
l
),
(
304.913,
199,
l
),
(
238.428,
417,
l
),
(
226.965,
448,
o
),
(
222.38,
483,
o
),
(
223.908,
520,
c
),
(
200.983,
518,
o
),
(
178.057,
517,
o
),
(
155.131,
517,
c
),
(
95.524,
517,
o
),
(
61.9,
518,
o
),
(
30.568,
520,
c
),
(
30.568,
449,
l
),
(
71.07,
444,
o
),
(
87.882,
428,
o
),
(
105.459,
378,
c
),
(
220.087,
0,
l
)
);
},
{
closed = 1;
nodes = (
(
486.79,
0,
l
),
(
586.135,
333,
l
),
(
606.769,
404,
o
),
(
628.93,
437,
o
),
(
669.432,
449,
c
),
(
669.432,
520,
l
),
(
657.969,
519,
o
),
(
632.751,
517,
o
),
(
613.646,
517,
c
),
(
590.721,
517,
o
),
(
576.201,
518,
o
),
(
555.568,
520,
c
),
(
560.153,
485,
o
),
(
554.039,
436,
o
),
(
535.699,
369,
c
),
(
483.734,
181,
l
),
(
516.594,
212,
l
),
(
420.306,
520,
l
),
(
369.105,
520,
l
),
(
338.537,
313,
l
),
(
435.59,
0,
l
)
);
}
);
width = 700;
},
{
anchors = (
{
name = bottom;
pos = (
351.499,
0
);
},
{
name = top;
pos = (
361.242,
512
);
}
);
associatedMasterId = "7300F074-2CFD-43CC-B20F-1BF1EAE6C2C7";
attr = {
axisRules = (
{
max = 400;
},
{
max = 97;
},
{
min = 700;
}
);
};
background = {
anchors = (
{
name = bottom;
pos = (
475,
0
);
},
{
name = top;
pos = (
488,
512
);
}
);
shapes = (
{
closed = 1;
nodes = (
(
266.809,
-5,
l
),
(
385.225,
468,
l
),
(
341.006,
514,
l
),
(
238.33,
107,
l
),
(
250.321,
112,
l
),
(
173.876,
406,
ls
),
(
164.882,
440,
o
),
(
158.887,
476,
o
),
(
160.385,
514,
c
),
(
143.897,
512,
o
),
(
126.66,
511,
o
),
(
102.677,
511,
cs
),
(
65.953,
511,
o
),
(
42.719,
514,
o
),
(
17.987,
514,
c
),
(
17.987,
443,
l
),
(
68.951,
444,
o
),
(
100.428,
422,
o
),
(
114.668,
370,
cs
),
(
216.595,
-5,
l
)
);
},
{
closed = 1;
nodes = (
(
505.139,
-5,
l
),
(
589.829,
357,
ls
),
(
605.567,
424,
o
),
(
629.55,
443,
o
),
(
687.259,
443,
c
),
(
687.259,
514,
l
),
(
646.788,
512,
o
),
(
628.051,
511,
o
),
(
606.317,
511,
cs
),
(
586.081,
511,
o
),
(
571.842,
512,
o
),
(
553.105,
514,
c
),
(
558.351,
474,
o
),
(
549.358,
421,
o
),
(
535.867,
363,
cs
),
(
473.662,
100,
l
),
(
493.897,
108,
l
),
(
393.469,
514,
l
),
(
341.006,
514,
l
),
(
353.747,
403,
l
),
(
454.925,
-5,
l
)
);
}
);
};
layerId = "051183AB-8513-4606-B95A-72A80DCDF505";
name = "23 Jan 22, 11:43";
shapes = (
{
closed = 1;
nodes = (
(
262.313,
-5,
l
),
(
379.229,
466,
l
),
(
335.011,
512,
l
),
(
233.833,
107,
l
),
(
247.323,
112,
l
),
(
170.878,
404,
l
),
(
161.884,
438,
o
),
(
155.889,
474,
o
),
(
157.388,
512,
c
),
(
140.899,
510,
o
),
(
123.662,
509,
o
),
(
99.679,
509,
c
),
(
62.955,
509,
o
),
(
39.722,
511,
o
),
(
14.989,
512,
c
),
(
14.989,
441,
l
),
(
65.953,
442,
o
),
(
97.43,
420,
o
),
(
111.67,
368,
c
),
(
212.099,
-5,
l
)
);
},
{
closed = 1;
nodes = (
(
500.642,
-5,
l
),
(
585.332,
354,
l
),
(
601.071,
421,
o
),
(
625.054,
440,
o
),
(
685.011,
440,
c
),
(
685.011,
511,
l
),
(
643.041,
509,
o
),
(
623.555,
508,
o
),
(
601.071,
508,
c
),
(
580.086,
508,
o
),
(
565.096,
509,
o
),
(
545.61,
511,
c
),
(
550.857,
471,
o
),
(
542.612,
418,
o
),
(
529.122,
360,
c
),
(
469.165,
100,
l
),
(
489.4,
108,
l
),
(
389.722,
512,
l
),
(
335.011,
512,
l
),
(
350,
403,
l
),
(
450.428,
-5,
l
)
);
}
);
width = 700;
},
{
anchors = (
{
name = bottom;
pos = (
371.171,
0
);
},
{
name = top;
pos = (
381.982,
520
);
}
);
associatedMasterId = "F497C50F-30EB-4580-9148-0005B36D0333";
attr = {
axisRules = (
{
max = 400;
},
{
max = 97;
},
{
min = 700;
}
);
};
background = {
anchors = (
{
name = bottom;
pos = (
410,
0
);
},
{
name = top;
pos = (
422,
520
);
}
);
shapes = (
{
closed = 1;
nodes = (
(
247.748,
-15,
l
),
(
428.829,
522,
l
),
(
427.928,
523,
l
),
(
321.622,
208,
l
),
(
325.225,
217,
l
),
(
232.432,
443,
ls
),
(
222.523,
467,
o
),
(
216.216,
492,
o
),
(
214.414,
519,
c
),
(
187.387,
517,
o
),
(
163.964,
516,
o
),
(
132.432,
516,
cs
),
(
75.676,
516,
o
),
(
32.432,
516,
o
),
(
0,
519,
c
),
(
0,
518,
l
),
(
20.721,
516,
o
),
(
37.838,
498,
o
),
(
52.252,
462,
cs
),
(
246.847,
-15,
l
)
);
},
{
closed = 1;
nodes = (
(
471.171,
-15,
l
),
(
617.117,
378,
ls
),
(
645.045,
453,
o
),
(
666.667,
494,
o
),
(
697.297,
518,
c
),
(
697.297,
519,
l
),
(
690.09,
517,
o
),
(
674.775,
516,
o
),
(
663.063,
516,
cs
),
(
652.252,
516,
o
),
(
643.243,
517,
o
),
(
631.532,
519,
c
),
(
638.739,
471,
o
),
(
629.73,
416,
o
),
(
611.712,
368,
cs
),
(
548.649,
198,
l
),
(
554.054,
209,
l
),
(
428.829,
523,
l
),
(
427.928,
523,
l
),
(
349.55,
290,
l
),
(
470.27,
-15,
l
)
);
}
);
};
layerId = "6F115BE7-3815-46D6-9FBD-D3616F97F15E";
name = "23 Jan 22, 11:43";
shapes = (
{
closed = 1;
nodes = (
(
248.649,
-15,
l
),
(
429.73,
522,
l
),
(
428.829,
523,
l
),
(
322.523,
208,
l
),
(
326.126,
217,
l
),
(
232.432,
444,
l
),
(
222.523,
468,
o
),
(
216.216,
493,
o
),
(
214.414,
520,
c
),
(
187.387,
518,
o
),
(
163.964,
517,
o
),
(
132.432,
517,
c
),
(
75.676,
517,
o
),
(
32.432,
517,
o
),
(
0,
520,
c
),
(
0,
519,
l
),
(
20.721,
517,
o
),
(
37.838,
499,
o
),
(
59.459,
444,
c
),
(
247.748,
-15,
l
)
);
},
{
closed = 1;
nodes = (
(
472.072,
-15,
l
),
(
618.018,
378,
l
),
(
646.847,
454,
o
),
(
668.468,
495,
o
),
(
700,
519,
c
),
(
700,
520,
l
),
(
692.793,
518,
o
),
(
676.577,
517,
o
),
(
664.865,
517,
c
),
(
653.153,
517,
o
),
(
644.144,
518,
o
),
(
631.532,
520,
c
),
(
639.64,
472,
o
),
(
631.532,
416,
o
),
(
612.613,
368,
c
),
(
549.55,
198,
l
),
(
554.955,
209,
l
),
(
429.73,
523,
l
),
(
428.829,
523,
l
),
(
350.45,
290,
l
),
(
471.171,
-15,
l
)
);
}
);
width = 700;
},
{
anchors = (
{
name = bottom;
pos = (
352.223,
0
);
},
{
name = top;
pos = (
375.349,
512
);
}
);
associatedMasterId = "DF17D77B-A5C4-4843-826A-BC0F1C4CB224";
attr = {
axisRules = (
{
max = 400;
},
{
max = 97;
},
{
min = 700;
}
);
};
background = {
anchors = (
{
name = bottom;
pos = (
396,
0
);
},
{
name = top;
pos = (
422,
512
);
}
);
shapes = (
{
closed = 1;
nodes = (
(
216.137,
-15,
l
),
(
382.465,
518,
l
),
(
381.575,
519,
l
),
(
247.268,
90,
l
),
(
257.052,
118,
l
),
(
154.764,
435,
ls
),
(
146.759,
459,
o
),
(
140.533,
486,
o
),
(
138.754,
514,
c
),
(
121.855,
512,
o
),
(
104.955,
511,
o
),
(
84.498,
511,
cs
),
(
53.367,
511,
o
),
(
30.241,
512,
o
),
(
0.889,
514,
c
),
(
0.889,
513,
l
),
(
28.462,
512,
o
),
(
49.809,
495,
o
),
(
61.372,
458,
cs
),
(
215.247,
-15,
l
)
);
},
{
closed = 1;
nodes = (
(
498.983,
-15,
l
),
(
617.28,
381,
ls
),
(
643.964,
470,
o
),
(
666.2,
504,
o
),
(
701.778,
513,
c
),
(
701.778,
514,
l
),
(
689.326,
513,
o
),
(
676.874,
513,
o
),
(
661.753,
513,
cs
),
(
650.19,
513,
o
),
(
642.185,
513,
o
),
(
629.733,
514,
c
),
(
635.959,
473,
o
),
(
628.843,
421,
o
),
(
610.165,
362,
cs
),
(
523.888,
73,
l
),
(
536.34,
111,
l
),
(
383.354,
519,
l
),
(
381.575,
519,
l
),
(
343.329,
397,
l
),
(
498.094,
-15,
l
)
);
}
);
};
layerId = "D875D432-AA93-4A54-BE5F-9C1323A1D897";
name = "23 Jan 22, 11:43";
shapes = (
{
closed = 1;
nodes = (
(
215.247,
-15,
l
),
(
381.575,
518,
l
),
(
380.686,
519,
l
),
(
252.604,
110,
l
),
(
256.162,
118,
l
),
(
153.875,
433,
l
),
(
145.87,
457,
o
),
(
139.644,
484,
o
),
(
137.865,
512,
c
),
(
120.965,
510,
o
),
(
104.066,
509,
o
),
(
83.608,
509,
c
),
(
52.477,
509,
o
),
(
29.352,
510,
o
),
(
0,
512,
c
),
(
0,
511,
l
),
(
27.573,
510,
o
),
(
48.919,
493,
o
),
(
61.372,
456,
c
),
(
214.358,
-15,
l
)
);
},
{
closed = 1;
nodes = (
(
498.094,
-15,
l
),
(
615.501,
378,
l
),
(
642.185,
468,
o
),
(
664.421,
502,
o
),
(
701.778,
511,
c
),
(
701.778,
512,
l
),
(
688.437,
511,
o
),
(
675.984,
511,
o
),
(
659.974,
511,
c
),
(
648.411,
511,
o
),
(
639.517,
511,
o
),
(
627.064,
512,
c
),
(
633.291,
471,
o
),
(
627.064,
419,
o
),
(
608.386,
359,
c
),
(
522.998,
73,
l
),
(
535.451,
111,
l
),
(
382.465,
519,
l
),
(
380.686,
519,
l
),
(
342.439,
397,
l
),
(
497.204,
-15,
l
)
);
}
);
width = 700;
}
);
unicode = 119;
}
